<?xml version="1.0" encoding="utf-8"?>
<!-- Generator: Adobe Illustrator 27.5.0, SVG Export Plug-In . SVG Version: 6.00 Build 0)  -->
<svg version="1.1" xmlns="http://www.w3.org/2000/svg" xmlns:xlink="http://www.w3.org/1999/xlink" x="0px" y="0px"
	 viewBox="0 0 750 500" style="enable-background:new 0 0 750 500;" xml:space="preserve">
<g id="BACKGROUND">
	<rect style="fill:#FFFFDF;" width="750" height="500"/>
</g>
<g id="OBJECTS">
	<g>
		<g>
			<g>
				<path style="fill:#95B700;" d="M726.112,356.639c-0.058,0.037-0.115,0.074-0.173,0.111c-1.828,1.176-4.007-0.799-3.019-2.735
					c2.311-4.531,3.916-9.423,4.72-14.444c0.312-1.951-2.017-3.187-3.505-1.887c-0.907,0.792-1.783,1.619-2.626,2.48
					c-1.451,1.48-3.945,0.223-3.586-1.819c1.15-6.548,1.009-13.327-0.45-19.813c-0.373-1.659-2.485-2.179-3.63-0.923
					c-0.14,0.154-0.276,0.311-0.408,0.472c-1.147,1.397-3.388,0.885-3.729-0.89c-1.252-6.51-3.562-14.188-7.026-18.399
					c-1.097-1.334-3.271-0.845-3.681,0.833c-1.499,6.143-1.065,13.092-0.249,19.719c0.231,1.876-1.952,3.117-3.405,1.907
					c-1.942-1.617-4.235-2.818-6.672-3.467c-1.613-0.429-3.076,1.114-2.558,2.7c2.161,6.608,4.578,13.131,7.244,19.551
					c0.747,1.798-1.112,3.562-2.861,2.706c-1.708-0.836-3.526-1.449-5.393-1.81c-1.455-0.281-2.717,0.985-2.487,2.449
					c1.168,7.457,5.529,14.075,10.435,20.162c1.269,1.575-0.183,3.859-2.147,3.375l-2.549-0.628
					c-1.59-0.392-3.042,1.109-2.529,2.664c2.583,7.832,11.132,13.274,8.106,22.772c-0.555,1.743,1.23,3.335,2.89,2.565
					c6.917-3.211,11.741-8.345,18.156-15.952c5.104-6.053,9.873-12.159,14.065-18.779
					C730.266,357.632,728.034,355.409,726.112,356.639z"/>
				<g>
					<path style="fill:none;stroke:#205F28;stroke-linecap:round;stroke-linejoin:round;stroke-miterlimit:10;" d="M698.581,389.84
						c2.922-6.336,5.567-12.832,7.249-19.604c3.303-13.299,2.754-27.532-1.563-40.538"/>
					<path style="fill:none;stroke:#205F28;stroke-linecap:round;stroke-linejoin:round;stroke-miterlimit:10;" d="M707.957,357.066
						c-3.018-7.075-5.95-15.042-8.237-22.386"/>
					<path style="fill:none;stroke:#205F28;stroke-linecap:round;stroke-linejoin:round;stroke-miterlimit:10;" d="M708.111,351.145
						c1.899-3.922,3.803-9.709,4.603-13.992"/>
					<path style="fill:none;stroke:#205F28;stroke-linecap:round;stroke-linejoin:round;stroke-miterlimit:10;" d="M707.399,363.725
						c0.941-0.634,1.582-1.614,2.183-2.576c2.624-4.198,4.986-8.56,7.068-13.052"/>
					<path style="fill:none;stroke:#205F28;stroke-linecap:round;stroke-linejoin:round;stroke-miterlimit:10;" d="M705.83,370.236
						c-2.301-5.968-5.064-11.718-7.365-17.685"/>
					<path style="fill:none;stroke:#205F28;stroke-linecap:round;stroke-linejoin:round;stroke-miterlimit:10;" d="M703.567,377.745
						c2.472-2.105,5.438-5.579,7.274-8.257"/>
				</g>
			</g>
			<g>
				<path style="fill:#95B700;" d="M623.213,159.706c-0.028,0.027-0.056,0.054-0.085,0.081c-0.895,0.854-2.326-0.015-1.982-1.203
					c0.804-2.781,1.173-5.689,1.082-8.582c-0.036-1.124-1.471-1.564-2.163-0.677c-0.422,0.54-0.822,1.097-1.201,1.669
					c-0.651,0.984-2.181,0.549-2.201-0.63c-0.063-3.784-0.872-7.557-2.386-11.025c-0.387-0.887-1.623-0.95-2.128-0.125
					c-0.062,0.101-0.121,0.204-0.177,0.308c-0.491,0.905-1.798,0.86-2.18-0.096c-1.401-3.504-3.52-7.546-5.91-9.527
					c-0.757-0.627-1.919-0.12-1.967,0.862c-0.176,3.595,0.815,7.432,1.986,11.048c0.331,1.024-0.755,1.952-1.697,1.433
					c-1.26-0.694-2.671-1.119-4.103-1.219c-0.948-0.066-1.599,0.954-1.139,1.785c1.92,3.46,3.974,6.846,6.156,10.147
					c0.611,0.924-0.238,2.111-1.307,1.82c-1.045-0.283-2.127-0.43-3.209-0.43c-0.843,0-1.412,0.843-1.126,1.637
					c1.457,4.042,4.607,7.271,8.005,10.145c0.879,0.744,0.314,2.177-0.836,2.118l-1.492-0.077c-0.931-0.048-1.581,0.947-1.126,1.761
					c2.288,4.099,7.652,6.22,6.984,11.854c-0.123,1.034,1.047,1.732,1.891,1.122c3.52-2.54,5.663-5.929,8.429-10.872
					c2.201-3.933,4.208-7.86,5.838-12.012C625.641,159.814,624.154,158.812,623.213,159.706z"/>
				<g>
					<path style="fill:none;stroke:#205F28;stroke-linecap:round;stroke-linejoin:round;stroke-miterlimit:10;" d="M611.402,181.229
						c0.95-3.856,1.729-7.772,1.939-11.738c0.413-7.789-1.427-15.685-5.242-22.489"/>
					<path style="fill:none;stroke:#205F28;stroke-linecap:round;stroke-linejoin:round;stroke-miterlimit:10;" d="M613.111,161.901
						c-2.449-3.629-4.946-7.766-7.016-11.625"/>
					<path style="fill:none;stroke:#205F28;stroke-linecap:round;stroke-linejoin:round;stroke-miterlimit:10;" d="M612.559,158.575
						c0.639-2.397,1.079-5.836,1.065-8.317"/>
					<path style="fill:none;stroke:#205F28;stroke-linecap:round;stroke-linejoin:round;stroke-miterlimit:10;" d="M613.517,165.683
						c0.458-0.456,0.71-1.073,0.942-1.675c1.014-2.629,1.864-5.322,2.544-8.057"/>
					<path style="fill:none;stroke:#205F28;stroke-linecap:round;stroke-linejoin:round;stroke-miterlimit:10;" d="M613.342,169.491
						c-1.929-3.088-4.093-6.004-6.022-9.091"/>
					<path style="fill:none;stroke:#205F28;stroke-linecap:round;stroke-linejoin:round;stroke-miterlimit:10;" d="M612.886,173.932
						c1.155-1.443,2.438-3.704,3.176-5.399"/>
				</g>
			</g>
			<g>
				<path style="fill:#95B700;" d="M307.824,482.606c0.068-0.011,0.135-0.023,0.203-0.034c2.144-0.358,2.43-3.285,0.397-4.054
					c-4.757-1.801-9.233-4.345-13.203-7.523c-1.543-1.235-0.649-3.715,1.327-3.754c1.204-0.023,2.409,0.001,3.611,0.071
					c2.069,0.121,3.07-2.487,1.433-3.757c-5.253-4.076-9.704-9.189-12.983-14.972c-0.839-1.479,0.375-3.283,2.068-3.123
					c0.207,0.02,0.414,0.045,0.62,0.075c1.789,0.263,3.103-1.621,2.163-3.165c-3.448-5.662-6.899-12.899-7.164-18.346
					c-0.084-1.725,1.854-2.824,3.285-1.857c5.239,3.541,9.589,8.978,13.438,14.433c1.09,1.545,3.54,0.996,3.803-0.876
					c0.351-2.502,1.242-4.933,2.61-7.051c0.906-1.402,3.026-1.243,3.709,0.28c2.841,6.345,5.436,12.8,7.777,19.345
					c0.656,1.833,3.217,1.89,3.937,0.081c0.703-1.768,1.637-3.443,2.777-4.965c0.888-1.186,2.674-1.096,3.488,0.142
					c4.147,6.307,5.366,14.138,5.825,21.943c0.119,2.019,2.729,2.734,3.858,1.056l1.465-2.178c0.914-1.359,2.997-1.224,3.663,0.273
					c3.351,7.535,0.68,17.311,9.304,22.309c1.583,0.918,1.331,3.297-0.415,3.841c-7.28,2.271-14.303,1.713-24.165,0.392
					c-7.848-1.051-15.483-2.367-23.036-4.451C305.417,486.133,305.575,482.987,307.824,482.606z"/>
				<g>
					<path style="fill:none;stroke:#205F28;stroke-linecap:round;stroke-linejoin:round;stroke-miterlimit:10;" d="M350.524,488.684
						c-6.422-2.728-12.747-5.759-18.544-9.643c-11.385-7.627-20.545-18.534-26.09-31.066"/>
					<path style="fill:none;stroke:#205F28;stroke-linecap:round;stroke-linejoin:round;stroke-miterlimit:10;" d="M321.554,470.719
						c-2.52-7.267-5.705-15.137-8.948-22.111"/>
					<path style="fill:none;stroke:#205F28;stroke-linecap:round;stroke-linejoin:round;stroke-miterlimit:10;" d="M317.46,466.438
						c-4.042-1.628-9.341-4.633-12.813-7.266"/>
					<path style="fill:none;stroke:#205F28;stroke-linecap:round;stroke-linejoin:round;stroke-miterlimit:10;" d="M326.443,475.275
						c-1.122,0.163-2.256-0.132-3.348-0.44c-4.765-1.345-9.445-2.987-14.006-4.914"/>
					<path style="fill:none;stroke:#205F28;stroke-linecap:round;stroke-linejoin:round;stroke-miterlimit:10;" d="M331.98,479.041
						c-2.308-5.965-4.126-12.08-6.434-18.045"/>
					<path style="fill:none;stroke:#205F28;stroke-linecap:round;stroke-linejoin:round;stroke-miterlimit:10;" d="M338.703,483.079
						c-3.245,0.103-7.776-0.476-10.935-1.224"/>
				</g>
			</g>
			<g>
				<path style="fill:#ACD96A;" d="M367.48,362.95c-3.736-0.323-7.64-0.395-11.071,1.117c-3.432,1.511-6.247,5.008-5.846,8.737
					c0.427,3.965,4.329,6.835,8.274,7.416c3.945,0.58,7.916-0.602,11.715-1.814c7.721-2.465,15.382-5.116,22.975-7.951
					C386.265,365.013,376.342,363.716,367.48,362.95z"/>
				<path style="fill:none;stroke:#205F28;stroke-linecap:round;stroke-linejoin:round;stroke-miterlimit:10;" d="M393.6,370.53
					c-6.001-2.516-12.654-2.975-19.161-2.939c-5.686,0.032-11.722,0.537-16.309,3.898"/>
			</g>
			<g>
				<path style="fill:#ACD96A;" d="M503.209,319.554c3.021-2.222,6.002-4.743,7.584-8.143s1.391-7.885-1.37-10.422
					c-2.936-2.698-7.763-2.281-11.111-0.115s-5.552,5.674-7.607,9.091c-4.177,6.946-8.185,13.993-12.022,21.132
					C487.73,330.396,496.044,324.826,503.209,319.554z"/>
				<path style="fill:none;stroke:#205F28;stroke-linecap:round;stroke-linejoin:round;stroke-miterlimit:10;" d="M478.578,331.089
					c6.17-2.067,11.473-6.112,16.339-10.432c4.252-3.774,8.456-8.136,9.685-13.688"/>
			</g>
			<g>
				<path style="fill:#ACD96A;" d="M641.582,293.105c3.021-2.222,6.002-4.743,7.584-8.143c1.582-3.4,1.391-7.885-1.37-10.422
					c-2.936-2.698-7.763-2.281-11.111-0.115s-5.552,5.674-7.607,9.091c-4.177,6.946-8.185,13.993-12.022,21.132
					C626.103,303.947,634.417,298.376,641.582,293.105z"/>
				<path style="fill:none;stroke:#205F28;stroke-linecap:round;stroke-linejoin:round;stroke-miterlimit:10;" d="M616.951,304.64
					c6.17-2.067,11.473-6.112,16.339-10.432c4.252-3.774,8.456-8.136,9.685-13.688"/>
			</g>
			<g>
				<path style="fill:#ACD96A;" d="M247.861,484.319c-3.75-0.015-7.644-0.295-10.926-2.109c-3.282-1.814-5.771-5.551-5.035-9.227
					c0.782-3.91,4.927-6.418,8.908-6.641c3.982-0.223,7.829,1.312,11.504,2.862c7.468,3.15,14.859,6.48,22.166,9.987
					C266.756,483.956,256.757,484.355,247.861,484.319z"/>
				<path style="fill:none;stroke:#205F28;stroke-linecap:round;stroke-linejoin:round;stroke-miterlimit:10;" d="M274.559,479.122
					c-6.203,1.966-12.871,1.823-19.348,1.202c-5.66-0.543-11.627-1.59-15.891-5.35"/>
			</g>
			<g>
				<path style="fill:#ACD96A;" d="M707.041,235.161c1.619-3.382,3.062-7.01,2.858-10.754c-0.204-3.744-2.485-7.612-6.115-8.55
					c-3.861-0.998-7.923,1.642-9.856,5.13c-1.933,3.488-2.227,7.62-2.431,11.602c-0.415,8.094-0.634,16.199-0.658,24.303
					C698.489,252.014,703.201,243.185,707.041,235.161z"/>
				<path style="fill:none;stroke:#205F28;stroke-linecap:round;stroke-linejoin:round;stroke-miterlimit:10;" d="M690.741,256.934
					c4.47-4.728,7.244-10.794,9.504-16.896c1.975-5.332,3.63-11.159,2.101-16.636"/>
			</g>
			<g>
				<path style="fill:#ACD96A;" d="M483.868,241.821c-1.751-3.316-3.803-6.637-6.931-8.705c-3.128-2.068-7.593-2.542-10.51-0.186
					c-3.103,2.505-3.404,7.34-1.757,10.971c1.648,3.631,4.79,6.33,7.866,8.868c6.252,5.158,12.628,10.165,19.121,15.015
					C492.302,258.733,488.021,249.688,483.868,241.821z"/>
				<path style="fill:none;stroke:#205F28;stroke-linecap:round;stroke-linejoin:round;stroke-miterlimit:10;" d="M491.633,267.887
					c-1.132-6.408-4.348-12.251-7.9-17.702c-3.104-4.764-6.796-9.566-12.105-11.603"/>
			</g>
		</g>
		<g>
			<g>
				<g>
					<path style="fill:#95B700;" d="M583.352,163.375c-0.202-3.37-4.576-4.43-6.413-1.597c-1.532,2.363-3.453,4.464-5.938,6.5
						c6.079-16.36-0.721-62.369-15.846-28.798c0.531-9.856-0.887-19.622-3.281-29.192c-1.024-4.093-6.753-4.467-8.297-0.541
						c-1.52,3.865-2.694,7.855-3.244,11.724c-27.855-96.761-45.097-76.29-28.721,11.656c-13.029-13.171-14.5-6.52-11.172,3.962
						c-33.778-37.636-34.735-15.752-1.418,36.507c-25.058-10.813-0.321,16.982,11.516,20.404
						c-32.136-8.397-7.276,14.139,11.119,13.539c-39.429,7.787,10.629,15.289,27.071,10.176c5.714,1.113,11.388,0.856,13.88-5.159
						C574.995,206.539,584.295,179.103,583.352,163.375z"/>
					<g>
						<defs>
							<path id="SVGID_1_" d="M583.352,163.375c-0.202-3.37-4.576-4.43-6.413-1.597c-1.532,2.363-3.453,4.464-5.938,6.5
								c6.079-16.36-0.721-62.369-15.846-28.798c0.531-9.856-0.887-19.622-3.281-29.192c-1.024-4.093-6.753-4.467-8.297-0.541
								c-1.52,3.865-2.694,7.855-3.244,11.724c-27.855-96.761-45.097-76.29-28.721,11.656c-13.029-13.171-14.5-6.52-11.172,3.962
								c-33.778-37.636-34.735-15.752-1.418,36.507c-25.058-10.813-0.321,16.982,11.516,20.404
								c-32.136-8.397-7.276,14.139,11.119,13.539c-39.429,7.787,10.629,15.289,27.071,10.176c5.714,1.113,9.805-2.745,12.297-8.759
								C573.411,202.938,584.295,179.103,583.352,163.375z"/>
						</defs>
						<clipPath id="SVGID_00000142158101902912925300000002311143735038979236_">
							<use xlink:href="#SVGID_1_"  style="overflow:visible;"/>
						</clipPath>
						<g style="clip-path:url(#SVGID_00000142158101902912925300000002311143735038979236_);">
							<path style="fill:none;stroke:#205F28;stroke-linecap:round;stroke-linejoin:round;stroke-miterlimit:10;" d="
								M562.487,228.021c-14.859-28.809-28.917-58.189-38.562-89.136s-14.798-63.647-11.511-95.895"/>
							<path style="fill:none;stroke:#205F28;stroke-linecap:round;stroke-linejoin:round;stroke-miterlimit:10;" d="
								M517.107,112.339c-6.637-6.62-12.547-13.967-17.591-21.869"/>
							<path style="fill:none;stroke:#205F28;stroke-linecap:round;stroke-linejoin:round;stroke-miterlimit:10;" d="
								M522.731,135.613c3.968-18.2,9.952-35.96,17.806-52.85"/>
							<path style="fill:none;stroke:#205F28;stroke-linecap:round;stroke-linejoin:round;stroke-miterlimit:10;" d="
								M531.465,160.531c-12.797-9.952-23.183-22.982-30.032-37.675"/>
							<path style="fill:none;stroke:#205F28;stroke-linecap:round;stroke-linejoin:round;stroke-miterlimit:10;" d="
								M541.824,184.687c-26.493-10.401-48.259-32.253-58.555-58.787"/>
							<path style="fill:none;stroke:#205F28;stroke-linecap:round;stroke-linejoin:round;stroke-miterlimit:10;" d="
								M549.129,199.24c6.361-23.367,9.381-47.641,8.94-71.855"/>
							<path style="fill:none;stroke:#205F28;stroke-linecap:round;stroke-linejoin:round;stroke-miterlimit:10;" d="
								M535.867,172.595c10.825-20.704,11.752-44.977,12.449-68.329"/>
							<path style="fill:none;stroke:#205F28;stroke-linecap:round;stroke-linejoin:round;stroke-miterlimit:10;" d="
								M553.008,208.499c14.521-24.348,22.57-52.516,23.106-80.86"/>
							<path style="fill:none;stroke:#205F28;stroke-linecap:round;stroke-linejoin:round;stroke-miterlimit:10;" d="
								M545.164,194.741c-25.274-4.892-48.978-17.602-67.04-35.945"/>
							<path style="fill:none;stroke:#205F28;stroke-linecap:round;stroke-linejoin:round;stroke-miterlimit:10;" d="
								M550.962,204.811c-21.699,1.821-43.981-4.425-61.573-17.258"/>
							<path style="fill:none;stroke:#205F28;stroke-linecap:round;stroke-linejoin:round;stroke-miterlimit:10;" d="
								M555.077,211.738c-22.664,0.517-46.718-2.153-64.814-15.808"/>
						</g>
					</g>
				</g>
				<g>
					<path style="fill:#AF33AF;" d="M515.831,225.968c10.257-13.533,33.205-33.577,76.58-26.983
						c7.253,1.103,13.166,6.409,14.956,13.523c4.994,19.849,11.201,60.814-16.063,79.225c-3.761,2.54-8.328,3.6-12.818,2.944
						c-11.773-1.722-36.756-10.005-62.963-47.441C511.034,240.824,511.103,232.206,515.831,225.968z"/>
					<g>
						<path style="opacity:0.23;fill:#FFFFDF;" d="M608.391,216.846c-16.173-2.942-33.208-1.111-48.347,5.312
							c-15.842,6.72-29.504,18.43-38.655,32.996c5.248,6.712,10.41,12.312,15.386,16.965c17.923-22.348,45.82-36.455,74.443-37.531
							C610.608,228.074,609.533,221.988,608.391,216.846z"/>
						<path style="opacity:0.23;fill:#FFFFDF;" d="M601.488,265.859c-11.535,2.104-22.521,7.174-31.641,14.54
							c-3.233,2.612-6.234,5.514-8.937,8.671c7.226,3.469,13.282,4.979,17.575,5.607c4.49,0.657,9.057-0.404,12.818-2.944
							c9.99-6.746,15.474-16.524,18.183-27.178C606.534,264.788,603.418,265.507,601.488,265.859z"/>
						<path style="fill:none;stroke:#1B1D35;stroke-linecap:round;stroke-linejoin:round;stroke-miterlimit:10;" d="
							M520.856,219.814c-3.5,5.819-3.133,13.728,0.891,19.197"/>
						<path style="fill:none;stroke:#1B1D35;stroke-linecap:round;stroke-linejoin:round;stroke-miterlimit:10;" d="M530.451,211.46
							c-1.321,2.924-1.766,6.238-1.263,9.407"/>
						<path style="fill:none;stroke:#1B1D35;stroke-linecap:round;stroke-linejoin:round;stroke-miterlimit:10;" d="
							M540.025,267.137c8.439,10.062,20.721,15.937,32.61,21.516"/>
						<path style="fill:none;stroke:#1B1D35;stroke-linecap:round;stroke-linejoin:round;stroke-miterlimit:10;" d="
							M583.108,287.165c-3.361-2.678-6.526-5.6-9.463-8.737"/>
						<path style="fill:none;stroke:#1B1D35;stroke-linecap:round;stroke-linejoin:round;stroke-miterlimit:10;" d="
							M591.905,285.602c5.773-6.051,9.642-13.892,10.932-22.155"/>
						<path style="fill:none;stroke:#1B1D35;stroke-linecap:round;stroke-linejoin:round;stroke-miterlimit:10;" d="
							M581.806,201.033c2.2,2.43,3.862,5.345,4.831,8.476"/>
						<path style="fill:none;stroke:#1B1D35;stroke-linecap:round;stroke-linejoin:round;stroke-miterlimit:10;" d="M562.61,199.748
							c0.975,1.084,1.95,2.167,2.925,3.251"/>
						<path style="fill:none;stroke:#1B1D35;stroke-linecap:round;stroke-linejoin:round;stroke-miterlimit:10;" d="
							M599.755,204.556c4.573,7.44,5.654,16.436,6.628,25.114"/>
						<path style="fill:none;stroke:#1B1D35;stroke-linecap:round;stroke-linejoin:round;stroke-miterlimit:10;" d="M596.759,227.37
							c2.391,5.174,3.609,10.886,3.535,16.586"/>
					</g>
					<g>
						<g>
							
								<ellipse transform="matrix(0.9445 -0.3285 0.3285 0.9445 -42.7442 201.7589)" style="fill:#1B1D35;" cx="575.682" cy="227.37" rx="2.697" ry="5.091"/>
							
								<ellipse transform="matrix(0.9445 -0.3285 0.3285 0.9445 -47.498 194.1661)" style="fill:#1B1D35;" cx="550.837" cy="237.641" rx="2.697" ry="5.091"/>
						</g>
						
							<ellipse transform="matrix(0.9119 -0.4104 0.4104 0.9119 -45.0923 260.7668)" style="fill:#DB1A50;" cx="584.833" cy="235.413" rx="7.389" ry="5.216"/>
						
							<ellipse transform="matrix(0.9119 -0.4104 0.4104 0.9119 -54.1314 248.4825)" style="fill:#DB1A50;" cx="551.701" cy="250.324" rx="7.389" ry="5.216"/>
						<g>
							<path style="fill:#1B1D35;" d="M560.791,249.541c1.734,3.413,5.406,6.705,9.2,7.734c4.18,1.133,8.425-0.723,10.608-4.51
								c0.337-0.585,0.665-1.397,0.851-2.082c0.713-2.624,0.918-5.561,0.263-7.981c-0.443-1.639-2.601-2.007-3.596-0.632
								c-1.741,2.404-3.623,4.455-6.054,5.569c-3.643,1.67-6.965,0.939-10.089,0.336
								C561.084,247.803,560.381,248.733,560.791,249.541z"/>
							<path style="fill:#E84092;" d="M580.599,252.765c-1.965-0.305-4.001-0.166-5.896,0.441c-0.803,0.257-1.588,0.598-2.268,1.096
								c-1.045,0.764-1.783,1.849-2.444,2.974C574.178,258.539,578.553,256.489,580.599,252.765z"/>
						</g>
					</g>
				</g>
			</g>
			<g>
				<g>
					<path style="fill:#205F28;" d="M635.485,359.292c2.329-9.66-5.319-19.865-15.36-19.793
						c3.605-11.431-20.065-23.828-24.123-10.319c-7.881-13.087-25.867-9.499-26.323,6.114c-13.48-2.109-22.233,14.7-12.844,23.998
						c-0.684,0.786-1.24,1.769-1.64,2.961c-0.09,0.03-0.176,0.065-0.264,0.097c-7.952-12.812-25.724-9.182-26.177,6.338
						c-14.741-2.306-23.843,18.015-9.736,26.393c-18.033-0.999-10.128,27.413,5.48,18.477c-8.239,7.633,1.513,18.7,9.973,10.89
						c7.209,8.984,21.41,12.949,27.416,0.551c5.481,5.631,16.344,3.523,21.175-2.581c8.333,2.254,17.541-0.506,18.346-10.838
						c7.382,3.346,17.316-3.957,17.662-11.907c4.303-2.023,6.638-7.607,6.749-13.178
						C636.293,385.439,644.245,366.539,635.485,359.292z"/>
					<path style="fill:#205F28;" d="M605.54,397.347c7.209,8.984,21.411,12.949,27.416,0.551c6.173,6.342,19.18,2.872,22.697-5.073
						c10.626-0.705,18.822-19.919,9.975-27.239c2.329-9.66-5.319-19.865-15.36-19.793c3.605-11.431-20.065-23.828-24.123-10.319
						c-7.881-13.087-25.867-9.499-26.323,6.114c-14.741-2.306-23.843,18.015-9.736,26.392c-18.033-0.999-10.128,27.413,5.48,18.477
						C587.328,394.091,597.08,405.157,605.54,397.347z"/>
					<path style="fill:#205F28;" d="M566.902,453.968c10.369-1.943,19.705-11.7,12.285-21.904
						c7.788-2.247,10.603-14.25,5.705-20.522c4.02-8.886-7.959-23.804-17.691-19.82c-6.796-6.053-18.341-4.283-22.62,3.858
						c-7.675-7.848-27.91,5.915-18.752,15.026c-13.973,0.713-18.843,16.789-6.43,23.9c-8.228,10.91,4.253,27.037,17.111,19.261
						c-8.595,14.133,17.766,20.019,17.29,3.554C556.407,467.271,569.556,464.175,566.902,453.968z"/>
					<g>
						<path style="fill:none;stroke:#FFFFDF;stroke-linecap:round;stroke-linejoin:round;stroke-miterlimit:10;" d="
							M620.579,392.998c0,0,9.492,7.149,18.661-1.021"/>
						<path style="fill:none;stroke:#FFFFDF;stroke-linecap:round;stroke-linejoin:round;stroke-miterlimit:10;" d="
							M584.757,416.286c0,0,11.406,4.183,14.55-8.02"/>
						<path style="fill:none;stroke:#FFFFDF;stroke-linecap:round;stroke-linejoin:round;stroke-miterlimit:10;" d="
							M565.659,424.084c2.277-0.541,4.004-2.531,4.781-4.739c0.777-2.208,0.742-4.616,0.528-6.947"/>
						<path style="fill:none;stroke:#FFFFDF;stroke-linecap:round;stroke-linejoin:round;stroke-miterlimit:10;" d="
							M553.722,395.878c1.738-1.42,4.364-1.323,6.346-0.271c1.982,1.052,3.427,2.888,4.628,4.784"/>
						<path style="fill:none;stroke:#FFFFDF;stroke-linecap:round;stroke-linejoin:round;stroke-miterlimit:10;" d="M546.182,412.74
							c1.372,1.645,3.514,2.619,5.656,2.57c2.142-0.048,4.238-1.117,5.534-2.822"/>
						<path style="fill:none;stroke:#FFFFDF;stroke-linecap:round;stroke-linejoin:round;stroke-miterlimit:10;" d="
							M554.157,405.947c2.313-1.249,5.468-0.639,7.148,1.383"/>
						<path style="fill:none;stroke:#FFFFDF;stroke-linecap:round;stroke-linejoin:round;stroke-miterlimit:10;" d="
							M526.319,424.894c-0.127,0.941,0.641,1.751,1.4,2.321c2.12,1.592,4.806,2.588,7.428,2.197
							c2.622-0.391,5.073-2.387,5.501-5.004"/>
						<path style="fill:none;stroke:#FFFFDF;stroke-linecap:round;stroke-linejoin:round;stroke-miterlimit:10;" d="
							M542.552,438.208c-0.139-2.291,1.86-4.27,4.065-4.908c2.205-0.638,4.561-0.258,6.824,0.127"/>
						<path style="fill:none;stroke:#FFFFDF;stroke-linecap:round;stroke-linejoin:round;stroke-miterlimit:10;" d="
							M552.944,441.717c1.292,1.604,3.791,1.77,5.662,0.909c1.871-0.861,3.244-2.51,4.487-4.152"/>
						<path style="fill:none;stroke:#FFFFDF;stroke-linecap:round;stroke-linejoin:round;stroke-miterlimit:10;" d="
							M532.128,405.234c0.632-3.626,3.001-6.91,6.243-8.653"/>
						<path style="fill:none;stroke:#FFFFDF;stroke-linecap:round;stroke-linejoin:round;stroke-miterlimit:10;" d="
							M525.019,440.194c-0.38,0.887,0.243,1.903,1.015,2.482c1.922,1.442,4.564,1.279,6.956,1.05"/>
						<path style="fill:none;stroke:#FFFFDF;stroke-linecap:round;stroke-linejoin:round;stroke-miterlimit:10;" d="
							M544.187,457.327c0.648-2.697,2.779-4.988,5.422-5.83"/>
						<path style="fill:none;stroke:#FFFFDF;stroke-linecap:round;stroke-linejoin:round;stroke-miterlimit:10;" d="
							M564.771,363.372c0.185-2.832,1.56-5.568,3.723-7.406c2.163-1.838,5.084-2.754,7.909-2.479"/>
						<path style="fill:none;stroke:#FFFFDF;stroke-linecap:round;stroke-linejoin:round;stroke-miterlimit:10;" d="
							M574.385,365.113c1.824,0.974,4.128,0.634,5.939-0.365s3.226-2.572,4.58-4.135"/>
						<path style="fill:none;stroke:#FFFFDF;stroke-linecap:round;stroke-linejoin:round;stroke-miterlimit:10;" d="
							M538.854,375.895c-0.42-3.05,1.675-6.248,4.638-7.082"/>
						<path style="fill:none;stroke:#FFFFDF;stroke-linecap:round;stroke-linejoin:round;stroke-miterlimit:10;" d="
							M550.666,375.574c2.786,1.982,7.202,0.992,8.876-1.989"/>
						<path style="fill:none;stroke:#FFFFDF;stroke-linecap:round;stroke-linejoin:round;stroke-miterlimit:10;" d="
							M565.143,381.753c1.044-3.081,3.955-5.442,7.185-5.828"/>
						<path style="fill:none;stroke:#FFFFDF;stroke-linecap:round;stroke-linejoin:round;stroke-miterlimit:10;" d="
							M523.044,378.405c-1.896,0.764-2.686,3.176-2.238,5.17c0.448,1.994,1.827,3.636,3.239,5.113"/>
						<path style="fill:none;stroke:#FFFFDF;stroke-linecap:round;stroke-linejoin:round;stroke-miterlimit:10;" d="M517.16,401.16
							c-1.008,1.731-0.77,4.098,0.561,5.594"/>
						<path style="fill:none;stroke:#FFFFDF;stroke-linecap:round;stroke-linejoin:round;stroke-miterlimit:10;" d="
							M539.365,383.835c2.134,1.688,4.992,2.427,7.677,1.983"/>
						<path style="fill:none;stroke:#FFFFDF;stroke-linecap:round;stroke-linejoin:round;stroke-miterlimit:10;" d="M580.514,385.59
							c-0.782-4.112,2.072-8.583,6.131-9.605"/>
						<path style="fill:none;stroke:#FFFFDF;stroke-linecap:round;stroke-linejoin:round;stroke-miterlimit:10;" d="
							M590.955,384.865c2.033-0.344,3.711-1.868,4.745-3.652c1.034-1.784,1.523-3.823,1.999-5.829"/>
						<path style="fill:none;stroke:#FFFFDF;stroke-linecap:round;stroke-linejoin:round;stroke-miterlimit:10;" d="M594.41,395.961
							c-1.623,2.037-1.69,5.165-0.156,7.269"/>
						<path style="fill:none;stroke:#FFFFDF;stroke-linecap:round;stroke-linejoin:round;stroke-miterlimit:10;" d="
							M608.599,385.587c-1.048-3.094-0.677-6.638,0.989-9.447"/>
						<path style="fill:none;stroke:#FFFFDF;stroke-linecap:round;stroke-linejoin:round;stroke-miterlimit:10;" d="
							M612.919,363.655c-0.242-0.013-0.483-0.025-0.724-0.038c-0.644-1.891-0.876-3.972-0.324-5.892
							c0.552-1.92,1.969-3.645,3.869-4.264"/>
						<path style="fill:none;stroke:#FFFFDF;stroke-linecap:round;stroke-linejoin:round;stroke-miterlimit:10;" d="M621.098,358.1
							c1.988-0.203,3.875-1.255,5.093-2.838c1.218-1.584,1.751-3.678,1.437-5.651"/>
						<path style="fill:none;stroke:#FFFFDF;stroke-linecap:round;stroke-linejoin:round;stroke-miterlimit:10;" d="
							M628.047,373.387c0.573-2.063,2.668-3.437,4.792-3.708c2.124-0.271,4.26,0.371,6.229,1.214"/>
						<path style="fill:none;stroke:#FFFFDF;stroke-linecap:round;stroke-linejoin:round;stroke-miterlimit:10;" d="
							M622.602,381.286c2.594,1.542,6.174,1.189,8.417-0.83"/>
						<path style="fill:none;stroke:#FFFFDF;stroke-linecap:round;stroke-linejoin:round;stroke-miterlimit:10;" d="
							M639.557,357.437c1.2-1.718,3.423-2.538,5.514-2.398s4.05,1.128,5.705,2.413"/>
						<path style="fill:none;stroke:#FFFFDF;stroke-linecap:round;stroke-linejoin:round;stroke-miterlimit:10;" d="
							M648.632,367.247c1.559,0.51,3.188,0.995,4.815,0.785c1.627-0.21,3.254-1.305,3.56-2.917"/>
						<path style="fill:none;stroke:#FFFFDF;stroke-linecap:round;stroke-linejoin:round;stroke-miterlimit:10;" d="
							M647.622,385.585c1.557-3.723,5-6.599,8.941-7.469"/>
						<path style="fill:none;stroke:#FFFFDF;stroke-linecap:round;stroke-linejoin:round;stroke-miterlimit:10;" d="
							M632.291,341.187c-0.177-1.254,0.761-2.46,1.92-2.97c1.159-0.51,2.482-0.465,3.739-0.317"/>
						<path style="fill:none;stroke:#FFFFDF;stroke-linecap:round;stroke-linejoin:round;stroke-miterlimit:10;" d="
							M611.034,339.814c1.319-1.168,3.161-1.599,4.922-1.542c1.76,0.057,3.473,0.556,5.163,1.051"/>
						<path style="fill:none;stroke:#FFFFDF;stroke-linecap:round;stroke-linejoin:round;stroke-miterlimit:10;" d="
							M589.406,342.973c1.801,2.523,5.187,3.798,8.204,3.091"/>
						<path style="fill:none;stroke:#FFFFDF;stroke-linecap:round;stroke-linejoin:round;stroke-miterlimit:10;" d="M596.8,335.291
							c0.74-1.662,2.366-2.797,4.094-3.366c1.728-0.569,3.573-0.646,5.391-0.718"/>
						<path style="fill:none;stroke:#FFFFDF;stroke-linecap:round;stroke-linejoin:round;stroke-miterlimit:10;" d="
							M578.637,333.787c-0.225-2.113,1.478-4.048,3.462-4.811s4.184-0.628,6.304-0.481"/>
						<path style="fill:none;stroke:#FFFFDF;stroke-linecap:round;stroke-linejoin:round;stroke-miterlimit:10;" d="
							M568.555,341.548c-2.845,1.398-4.234,5.182-2.968,8.089"/>
						<path style="fill:none;stroke:#FFFFDF;stroke-linecap:round;stroke-linejoin:round;stroke-miterlimit:10;" d="
							M579.728,346.783c2.356,0.241,4.549,1.718,5.658,3.811"/>
						<path style="fill:none;stroke:#FFFFDF;stroke-linecap:round;stroke-linejoin:round;stroke-miterlimit:10;" d="
							M597.618,362.864c-0.717-1.956,0.19-4.369,2.018-5.369"/>
					</g>
				</g>
				<g>
					<path style="fill:#95B700;" d="M623.705,486.475c-4.869-12.517-9.05-25.369-15.356-37.196
						c-11.373-3.095-22.943-5.69-34.667-6.788c-1.469-0.138-2.03-1.916-0.948-2.919c2.72-2.522,3.125-5.955,2.117-8.498
						c-0.483-1.218,0.457-2.507,1.757-2.351c9.513,1.139,18.939,3.001,28.17,5.565c-6.716-5.435-13.519-12.312-20.021-18.002
						c5.889,3.763,14.477-1.054,14.55-8.02c3.857,5.391,7.721,10.652,12.023,15.643c4.382,5.084,12.682,3.162,14.48-3.305
						c2.065-7.427-0.623-16.064-0.854-23.94c-0.028-0.944,0.954-1.614,1.814-1.224c2.503,1.134,5.631,0.864,8.162-0.446
						c0.762-0.395,1.694,0.065,1.861,0.906c1.553,7.787,2.632,15.683,4.762,23.331c15.108,7.934,27.555,19.772,41.361,29.495
						c5.78,4.07,6.971,12.131,2.602,17.689c-0.299,0.38-0.593,0.737-0.878,1.066c-12.185,15.011-29.921,26.669-49.401,26.854
						C630.14,494.383,625.555,491.23,623.705,486.475z"/>
					<g>
						<g>
							
								<ellipse transform="matrix(0.8408 -0.5413 0.5413 0.8408 -133.9418 415.8948)" style="fill:#1B1D35;" cx="640.256" cy="435.715" rx="2.372" ry="4.478"/>
							
								<ellipse transform="matrix(0.8408 -0.5413 0.5413 0.8408 -142.0465 409.3196)" style="fill:#1B1D35;" cx="625.023" cy="446.209" rx="2.372" ry="4.478"/>
						</g>
						<path style="fill:none;stroke:#1B1D35;stroke-linecap:round;stroke-linejoin:round;stroke-miterlimit:10;" d="M648.272,446
							c2.66,7.429-6.302,12.039-12.595,9.938"/>
						
							<ellipse transform="matrix(0.7899 -0.6132 0.6132 0.7899 -132.9873 490.5225)" style="fill:#D35C3C;" cx="649.434" cy="439.359" rx="5.532" ry="3.905"/>
						
							<ellipse transform="matrix(0.7899 -0.6132 0.6132 0.7899 -147.7285 480.8507)" style="fill:#D35C3C;" cx="627.947" cy="456.038" rx="5.532" ry="3.905"/>
					</g>
					<g>
						<path style="fill:none;stroke:#1B1D35;stroke-linecap:round;stroke-linejoin:round;stroke-miterlimit:10;" d="
							M583.823,439.902c6.721,0.869,13.442,1.738,20.163,2.606"/>
						<path style="fill:none;stroke:#1B1D35;stroke-linecap:round;stroke-linejoin:round;stroke-miterlimit:10;" d="
							M583.302,433.849c1.96,0.327,3.919,0.653,5.879,0.98"/>
						<path style="fill:none;stroke:#1B1D35;stroke-linecap:round;stroke-linejoin:round;stroke-miterlimit:10;" d="M594.786,419.05
							c3.133,1.874,6.056,4.098,8.697,6.618"/>
						<path style="fill:none;stroke:#1B1D35;stroke-linecap:round;stroke-linejoin:round;stroke-miterlimit:10;" d="
							M631.291,419.297c-0.434-4.595-0.867-9.19-1.301-13.785"/>
						<path style="fill:none;stroke:#1B1D35;stroke-linecap:round;stroke-linejoin:round;stroke-miterlimit:10;" d="
							M625.908,480.073c1.067,3.279,2.276,6.511,3.623,9.685"/>
						<path style="fill:none;stroke:#1B1D35;stroke-linecap:round;stroke-linejoin:round;stroke-miterlimit:10;" d="
							M636.642,492.328c-0.948-2.037-1.897-4.074-2.845-6.111"/>
						<path style="fill:none;stroke:#1B1D35;stroke-linecap:round;stroke-linejoin:round;stroke-miterlimit:10;" d="
							M668.064,448.158c4.287,1.808,8.401,4.028,12.265,6.62"/>
						<path style="fill:none;stroke:#1B1D35;stroke-linecap:round;stroke-linejoin:round;stroke-miterlimit:10;" d="
							M673.945,457.074c3.207,1.314,6.159,3.246,8.646,5.658"/>
						<path style="fill:none;stroke:#1B1D35;stroke-linecap:round;stroke-linejoin:round;stroke-miterlimit:10;" d="M675.477,473.42
							c-2.926-3.198-5.997-6.263-9.2-9.183"/>
					</g>
				</g>
			</g>
			<g>
				<path style="fill:#DB1A50;" d="M385.85,262.612c-3.8-0.558-7.826-0.68-11.328,0.898c-3.192,1.439-5.638,4.159-7.563,7.083
					c-8.119,12.333-8.048,28.506-4.233,42.77c1.549,5.789,3.691,11.488,7.08,16.429c5.461,7.962,13.889,13.521,22.858,17.096
					c20.356,8.114,45.216,6.026,62.182-7.842s23.733-39.933,13.167-59.131c-2.786-5.062-6.786-9.67-12.067-12.015
					c-6.621-2.941-14.387-1.96-21.186,0.541c-8.133,2.992-14.669,9.93-23.058,5.282C403.041,268.923,395.979,264.1,385.85,262.612z"
					/>
				<path style="fill:#95B700;" d="M433.88,276.586c3.391,0.985,6.831,1.991,9.831,3.854c3,1.863,5.556,4.727,6.241,8.191
					c-7.9-4.533-16.341-7.843-25.32-6.316c1.842,1.634,3.662,3.363,4.87,5.509c1.209,2.146,1.742,4.794,0.882,7.102
					c-2.307-3.213-4.994-6.152-7.988-8.736c-1.87-1.614-3.795-3.248-6.247-2.957c-4.157,0.492-8.43,0.315-12.443,1.505
					c-4.013,1.19-7.886,4.221-8.389,8.376c-0.318-4.037-0.38-8.147,0.561-12.085c0.942-3.939,3.121-7.837,6.361-10.266
					c-7.367-1.056-15.001-0.189-21.943,2.493c3.016-3.115,6.349-6.017,10.277-7.851c3.928-1.835,7.796-2.81,11.905-1.428
					c-5.688-4.103-11.856-7.541-18.338-10.22c4.339-1.047,8.887-0.162,13.24,0.826c6.205,1.409,12.581,3.135,17.491,7.181
					c6.742-7.364,19.269-10.921,28.901-8.292c-6.106,2.846-12.477,5.905-16.453,11.344c4.899-0.666,9.837-1.333,14.77-1.014
					c4.934,0.32,9.923,1.699,13.816,4.746c-9.24-0.915-19.246-1.39-27.08,3.594c5.493-0.545,11.092-1.086,16.49,0.067
					c5.399,1.152,10.664,4.292,12.979,9.303C451.289,276.277,442.428,274.74,433.88,276.586z"/>
				<path style="opacity:0.49;fill:#FFFFDF;" d="M455.549,295.396c0.291,3.546,0.265,7.118-0.077,10.66
					c-0.243,2.512-0.527,5.397,1.22,7.219c1.947,2.032,5.548,1.464,7.585-0.478c2.037-1.942,2.874-4.802,3.497-7.547
					c1.123-4.945,1.699-10.565-1.24-14.698c-2.361-3.32-6.872-4.943-10.807-3.886C450.994,287.937,455.297,292.331,455.549,295.396z
					"/>
				<g>
					<path style="fill:none;stroke:#1B1D35;stroke-linecap:round;stroke-linejoin:round;stroke-miterlimit:10;" d="M415.332,272.597
						c-2.293-4.778-6.485-8.612-11.448-10.471"/>
					<path style="fill:none;stroke:#1B1D35;stroke-linecap:round;stroke-linejoin:round;stroke-miterlimit:10;" d="M411.783,273.109
						c-2.391-2.239-5.435-3.773-8.657-4.362"/>
					<path style="fill:none;stroke:#1B1D35;stroke-linecap:round;stroke-linejoin:round;stroke-miterlimit:10;" d="M411.53,276.315
						c-4.06,1.007-7.897,2.898-11.168,5.505"/>
					<path style="fill:none;stroke:#1B1D35;stroke-linecap:round;stroke-linejoin:round;stroke-miterlimit:10;" d="M416.286,270.772
						c0.407-3.645,2.476-7.072,5.511-9.13"/>
					<path style="fill:none;stroke:#1B1D35;stroke-linecap:round;stroke-linejoin:round;stroke-miterlimit:10;" d="M418.449,272.065
						c1.436-1.587,3.177-2.898,5.101-3.838"/>
					<path style="fill:none;stroke:#1B1D35;stroke-linecap:round;stroke-linejoin:round;stroke-miterlimit:10;" d="M418.442,276.137
						c2.165-0.693,4.391-1.196,6.644-1.502"/>
				</g>
				<g>
					
						<ellipse transform="matrix(0.021 -0.9998 0.9998 0.021 107.201 742.0045)" style="fill:#E84092;" cx="432.475" cy="316.264" rx="5.216" ry="7.389"/>
					
						<ellipse transform="matrix(0.021 -0.9998 0.9998 0.021 70.9702 701.148)" style="fill:#E84092;" cx="393.498" cy="314.336" rx="5.216" ry="7.389"/>
					<path style="fill:none;stroke:#1B1D35;stroke-linecap:round;stroke-linejoin:round;stroke-miterlimit:10;" d="M391.796,304.398
						c2.166-1.582,4.925-2.33,7.593-2.059s5.221,1.557,7.025,3.541"/>
					<path style="fill:none;stroke:#1B1D35;stroke-linecap:round;stroke-linejoin:round;stroke-miterlimit:10;" d="M419.409,306.196
						c2.166-1.582,4.925-2.33,7.593-2.059s5.221,1.557,7.025,3.541"/>
					<path style="fill:none;stroke:#1B1D35;stroke-linecap:round;stroke-linejoin:round;stroke-miterlimit:10;" d="M405.066,313.495
						c1.134,2.719,3.777,4.749,6.696,5.145c2.919,0.396,6.007-0.858,7.824-3.177"/>
				</g>
			</g>
			<g>
				<path style="fill:#ACD96A;" d="M442.992,367.144c-20.875,4.399-21.925,24.118-46.216,29.07
					c-40.479,8.252-48.129,62.109-16.975,84.074c24.036,13.972,70.278,17.674,80.148-15.58c6.117-19.194,0.469-38.624,3.98-58.461
					C469.473,385.923,472.485,362.604,442.992,367.144z"/>
				<g>
					<path style="fill:#205F28;" d="M506.638,357.193c-19.121-0.995-40.216,1.481-52.862,17.875
						C474.799,386.489,495.493,376.045,506.638,357.193z"/>
					
						<line style="fill:none;stroke:#1B1D35;stroke-linecap:round;stroke-linejoin:round;stroke-miterlimit:10;" x1="455.53" y1="375.264" x2="499.967" y2="361.787"/>
				</g>
				<g>
					<path style="opacity:0.49;fill:#FFFFDF;" d="M435.57,451.48c-13.547,17.754,12.113,21.992,17.878,5.912
						c2.334-5.105,3.222-10.862,2.534-16.434c-0.611-4.949-5.27-11.104-8.91-7.364c-0.674,0.693-1.097,1.599-1.293,2.546
						C444.234,443.585,441.096,445.989,435.57,451.48z"/>
					<g>
						
							<ellipse transform="matrix(0.5236 -0.852 0.852 0.5236 -147.6674 579.199)" style="fill:#E84092;" cx="444.06" cy="421.637" rx="4.856" ry="6.879"/>
						
							<ellipse transform="matrix(0.5236 -0.852 0.852 0.5236 -145.2003 543.8231)" style="fill:#E84092;" cx="413.662" cy="401.743" rx="4.856" ry="6.879"/>
						<g>
							<path style="fill:#1B1D35;" d="M420.096,406.723c-1.721,3.121-2.335,7.671-1.142,11.13c1.314,3.811,4.964,6.109,9.023,5.808
								c0.627-0.046,1.424-0.219,2.048-0.434c2.393-0.824,4.762-2.203,6.283-3.973c1.03-1.199,0.185-3.053-1.395-3.1
								c-2.762-0.083-5.326-0.459-7.456-1.747c-3.192-1.931-4.367-4.872-5.538-7.593
								C421.588,406.039,420.504,405.983,420.096,406.723z"/>
							<path style="fill:#E84092;" d="M427.978,423.661c-0.794-1.673-1.965-3.168-3.424-4.309c-0.618-0.484-1.291-0.91-2.031-1.173
								c-1.135-0.405-2.357-0.406-3.569-0.326C420.172,421.737,424.04,424.034,427.978,423.661z"/>
						</g>
						<path style="fill:none;stroke:#1B1D35;stroke-linecap:round;stroke-linejoin:round;stroke-miterlimit:10;" d="M416.972,392.96
							c2.484-0.251,5.052,0.447,7.068,1.92c2.016,1.473,3.46,3.708,3.976,6.151"/>
						<path style="fill:none;stroke:#1B1D35;stroke-linecap:round;stroke-linejoin:round;stroke-miterlimit:10;" d="
							M438.304,407.401c2.484-0.251,5.052,0.447,7.068,1.92c2.016,1.473,3.46,3.708,3.976,6.151"/>
					</g>
					<path style="fill:none;stroke:#1B1D35;stroke-linecap:round;stroke-linejoin:round;stroke-miterlimit:10;" d="M370.473,458.968
						c-4.991-13.202-3.39-28.717,4.191-40.622"/>
				</g>
			</g>
			<g>
				<g>
					<g>
						<g>
							<g>
								<path style="fill:#205F28;" d="M665.407,151.512l-1.416-1.412c14.428-14.479,23.921-32.542,33.102-50.01l1.771,0.931
									C689.614,118.62,680.049,136.819,665.407,151.512z"/>
							</g>
							<path style="fill:#205F28;" d="M690.339,98.445c0.016,0.023,0.031,0.046,0.046,0.069c0.582,0.876,2.047,0.385,2.138-0.712
								c0.307-3.697,1.161-7.306,3.056-5.041c0.603,0.721,1.878,0.262,2.065-0.714c0.647-3.38,2.02-6.699,4.008-9.665
								c0.574-0.857,1.89-0.709,2.075,0.23c0.035,0.178,0.066,0.357,0.094,0.537c0.158,1.032,1.561,1.162,2.132,0.204
								c1.317-2.211,2.936-4.272,4.797-6.099c0.873-0.857,2.261-0.109,1.873,1.011c-0.911,2.624-2.411,5.174-3.771,7.725
								c-0.528,0.99,0.461,1.925,1.48,1.419c1.301-0.646,2.707-1.054,4.112-1.18c0.856-0.076,1.445,0.717,1.07,1.501
								c-1.148,2.395-4.342,4.456-6.889,6.465c-0.831,0.656-0.533,1.865,0.465,1.968c0.482,0.05,0.955,0.146,1.408,0.287
								c0.794,0.247,0.907,1.275,0.247,1.877c-2.143,1.953-4.466,3.713-6.924,5.247c-0.735,0.459-0.863,1.484-0.181,1.886
								c3.073,1.815-9.035,9.438-12.154,7.23c-2.412-2.191-3.016-8.631-3.3-13.381C688.117,98.15,689.711,97.509,690.339,98.445z"/>
						</g>
						<g style="opacity:0.43;">
							<defs>
								<path id="SVGID_00000062180636740124095540000001379231028784235930_" style="opacity:0.43;" d="M690.339,98.445
									c0.016,0.023,0.031,0.046,0.046,0.069c0.582,0.876,2.047,0.385,2.138-0.712c0.307-3.697,1.161-7.306,3.056-5.041
									c0.603,0.721,1.878,0.262,2.065-0.714c0.647-3.38,2.02-6.699,4.008-9.665c0.574-0.857,1.89-0.709,2.075,0.23
									c0.035,0.178,0.066,0.357,0.094,0.537c0.158,1.032,1.561,1.162,2.132,0.204c1.317-2.211,2.936-4.272,4.797-6.099
									c0.873-0.857,2.261-0.109,1.873,1.011c-0.911,2.624-2.411,5.174-3.771,7.725c-0.528,0.99,0.461,1.925,1.48,1.419
									c1.301-0.646,2.707-1.054,4.112-1.18c0.856-0.076,1.445,0.717,1.07,1.501c-1.148,2.395-4.342,4.456-6.889,6.465
									c-0.831,0.656-0.533,1.865,0.465,1.968c0.482,0.05,0.955,0.146,1.408,0.287c0.794,0.247,0.907,1.275,0.247,1.877
									c-2.143,1.953-4.466,3.713-6.924,5.247c-0.735,0.459-0.863,1.484-0.181,1.886c3.073,1.815-9.035,9.438-12.154,7.23
									c-2.412-2.191-3.016-8.631-3.3-13.381C688.117,98.15,689.711,97.509,690.339,98.445z"/>
							</defs>
							<clipPath id="SVGID_00000067204107616150817700000003427853566395141304_">
								<use xlink:href="#SVGID_00000062180636740124095540000001379231028784235930_"  style="overflow:visible;"/>
							</clipPath>
							<g style="clip-path:url(#SVGID_00000067204107616150817700000003427853566395141304_);">
								<path style="fill:none;stroke:#205F28;stroke-linecap:round;stroke-linejoin:round;stroke-miterlimit:10;" d="
									M691.429,112.103c3.157-13.26,14.498-22.85,20.774-34.949"/>
								<path style="fill:none;stroke:#205F28;stroke-linecap:round;stroke-linejoin:round;stroke-miterlimit:10;" d="
									M698.753,96.889c5.2-4.007,11.579-8.759,17.74-11.025"/>
								<path style="fill:none;stroke:#205F28;stroke-linecap:round;stroke-linejoin:round;stroke-miterlimit:10;" d="
									M694.605,103.857c0.992-1.552,2.678-2.499,4.308-3.357c5.415-2.851,10.979-5.421,16.661-7.694"/>
								<path style="fill:none;stroke:#205F28;stroke-linecap:round;stroke-linejoin:round;stroke-miterlimit:10;" d="
									M692.204,109.583c5.979-4.243,12.911-7.134,20.132-8.397"/>
								<path style="fill:none;stroke:#205F28;stroke-linecap:round;stroke-linejoin:round;stroke-miterlimit:10;" d="
									M699.023,96.322c1.953-5.862,1.898-12.305,4.309-17.994"/>
								<path style="fill:none;stroke:#205F28;stroke-linecap:round;stroke-linejoin:round;stroke-miterlimit:10;" d="
									M695.175,102.262c-0.059-3.898-0.31-7.793-0.753-11.666"/>
								<path style="fill:none;stroke:#205F28;stroke-linecap:round;stroke-linejoin:round;stroke-miterlimit:10;" d="
									M692.204,109.583c-1.965-4.782-3.396-11.187-4.276-16.281"/>
							</g>
						</g>
					</g>
					<g>
						<g>
							<g>
								<path style="fill:#205F28;" d="M656.355,126.683l-1.969-0.347c3.546-20.131,0.994-40.376-1.473-59.955l1.985-0.25
									C657.383,85.857,659.954,106.255,656.355,126.683z"/>
							</g>
							<path style="fill:#205F28;" d="M646.432,68.897c0.026,0.01,0.052,0.02,0.078,0.03c0.979,0.386,1.899-0.856,1.346-1.807
								c-1.864-3.207-3.229-6.656-0.378-5.883c0.907,0.246,1.69-0.86,1.285-1.767c-1.404-3.142-2.177-6.65-2.245-10.22
								c-0.019-1.031,1.144-1.663,1.834-0.999c0.131,0.126,0.259,0.255,0.384,0.387c0.72,0.756,1.946,0.06,1.865-1.053
								c-0.185-2.567-0.037-5.184,0.444-7.747c0.225-1.203,1.792-1.383,2.114-0.243c0.755,2.673,0.984,5.623,1.328,8.493
								c0.133,1.114,1.48,1.315,2.026,0.316c0.697-1.274,1.617-2.414,2.697-3.32c0.659-0.553,1.596-0.239,1.736,0.618
								c0.429,2.621-1.011,6.139-1.95,9.244c-0.306,1.013,0.63,1.834,1.508,1.348c0.424-0.235,0.866-0.427,1.319-0.571
								c0.792-0.252,1.474,0.527,1.277,1.398c-0.64,2.827-1.538,5.601-2.675,8.265c-0.34,0.797,0.141,1.711,0.931,1.651
								c3.559-0.27-2.008,12.91-5.83,12.885c-3.232-0.416-7.413-5.352-10.364-9.085C644.441,69.927,645.382,68.489,646.432,68.897z"
								/>
						</g>
						<g style="opacity:0.43;">
							<defs>
								<path id="SVGID_00000048464580601874400840000004904823637065044122_" style="opacity:0.43;" d="M646.432,68.897
									c0.026,0.01,0.052,0.02,0.078,0.03c0.979,0.386,1.899-0.856,1.346-1.807c-1.864-3.207-3.229-6.656-0.378-5.883
									c0.907,0.246,1.69-0.86,1.285-1.767c-1.404-3.142-2.177-6.65-2.245-10.22c-0.019-1.031,1.144-1.663,1.834-0.999
									c0.131,0.126,0.259,0.255,0.384,0.387c0.72,0.756,1.946,0.06,1.865-1.053c-0.185-2.567-0.037-5.184,0.444-7.747
									c0.225-1.203,1.792-1.383,2.114-0.243c0.755,2.673,0.984,5.623,1.328,8.493c0.133,1.114,1.48,1.315,2.026,0.316
									c0.697-1.274,1.617-2.414,2.697-3.32c0.659-0.553,1.596-0.239,1.736,0.618c0.429,2.621-1.011,6.139-1.95,9.244
									c-0.306,1.013,0.63,1.834,1.508,1.348c0.424-0.235,0.866-0.427,1.319-0.571c0.792-0.252,1.474,0.527,1.277,1.398
									c-0.64,2.827-1.538,5.601-2.675,8.265c-0.34,0.797,0.141,1.711,0.931,1.651c3.559-0.27-2.008,12.91-5.83,12.885
									c-3.232-0.416-7.413-5.352-10.364-9.085C644.441,69.927,645.382,68.489,646.432,68.897z"/>
							</defs>
							<clipPath id="SVGID_00000052824172029097152180000006494613380587553450_">
								<use xlink:href="#SVGID_00000048464580601874400840000004904823637065044122_"  style="overflow:visible;"/>
							</clipPath>
							<g style="clip-path:url(#SVGID_00000052824172029097152180000006494613380587553450_);">
								<path style="fill:none;stroke:#205F28;stroke-linecap:round;stroke-linejoin:round;stroke-miterlimit:10;" d="
									M655.142,79.474c-4.999-12.68-1.187-27.035-2.964-40.549"/>
								<path style="fill:none;stroke:#205F28;stroke-linecap:round;stroke-linejoin:round;stroke-miterlimit:10;" d="
									M652.441,62.806c1.971-6.262,4.482-13.809,8.239-19.193"/>
								<path style="fill:none;stroke:#205F28;stroke-linecap:round;stroke-linejoin:round;stroke-miterlimit:10;" d="
									M653.028,70.894c-0.075-1.841,0.766-3.582,1.611-5.218c2.809-5.437,5.901-10.728,9.26-15.844"/>
								<path style="fill:none;stroke:#205F28;stroke-linecap:round;stroke-linejoin:round;stroke-miterlimit:10;" d="
									M654.336,76.964c2.475-6.901,6.505-13.239,11.705-18.407"/>
								<path style="fill:none;stroke:#205F28;stroke-linecap:round;stroke-linejoin:round;stroke-miterlimit:10;" d="
									M652.339,62.186c-1.753-5.925-5.485-11.177-6.763-17.222"/>
								<path style="fill:none;stroke:#205F28;stroke-linecap:round;stroke-linejoin:round;stroke-miterlimit:10;" d="
									M652.583,69.26c-2.279-3.163-4.714-6.213-7.294-9.135"/>
								<path style="fill:none;stroke:#205F28;stroke-linecap:round;stroke-linejoin:round;stroke-miterlimit:10;" d="
									M654.336,76.964c-4.348-2.797-9.187-7.231-12.824-10.905"/>
							</g>
						</g>
					</g>
					<g>
						<g>
							<g>
								<path style="fill:#205F28;" d="M675.411,109.485l-1.818-0.834c8.518-18.582,11.164-38.814,13.723-58.381l1.984,0.26
									C686.721,70.243,684.055,90.629,675.411,109.485z"/>
							</g>
							<path style="fill:#205F28;" d="M680.411,51.067c0.023,0.016,0.045,0.033,0.067,0.049c0.849,0.621,2.053-0.348,1.759-1.408
								c-0.993-3.574-1.442-7.256,1.12-5.787c0.815,0.467,1.852-0.405,1.689-1.385c-0.564-3.394-0.426-6.984,0.41-10.455
								c0.242-1.002,1.527-1.32,2.027-0.503c0.095,0.155,0.186,0.312,0.274,0.471c0.505,0.913,1.867,0.549,2.071-0.548
								c0.469-2.53,1.274-5.025,2.387-7.384c0.522-1.107,2.083-0.886,2.107,0.299c0.055,2.777-0.468,5.689-0.861,8.553
								c-0.152,1.111,1.1,1.646,1.88,0.818c0.996-1.057,2.174-1.927,3.448-2.531c0.777-0.368,1.604,0.172,1.524,1.037
								c-0.247,2.644-2.529,5.684-4.222,8.451c-0.552,0.903,0.146,1.934,1.119,1.685c0.47-0.12,0.946-0.194,1.42-0.219
								c0.83-0.044,1.293,0.882,0.882,1.676c-1.333,2.574-2.903,5.031-4.677,7.321c-0.531,0.685-0.295,1.691,0.483,1.832
								c3.511,0.638-5.205,11.984-8.896,10.994c-3.022-1.219-5.82-7.051-7.732-11.409C678.224,51.56,679.498,50.407,680.411,51.067z
								"/>
						</g>
						<g style="opacity:0.43;">
							<defs>
								<path id="SVGID_00000020389043644662455280000011326523168431403419_" style="opacity:0.43;" d="M680.411,51.067
									c0.023,0.016,0.045,0.033,0.067,0.049c0.849,0.621,2.053-0.348,1.759-1.408c-0.993-3.574-1.442-7.256,1.12-5.787
									c0.815,0.467,1.852-0.405,1.689-1.385c-0.564-3.394-0.426-6.984,0.41-10.455c0.242-1.002,1.527-1.32,2.027-0.503
									c0.095,0.155,0.186,0.312,0.274,0.471c0.505,0.913,1.867,0.549,2.071-0.548c0.469-2.53,1.274-5.025,2.387-7.384
									c0.522-1.107,2.083-0.886,2.107,0.299c0.055,2.777-0.468,5.689-0.861,8.553c-0.152,1.111,1.1,1.646,1.88,0.818
									c0.996-1.057,2.174-1.927,3.448-2.531c0.777-0.368,1.604,0.172,1.524,1.037c-0.247,2.644-2.529,5.684-4.222,8.451
									c-0.552,0.903,0.146,1.934,1.119,1.685c0.47-0.12,0.946-0.194,1.42-0.219c0.83-0.044,1.293,0.882,0.882,1.676
									c-1.333,2.574-2.903,5.031-4.677,7.321c-0.531,0.685-0.295,1.691,0.483,1.832c3.511,0.638-5.205,11.984-8.896,10.994
									c-3.022-1.219-5.82-7.051-7.732-11.409C678.224,51.56,679.498,50.407,680.411,51.067z"/>
							</defs>
							<clipPath id="SVGID_00000163040000910899688390000003357232144985202581_">
								<use xlink:href="#SVGID_00000020389043644662455280000011326523168431403419_"  style="overflow:visible;"/>
							</clipPath>
							<g style="clip-path:url(#SVGID_00000163040000910899688390000003357232144985202581_);">
								<path style="fill:none;stroke:#205F28;stroke-linecap:round;stroke-linejoin:round;stroke-miterlimit:10;" d="
									M686.165,63.502c-1.633-13.532,5.682-26.458,7.378-39.982"/>
								<path style="fill:none;stroke:#205F28;stroke-linecap:round;stroke-linejoin:round;stroke-miterlimit:10;" d="
									M687.764,46.692c3.489-5.561,7.826-12.229,12.821-16.489"/>
								<path style="fill:none;stroke:#205F28;stroke-linecap:round;stroke-linejoin:round;stroke-miterlimit:10;" d="
									M686.288,54.665c0.392-1.8,1.646-3.272,2.878-4.642c4.092-4.551,8.421-8.889,12.963-12.991"/>
								<path style="fill:none;stroke:#205F28;stroke-linecap:round;stroke-linejoin:round;stroke-miterlimit:10;" d="
									M686.02,60.869c4.138-6.052,9.639-11.166,15.976-14.852"/>
								<path style="fill:none;stroke:#205F28;stroke-linecap:round;stroke-linejoin:round;stroke-miterlimit:10;" d="
									M687.822,46.067c-0.199-6.176-2.483-12.2-2.193-18.372"/>
								<path style="fill:none;stroke:#205F28;stroke-linecap:round;stroke-linejoin:round;stroke-miterlimit:10;" d="
									M686.27,52.972c-1.406-3.636-2.991-7.202-4.749-10.682"/>
								<path style="fill:none;stroke:#205F28;stroke-linecap:round;stroke-linejoin:round;stroke-miterlimit:10;" d="
									M686.02,60.869c-3.5-3.805-7.062-9.317-9.652-13.791"/>
							</g>
						</g>
					</g>
					<g>
						<g>
							<g>
								<path style="fill:#205F28;" d="M665.427,129.622l-1.916-0.574c5.865-19.581,5.687-39.986,5.515-59.719l2-0.017
									C671.201,89.194,671.38,109.752,665.427,129.622z"/>
							</g>
							<path style="fill:#205F28;" d="M662.298,71.075c0.025,0.013,0.049,0.026,0.074,0.039c0.927,0.497,1.986-0.629,1.547-1.638
								c-1.478-3.402-2.432-6.986,0.309-5.887c0.872,0.35,1.779-0.657,1.482-1.605c-1.028-3.284-1.388-6.858-1.04-10.411
								c0.101-1.026,1.33-1.519,1.938-0.779c0.115,0.14,0.227,0.283,0.337,0.429c0.627,0.835,1.925,0.286,1.975-0.829
								c0.115-2.571,0.567-5.153,1.343-7.643c0.364-1.168,1.941-1.165,2.128,0.005c0.439,2.743,0.323,5.699,0.33,8.59
								c0.003,1.122,1.317,1.478,1.975,0.55c0.84-1.184,1.887-2.209,3.065-2.984c0.718-0.472,1.613-0.052,1.652,0.816
								c0.121,2.653-1.719,5.979-3.012,8.954c-0.422,0.971,0.412,1.895,1.341,1.514c0.448-0.184,0.91-0.323,1.377-0.413
								c0.816-0.158,1.403,0.694,1.105,1.538c-0.964,2.734-2.179,5.384-3.619,7.898c-0.431,0.752-0.059,1.715,0.732,1.748
								c3.566,0.146-3.498,12.589-7.29,12.119c-3.161-0.789-6.74-6.178-9.236-10.23C660.201,71.866,661.303,70.547,662.298,71.075z"
								/>
						</g>
						<g style="opacity:0.43;">
							<defs>
								<path id="SVGID_00000005259246528882304560000018100829392311009464_" style="opacity:0.43;" d="M662.298,71.075
									c0.025,0.013,0.049,0.026,0.074,0.039c0.927,0.497,1.986-0.629,1.547-1.638c-1.478-3.402-2.432-6.986,0.309-5.887
									c0.872,0.35,1.779-0.657,1.482-1.605c-1.028-3.284-1.388-6.858-1.04-10.411c0.101-1.026,1.33-1.519,1.938-0.779
									c0.115,0.14,0.227,0.283,0.337,0.429c0.627,0.835,1.925,0.286,1.975-0.829c0.115-2.571,0.567-5.153,1.343-7.643
									c0.364-1.168,1.941-1.165,2.128,0.005c0.439,2.743,0.323,5.699,0.33,8.59c0.003,1.122,1.317,1.478,1.975,0.55
									c0.84-1.184,1.887-2.209,3.065-2.984c0.718-0.472,1.613-0.052,1.652,0.816c0.121,2.653-1.719,5.979-3.012,8.954
									c-0.422,0.971,0.412,1.895,1.341,1.514c0.448-0.184,0.91-0.323,1.377-0.413c0.816-0.158,1.403,0.694,1.105,1.538
									c-0.964,2.734-2.179,5.384-3.619,7.898c-0.431,0.752-0.059,1.715,0.732,1.748c3.566,0.146-3.498,12.589-7.29,12.119
									c-3.161-0.789-6.74-6.178-9.236-10.23C660.201,71.866,661.303,70.547,662.298,71.075z"/>
							</defs>
							<clipPath id="SVGID_00000130640093725063813370000001798199307482638245_">
								<use xlink:href="#SVGID_00000005259246528882304560000018100829392311009464_"  style="overflow:visible;"/>
							</clipPath>
							<g style="clip-path:url(#SVGID_00000130640093725063813370000001798199307482638245_);">
								<path style="fill:none;stroke:#205F28;stroke-linecap:round;stroke-linejoin:round;stroke-miterlimit:10;" d="
									M669.718,82.594c-3.489-13.176,1.968-26.989,1.776-40.618"/>
								<path style="fill:none;stroke:#205F28;stroke-linecap:round;stroke-linejoin:round;stroke-miterlimit:10;" d="
									M668.976,65.724c2.686-5.99,6.059-13.194,10.417-18.104"/>
								<path style="fill:none;stroke:#205F28;stroke-linecap:round;stroke-linejoin:round;stroke-miterlimit:10;" d="
									M668.617,73.825c0.14-1.837,1.177-3.468,2.208-4.995c3.423-5.073,7.11-9.968,11.041-14.659"/>
								<path style="fill:none;stroke:#205F28;stroke-linecap:round;stroke-linejoin:round;stroke-miterlimit:10;" d="
									M669.209,80.006c3.261-6.566,8.002-12.392,13.768-16.92"/>
								<path style="fill:none;stroke:#205F28;stroke-linecap:round;stroke-linejoin:round;stroke-miterlimit:10;" d="
									M668.946,65.097c-1.051-6.089-4.147-11.739-4.713-17.892"/>
								<path style="fill:none;stroke:#205F28;stroke-linecap:round;stroke-linejoin:round;stroke-miterlimit:10;" d="
									M668.365,72.151c-1.895-3.406-3.959-6.719-6.181-9.922"/>
								<path style="fill:none;stroke:#205F28;stroke-linecap:round;stroke-linejoin:round;stroke-miterlimit:10;" d="
									M669.209,80.006c-3.992-3.284-8.283-8.251-11.467-12.324"/>
							</g>
						</g>
					</g>
					<g>
						<path style="fill:none;stroke:#95B700;stroke-width:2;stroke-miterlimit:10;" d="M677.894,136.188
							c-2.285-20.295,2.092-40.683,6.443-60.638"/>
						<path style="fill:#95B700;" d="M692.353,78.377c-0.029,0.01-0.059,0.019-0.088,0.029c-1.109,0.367-2.022-0.904-1.337-1.85
							c2.309-3.188,4.089-6.63,0.888-5.915c-1.018,0.227-1.792-0.903-1.273-1.808c1.797-3.132,2.93-6.647,3.291-10.24
							c0.104-1.038-1.127-1.7-1.939-1.047c-0.154,0.124-0.305,0.251-0.454,0.381c-0.853,0.745-2.147,0.017-1.969-1.102
							c0.41-2.58,0.456-5.219,0.132-7.811c-0.152-1.216-1.862-1.433-2.308-0.291c-1.045,2.675-1.534,5.64-2.143,8.522
							c-0.236,1.119-1.735,1.291-2.256,0.273c-0.665-1.298-1.587-2.467-2.703-3.403c-0.681-0.571-1.738-0.276-1.961,0.584
							c-0.683,2.629,0.621,6.204,1.406,9.351c0.256,1.027-0.841,1.833-1.769,1.323c-0.448-0.246-0.92-0.449-1.407-0.604
							c-0.852-0.271-1.665,0.497-1.518,1.38c0.478,2.861,1.244,5.674,2.283,8.382c0.311,0.81-0.293,1.719-1.157,1.641
							c-3.897-0.351,1.177,13.045,5.386,13.104c3.592-0.347,8.592-5.223,12.14-8.917C694.463,79.458,693.542,77.989,692.353,78.377z
							"/>
					</g>
					<g>
						<path style="fill:none;stroke:#95B700;stroke-width:2;stroke-miterlimit:10;" d="M660.831,144.17
							c4.837-19.842,15.961-37.48,26.912-54.719"/>
						<path style="fill:#95B700;" d="M694.297,94.862c-0.031-0.001-0.062-0.002-0.093-0.003c-1.167-0.037-1.588-1.545-0.619-2.197
							c3.265-2.199,6.12-4.818,2.869-5.248c-1.034-0.137-1.372-1.465-0.573-2.136c2.765-2.323,5.038-5.233,6.613-8.483
							c0.455-0.939-0.473-1.984-1.461-1.65c-0.187,0.063-0.373,0.131-0.558,0.201c-1.057,0.406-2.022-0.723-1.47-1.712
							c1.273-2.282,2.224-4.743,2.812-7.289c0.276-1.194-1.256-1.986-2.067-1.068c-1.902,2.152-3.381,4.768-4.944,7.265
							c-0.607,0.969-2.073,0.615-2.212-0.52c-0.178-1.448-0.642-2.862-1.367-4.126c-0.443-0.771-1.537-0.857-2.043-0.126
							c-1.546,2.234-1.551,6.039-1.897,9.264c-0.113,1.053-1.42,1.432-2.116,0.634c-0.336-0.385-0.709-0.738-1.113-1.051
							c-0.707-0.548-1.734-0.106-1.9,0.773c-0.536,2.851-0.784,5.756-0.74,8.656c0.013,0.868-0.867,1.513-1.651,1.143
							c-3.538-1.67-3.383,12.653,0.549,14.157c3.492,0.91,9.864-1.949,14.467-4.196C695.906,96.603,695.547,94.907,694.297,94.862z"
							/>
					</g>
					<g>
						<g>
							<g>
								<path style="fill:#95B700;" d="M674.459,140.538l-1.927,0.533c-5.452-19.703-16.458-36.885-27.101-53.5l1.683-1.078
									C657.839,103.232,668.927,120.543,674.459,140.538z"/>
							</g>
							<path style="fill:#95B700;" d="M640.661,92.628c0.028-0.002,0.055-0.004,0.083-0.006c1.049-0.072,1.347-1.589,0.439-2.21
								c-3.061-2.095-5.776-4.622-2.87-5.149c0.924-0.168,1.157-1.503,0.4-2.148c-2.618-2.233-4.824-5.068-6.419-8.263
								c-0.461-0.923,0.318-1.994,1.226-1.69c0.172,0.058,0.343,0.119,0.513,0.184c0.975,0.373,1.782-0.783,1.231-1.753
								c-1.271-2.238-2.261-4.665-2.93-7.186c-0.313-1.183,1.023-2.019,1.805-1.128c1.831,2.089,3.306,4.654,4.85,7.097
								c0.599,0.948,1.901,0.551,1.965-0.585c0.081-1.45,0.422-2.875,1.008-4.157c0.357-0.782,1.338-0.902,1.833-0.188
								c1.514,2.182,1.726,5.977,2.213,9.184c0.159,1.047,1.357,1.386,1.941,0.569c0.282-0.395,0.599-0.758,0.946-1.082
								c0.607-0.568,1.557-0.158,1.754,0.714c0.638,2.828,1.019,5.718,1.138,8.613c0.035,0.866,0.863,1.484,1.55,1.09
								c3.097-1.773,3.736,12.52,0.275,14.139c-3.097,1.013-8.994-1.646-13.263-3.748C639.306,94.413,639.538,92.71,640.661,92.628z
								"/>
						</g>
						<g style="opacity:0.43;">
							<defs>
								<path id="SVGID_00000022542782485800490870000010148693408499906190_" style="opacity:0.43;" d="M640.661,92.628
									c0.028-0.002,0.055-0.004,0.083-0.006c1.049-0.072,1.347-1.589,0.439-2.21c-3.061-2.095-5.776-4.622-2.87-5.149
									c0.924-0.168,1.157-1.503,0.4-2.148c-2.618-2.233-4.824-5.068-6.419-8.263c-0.461-0.923,0.318-1.994,1.226-1.69
									c0.172,0.058,0.343,0.119,0.513,0.184c0.975,0.373,1.782-0.783,1.231-1.753c-1.271-2.238-2.261-4.665-2.93-7.186
									c-0.313-1.183,1.023-2.019,1.805-1.128c1.831,2.089,3.306,4.654,4.85,7.097c0.599,0.948,1.901,0.551,1.965-0.585
									c0.081-1.45,0.422-2.875,1.008-4.157c0.357-0.782,1.338-0.902,1.833-0.188c1.514,2.182,1.726,5.977,2.213,9.184
									c0.159,1.047,1.357,1.386,1.941,0.569c0.282-0.395,0.599-0.758,0.946-1.082c0.607-0.568,1.557-0.158,1.754,0.714
									c0.638,2.828,1.019,5.718,1.138,8.613c0.035,0.866,0.863,1.484,1.55,1.09c3.097-1.773,3.736,12.52,0.275,14.139
									c-3.097,1.013-8.994-1.646-13.263-3.748C639.306,94.413,639.538,92.71,640.661,92.628z"/>
							</defs>
							<clipPath id="SVGID_00000094589159969565597120000005471266164247130767_">
								<use xlink:href="#SVGID_00000022542782485800490870000010148693408499906190_"  style="overflow:visible;"/>
							</clipPath>
							<g style="clip-path:url(#SVGID_00000094589159969565597120000005471266164247130767_);">
								<path style="fill:none;stroke:#205F28;stroke-linecap:round;stroke-linejoin:round;stroke-miterlimit:10;" d="
									M653.072,98.434c-9.964-9.3-12.693-23.9-20.106-35.337"/>
								<path style="fill:none;stroke:#205F28;stroke-linecap:round;stroke-linejoin:round;stroke-miterlimit:10;" d="
									M643.469,84.545c-0.912-6.501-1.889-14.395-0.811-20.871"/>
								<path style="fill:none;stroke:#205F28;stroke-linecap:round;stroke-linejoin:round;stroke-miterlimit:10;" d="
									M647.475,91.595c-0.859-1.63-0.848-3.563-0.788-5.404c0.199-6.117,0.717-12.223,1.55-18.286"/>
								<path style="fill:none;stroke:#205F28;stroke-linecap:round;stroke-linejoin:round;stroke-miterlimit:10;" d="
									M651.265,96.513c-0.732-7.295,0.183-14.75,2.656-21.651"/>
								<path style="fill:none;stroke:#205F28;stroke-linecap:round;stroke-linejoin:round;stroke-miterlimit:10;" d="
									M643.11,84.029c-4.13-4.596-9.757-7.734-13.51-12.643"/>
								<path style="fill:none;stroke:#205F28;stroke-linecap:round;stroke-linejoin:round;stroke-miterlimit:10;" d="
									M646.371,90.311c-3.417-1.876-6.927-3.583-10.512-5.113"/>
								<path style="fill:none;stroke:#205F28;stroke-linecap:round;stroke-linejoin:round;stroke-miterlimit:10;" d="
									M651.265,96.513c-5.128-0.656-11.403-2.58-16.266-4.334"/>
							</g>
						</g>
					</g>
					<g>
						<g>
							<path style="fill:#205F28;" d="M661.267,147.193l-1.424-0.595c6.568-19.185,7.262-39.984,7.933-60.098l1.522,0.055
								C668.622,106.806,667.923,127.747,661.267,147.193z"/>
						</g>
					</g>
					<g>
						<g>
							<g>
								<path style="fill:#95B700;" d="M655.019,157.32l-1.022-1.718c17.569-10.453,31.242-25.598,44.465-40.245l1.484,1.34
									C686.625,131.454,672.849,146.713,655.019,157.32z"/>
							</g>
							<path style="fill:#95B700;" d="M692.326,112.089c0.009,0.026,0.018,0.052,0.028,0.079c0.346,0.993,1.888,0.88,2.248-0.159
								c1.214-3.505,2.936-6.79,4.21-4.126c0.405,0.847,1.754,0.72,2.177-0.18c1.464-3.114,3.617-5.989,6.278-8.37
								c0.768-0.688,2.007-0.219,1.953,0.738c-0.01,0.181-0.024,0.363-0.042,0.544c-0.103,1.039,1.225,1.513,2.015,0.726
								c1.824-1.816,3.904-3.411,6.16-4.72c1.058-0.614,2.218,0.455,1.564,1.443c-1.533,2.317-3.618,4.415-5.568,6.549
								c-0.757,0.828-0.03,1.979,1.083,1.741c1.42-0.304,2.884-0.35,4.276-0.124c0.849,0.138,1.222,1.053,0.664,1.719
								c-1.705,2.036-5.311,3.24-8.276,4.556c-0.968,0.429-0.979,1.675-0.037,2.022c0.455,0.168,0.889,0.378,1.293,0.627
								c0.708,0.436,0.563,1.46-0.226,1.88c-2.56,1.361-5.247,2.49-8.008,3.368c-0.826,0.262-1.204,1.224-0.643,1.782
								c2.527,2.52-11.093,6.904-13.567,3.992c-1.794-2.72-0.783-9.109,0.12-13.782C690.247,111.253,691.95,111.027,692.326,112.089
								z"/>
						</g>
						<g style="opacity:0.43;">
							<defs>
								<path id="SVGID_00000113331334628275784540000015653880796809662894_" style="opacity:0.43;" d="M692.326,112.089
									c0.009,0.026,0.018,0.052,0.028,0.079c0.346,0.993,1.888,0.88,2.248-0.159c1.214-3.505,2.936-6.79,4.21-4.126
									c0.405,0.847,1.754,0.72,2.177-0.18c1.464-3.114,3.617-5.989,6.278-8.37c0.768-0.688,2.007-0.219,1.953,0.738
									c-0.01,0.181-0.024,0.363-0.042,0.544c-0.103,1.039,1.225,1.513,2.015,0.726c1.824-1.816,3.904-3.411,6.16-4.72
									c1.058-0.614,2.218,0.455,1.564,1.443c-1.533,2.317-3.618,4.415-5.568,6.549c-0.757,0.828-0.03,1.979,1.083,1.741
									c1.42-0.304,2.884-0.35,4.276-0.124c0.849,0.138,1.222,1.053,0.664,1.719c-1.705,2.036-5.311,3.24-8.276,4.556
									c-0.968,0.429-0.979,1.675-0.037,2.022c0.455,0.168,0.889,0.378,1.293,0.627c0.708,0.436,0.563,1.46-0.226,1.88
									c-2.56,1.361-5.247,2.49-8.008,3.368c-0.826,0.262-1.204,1.224-0.643,1.782c2.527,2.52-11.093,6.904-13.567,3.992
									c-1.794-2.72-0.783-9.109,0.12-13.782C690.247,111.253,691.95,111.027,692.326,112.089z"/>
							</defs>
							<clipPath id="SVGID_00000084494339471336570910000010428567835521908108_">
								<use xlink:href="#SVGID_00000113331334628275784540000015653880796809662894_"  style="overflow:visible;"/>
							</clipPath>
							<g style="clip-path:url(#SVGID_00000084494339471336570910000010428567835521908108_);">
								<path style="fill:none;stroke:#205F28;stroke-linecap:round;stroke-linejoin:round;stroke-miterlimit:10;" d="
									M689.997,125.591c6.345-12.063,19.709-18.543,28.788-28.709"/>
								<path style="fill:none;stroke:#205F28;stroke-linecap:round;stroke-linejoin:round;stroke-miterlimit:10;" d="
									M700.863,112.667c6.031-2.593,13.388-5.616,19.919-6.284"/>
								<path style="fill:none;stroke:#205F28;stroke-linecap:round;stroke-linejoin:round;stroke-miterlimit:10;" d="
									M695.119,118.39c1.346-1.258,3.214-1.757,5.005-2.185c5.953-1.42,11.98-2.53,18.048-3.325"/>
								<path style="fill:none;stroke:#205F28;stroke-linecap:round;stroke-linejoin:round;stroke-miterlimit:10;" d="
									M691.373,123.342c6.844-2.629,14.276-3.711,21.585-3.145"/>
								<path style="fill:none;stroke:#205F28;stroke-linecap:round;stroke-linejoin:round;stroke-miterlimit:10;" d="
									M701.266,112.185c3.345-5.195,4.889-11.45,8.635-16.364"/>
								<path style="fill:none;stroke:#205F28;stroke-linecap:round;stroke-linejoin:round;stroke-miterlimit:10;" d="
									M696.066,116.986c0.909-3.791,1.631-7.626,2.162-11.488"/>
								<path style="fill:none;stroke:#205F28;stroke-linecap:round;stroke-linejoin:round;stroke-miterlimit:10;" d="
									M691.373,123.342c-0.718-5.119-0.518-11.68-0.107-16.833"/>
							</g>
						</g>
					</g>
					<g>
						<g>
							<g>
								<path style="fill:#205F28;" d="M666.676,140.803l-1.752-0.964c9.853-17.909,13.972-37.894,17.955-57.222l1.959,0.404
									C680.825,102.494,676.675,122.63,666.676,140.803z"/>
							</g>
							<path style="fill:#205F28;" d="M675.934,82.908c0.021,0.018,0.043,0.036,0.064,0.054c0.802,0.681,2.073-0.197,1.857-1.276
								c-0.729-3.637-0.908-7.342,1.54-5.69c0.779,0.525,1.877-0.268,1.786-1.258c-0.315-3.427,0.086-6.997,1.174-10.397
								c0.314-0.982,1.62-1.205,2.058-0.353c0.083,0.161,0.163,0.325,0.239,0.49c0.437,0.948,1.822,0.684,2.105-0.395
								c0.653-2.489,1.638-4.918,2.92-7.19c0.602-1.065,2.143-0.731,2.079,0.453c-0.148,2.774-0.883,5.64-1.484,8.467
								c-0.233,1.097,0.976,1.722,1.815,0.953c1.071-0.981,2.31-1.763,3.624-2.272c0.802-0.311,1.587,0.289,1.444,1.146
								c-0.439,2.619-2.938,5.484-4.829,8.12c-0.617,0.86,0.004,1.94,0.992,1.762c0.477-0.086,0.958-0.124,1.433-0.114
								c0.831,0.017,1.225,0.974,0.757,1.736c-1.518,2.47-3.263,4.805-5.2,6.96c-0.579,0.645-0.418,1.665,0.348,1.863
								c3.455,0.893-6.068,11.571-9.676,10.314c-2.924-1.437-5.289-7.458-6.877-11.944C673.717,83.24,675.072,82.182,675.934,82.908
								z"/>
						</g>
						<g style="opacity:0.43;">
							<defs>
								<path id="SVGID_00000031194952098638094700000015986698530867687303_" style="opacity:0.43;" d="M675.934,82.908
									c0.021,0.018,0.043,0.036,0.064,0.054c0.802,0.681,2.073-0.197,1.857-1.276c-0.729-3.637-0.908-7.342,1.54-5.69
									c0.779,0.525,1.877-0.268,1.786-1.258c-0.315-3.427,0.086-6.997,1.174-10.397c0.314-0.982,1.62-1.205,2.058-0.353
									c0.083,0.161,0.163,0.325,0.239,0.49c0.437,0.948,1.822,0.684,2.105-0.395c0.653-2.489,1.638-4.918,2.92-7.19
									c0.602-1.065,2.143-0.731,2.079,0.453c-0.148,2.774-0.883,5.64-1.484,8.467c-0.233,1.097,0.976,1.722,1.815,0.953
									c1.071-0.981,2.31-1.763,3.624-2.272c0.802-0.311,1.587,0.289,1.444,1.146c-0.439,2.619-2.938,5.484-4.829,8.12
									c-0.617,0.86,0.004,1.94,0.992,1.762c0.477-0.086,0.958-0.124,1.433-0.114c0.831,0.017,1.225,0.974,0.757,1.736
									c-1.518,2.47-3.263,4.805-5.2,6.96c-0.579,0.645-0.418,1.665,0.348,1.863c3.455,0.893-6.068,11.571-9.676,10.314
									c-2.924-1.437-5.289-7.458-6.877-11.944C673.717,83.24,675.072,82.182,675.934,82.908z"/>
							</defs>
							<clipPath id="SVGID_00000050627034140788044290000011261283122809749396_">
								<use xlink:href="#SVGID_00000031194952098638094700000015986698530867687303_"  style="overflow:visible;"/>
							</clipPath>
							<g style="clip-path:url(#SVGID_00000050627034140788044290000011261283122809749396_);">
								<path style="fill:none;stroke:#205F28;stroke-linecap:round;stroke-linejoin:round;stroke-miterlimit:10;" d="
									M680.764,95.73c-0.639-13.615,7.602-25.971,10.281-39.335"/>
								<path style="fill:none;stroke:#205F28;stroke-linecap:round;stroke-linejoin:round;stroke-miterlimit:10;" d="
									M683.588,79.082c3.886-5.291,8.699-11.624,13.992-15.507"/>
								<path style="fill:none;stroke:#205F28;stroke-linecap:round;stroke-linejoin:round;stroke-miterlimit:10;" d="
									M681.533,86.926c0.523-1.766,1.881-3.143,3.209-4.419c4.414-4.24,9.048-8.249,13.878-12.008"/>
								<path style="fill:none;stroke:#205F28;stroke-linecap:round;stroke-linejoin:round;stroke-miterlimit:10;" d="
									M680.812,93.093c4.57-5.733,10.43-10.431,17.019-13.645"/>
								<path style="fill:none;stroke:#205F28;stroke-linecap:round;stroke-linejoin:round;stroke-miterlimit:10;" d="
									M683.691,78.462c0.253-6.174-1.584-12.349-0.843-18.483"/>
								<path style="fill:none;stroke:#205F28;stroke-linecap:round;stroke-linejoin:round;stroke-miterlimit:10;" d="
									M681.638,85.236c-1.136-3.729-2.457-7.402-3.955-11.001"/>
								<path style="fill:none;stroke:#205F28;stroke-linecap:round;stroke-linejoin:round;stroke-miterlimit:10;" d="
									M680.812,93.093c-3.212-4.05-6.362-9.809-8.618-14.46"/>
							</g>
						</g>
					</g>
					<g>
						<g>
							<g>
								<path style="fill:#ACD96A;" d="M673.24,179.629l-1.989,0.207c-2.117-20.334-10.128-39.099-17.877-57.246l1.839-0.785
									C663.02,140.088,671.092,158.995,673.24,179.629z"/>
							</g>
							<path style="fill:#ACD96A;" d="M647.833,126.788c0.028,0.003,0.055,0.005,0.083,0.008c1.047,0.102,1.591-1.344,0.798-2.107
								c-2.673-2.572-4.932-5.514-1.979-5.553c0.939-0.012,1.389-1.291,0.75-2.052c-2.212-2.636-3.919-5.796-4.964-9.211
								c-0.302-0.986,0.644-1.914,1.489-1.464c0.16,0.085,0.319,0.174,0.476,0.266c0.9,0.529,1.887-0.477,1.504-1.525
								c-0.883-2.417-1.459-4.975-1.7-7.572c-0.113-1.218,1.343-1.822,1.966-0.814c1.46,2.363,2.49,5.137,3.609,7.802
								c0.434,1.034,1.784,0.858,2.035-0.252c0.32-1.416,0.892-2.765,1.682-3.933c0.481-0.712,1.469-0.668,1.839,0.118
								c1.132,2.402,0.713,6.18,0.663,9.424c-0.016,1.058,1.109,1.591,1.82,0.882c0.343-0.342,0.716-0.648,1.112-0.911
								c0.693-0.46,1.562,0.102,1.611,0.994c0.161,2.894,0.059,5.808-0.303,8.682c-0.108,0.86,0.606,1.606,1.348,1.332
								c3.348-1.237,1.613,12.966-2.068,13.99c-3.222,0.487-8.597-3.111-12.46-5.89
								C646.202,128.325,646.712,126.684,647.833,126.788z"/>
						</g>
						<g style="opacity:0.43;">
							<defs>
								<path id="SVGID_00000076569192599426865470000009149928979592333495_" style="opacity:0.43;" d="M647.833,126.788
									c0.028,0.003,0.055,0.005,0.083,0.008c1.047,0.102,1.591-1.344,0.798-2.107c-2.673-2.572-4.932-5.514-1.979-5.553
									c0.939-0.012,1.389-1.291,0.75-2.052c-2.212-2.636-3.919-5.796-4.964-9.211c-0.302-0.986,0.644-1.914,1.489-1.464
									c0.16,0.085,0.319,0.174,0.476,0.266c0.9,0.529,1.887-0.477,1.504-1.525c-0.883-2.417-1.459-4.975-1.7-7.572
									c-0.113-1.218,1.343-1.822,1.966-0.814c1.46,2.363,2.49,5.137,3.609,7.802c0.434,1.034,1.784,0.858,2.035-0.252
									c0.32-1.416,0.892-2.765,1.682-3.933c0.481-0.712,1.469-0.668,1.839,0.118c1.132,2.402,0.713,6.18,0.663,9.424
									c-0.016,1.058,1.109,1.591,1.82,0.882c0.343-0.342,0.716-0.648,1.112-0.911c0.693-0.46,1.562,0.102,1.611,0.994
									c0.161,2.894,0.059,5.808-0.303,8.682c-0.108,0.86,0.606,1.606,1.348,1.332c3.348-1.237,1.613,12.966-2.068,13.99
									c-3.222,0.487-8.597-3.111-12.46-5.89C646.202,128.325,646.712,126.684,647.833,126.788z"/>
							</defs>
							<clipPath id="SVGID_00000078002657003616135940000018387395972124960684_">
								<use xlink:href="#SVGID_00000076569192599426865470000009149928979592333495_"  style="overflow:visible;"/>
							</clipPath>
							<g style="clip-path:url(#SVGID_00000078002657003616135940000018387395972124960684_);">
								<path style="fill:none;stroke:#205F28;stroke-linecap:round;stroke-linejoin:round;stroke-miterlimit:10;" d="
									M659.113,134.567c-8.289-10.82-8.564-25.67-13.983-38.177"/>
								<path style="fill:none;stroke:#205F28;stroke-linecap:round;stroke-linejoin:round;stroke-miterlimit:10;" d="
									M651.94,119.281c0.176-6.562,0.519-14.509,2.652-20.717"/>
								<path style="fill:none;stroke:#205F28;stroke-linecap:round;stroke-linejoin:round;stroke-miterlimit:10;" d="
									M654.724,126.897c-0.578-1.749-0.247-3.654,0.117-5.46c1.208-6,2.729-11.936,4.554-17.778"/>
								<path style="fill:none;stroke:#205F28;stroke-linecap:round;stroke-linejoin:round;stroke-miterlimit:10;" d="
									M657.648,132.374c0.485-7.315,2.62-14.516,6.201-20.913"/>
								<path style="fill:none;stroke:#205F28;stroke-linecap:round;stroke-linejoin:round;stroke-miterlimit:10;" d="
									M651.671,118.713c-3.312-5.216-8.343-9.241-11.232-14.703"/>
								<path style="fill:none;stroke:#205F28;stroke-linecap:round;stroke-linejoin:round;stroke-miterlimit:10;" d="
									M653.847,125.448c-3.06-2.415-6.239-4.68-9.521-6.782"/>
								<path style="fill:none;stroke:#205F28;stroke-linecap:round;stroke-linejoin:round;stroke-miterlimit:10;" d="
									M657.648,132.374c-4.948-1.496-10.819-4.43-15.325-6.965"/>
							</g>
						</g>
					</g>
					<g>
						<g>
							<g>
								<path style="fill:#ACD96A;" d="M660.41,158.438l-1.597-1.203c12.296-16.332,19.209-35.53,25.894-54.095l1.881,0.677
									C679.854,122.522,672.889,141.864,660.41,158.438z"/>
							</g>
							<path style="fill:#ACD96A;" d="M677.79,102.441c0.018,0.021,0.037,0.042,0.055,0.062c0.697,0.788,2.08,0.099,2.019-0.999
								c-0.205-3.704,0.143-7.396,2.332-5.414c0.696,0.631,1.896,0.001,1.947-0.992c0.175-3.437,1.077-6.914,2.637-10.125
								c0.451-0.928,1.774-0.963,2.087-0.058c0.059,0.172,0.115,0.345,0.167,0.519c0.298,1,1.707,0.936,2.14-0.092
								c0.999-2.371,2.32-4.636,3.911-6.702c0.747-0.969,2.225-0.419,1.994,0.743c-0.54,2.725-1.674,5.457-2.671,8.171
								c-0.387,1.053,0.722,1.843,1.662,1.201c1.199-0.819,2.536-1.417,3.91-1.735c0.838-0.194,1.53,0.511,1.266,1.339
								c-0.807,2.53-3.687,5.012-5.932,7.353c-0.733,0.764-0.271,1.921,0.732,1.885c0.484-0.017,0.966,0.013,1.434,0.09
								c0.82,0.135,1.074,1.138,0.503,1.825c-1.853,2.229-3.912,4.293-6.135,6.152c-0.665,0.556-0.65,1.588,0.08,1.893
								c3.294,1.374-7.648,10.593-11.042,8.836c-2.691-1.837-4.177-8.133-5.113-12.799
								C675.549,102.455,677.04,101.601,677.79,102.441z"/>
						</g>
						<g style="opacity:0.43;">
							<defs>
								<path id="SVGID_00000031916420576787411570000013333469416588513727_" style="opacity:0.43;" d="M677.79,102.441
									c0.018,0.021,0.037,0.042,0.055,0.062c0.697,0.788,2.08,0.099,2.019-0.999c-0.205-3.704,0.143-7.396,2.332-5.414
									c0.696,0.631,1.896,0.001,1.947-0.992c0.175-3.437,1.077-6.914,2.637-10.125c0.451-0.928,1.774-0.963,2.087-0.058
									c0.059,0.172,0.115,0.345,0.167,0.519c0.298,1,1.707,0.936,2.14-0.092c0.999-2.371,2.32-4.636,3.911-6.702
									c0.747-0.969,2.225-0.419,1.994,0.743c-0.54,2.725-1.674,5.457-2.671,8.171c-0.387,1.053,0.722,1.843,1.662,1.201
									c1.199-0.819,2.536-1.417,3.91-1.735c0.838-0.194,1.53,0.511,1.266,1.339c-0.807,2.53-3.687,5.012-5.932,7.353
									c-0.733,0.764-0.271,1.921,0.732,1.885c0.484-0.017,0.966,0.013,1.434,0.09c0.82,0.135,1.074,1.138,0.503,1.825
									c-1.853,2.229-3.912,4.293-6.135,6.152c-0.665,0.556-0.65,1.588,0.08,1.893c3.294,1.374-7.648,10.593-11.042,8.836
									c-2.691-1.837-4.177-8.133-5.113-12.799C675.549,102.455,677.04,101.601,677.79,102.441z"/>
							</defs>
							<clipPath id="SVGID_00000160174118401538902220000004796047302993343143_">
								<use xlink:href="#SVGID_00000031916420576787411570000013333469416588513727_"  style="overflow:visible;"/>
							</clipPath>
							<g style="clip-path:url(#SVGID_00000160174118401538902220000004796047302993343143_);">
								<path style="fill:none;stroke:#205F28;stroke-linecap:round;stroke-linejoin:round;stroke-miterlimit:10;" d="
									M680.752,115.819c1.299-13.568,11.21-24.63,15.759-37.479"/>
								<path style="fill:none;stroke:#205F28;stroke-linecap:round;stroke-linejoin:round;stroke-miterlimit:10;" d="
									M685.909,99.74c4.598-4.686,10.261-10.272,16.051-13.365"/>
								<path style="fill:none;stroke:#205F28;stroke-linecap:round;stroke-linejoin:round;stroke-miterlimit:10;" d="
									M682.762,107.213c0.768-1.674,2.308-2.844,3.804-3.919c4.971-3.57,10.127-6.882,15.441-9.917"/>
								<path style="fill:none;stroke:#205F28;stroke-linecap:round;stroke-linejoin:round;stroke-miterlimit:10;" d="
									M681.173,113.216c5.337-5.026,11.804-8.845,18.783-11.091"/>
								<path style="fill:none;stroke:#205F28;stroke-linecap:round;stroke-linejoin:round;stroke-miterlimit:10;" d="
									M686.099,99.142c1.127-6.075,0.184-12.449,1.788-18.416"/>
								<path style="fill:none;stroke:#205F28;stroke-linecap:round;stroke-linejoin:round;stroke-miterlimit:10;" d="
									M683.107,105.556c-0.596-3.852-1.382-7.675-2.354-11.45"/>
								<path style="fill:none;stroke:#205F28;stroke-linecap:round;stroke-linejoin:round;stroke-miterlimit:10;" d="
									M681.173,113.216c-2.605-4.465-4.906-10.612-6.479-15.537"/>
							</g>
						</g>
					</g>
					<g>
						<g>
							<g>
								<path style="fill:#ACD96A;" d="M665.492,156.57l-1.935-0.506c5.173-19.776,4.277-40.161,3.411-59.876l1.999-0.087
									C669.84,115.963,670.742,136.502,665.492,156.57z"/>
							</g>
							<path style="fill:#ACD96A;" d="M660.305,98.169c0.025,0.012,0.05,0.024,0.075,0.037c0.944,0.464,1.962-0.698,1.489-1.692
								c-1.597-3.348-2.677-6.897,0.102-5.894c0.884,0.319,1.755-0.719,1.424-1.657c-1.143-3.245-1.629-6.805-1.406-10.368
								c0.065-1.029,1.276-1.565,1.909-0.846c0.12,0.136,0.237,0.275,0.352,0.417c0.656,0.812,1.934,0.218,1.945-0.898
								c0.024-2.573,0.385-5.17,1.073-7.686c0.323-1.18,1.899-1.233,2.127-0.07c0.535,2.726,0.523,5.684,0.632,8.573
								c0.042,1.121,1.368,1.431,1.993,0.48c0.798-1.213,1.808-2.274,2.958-3.09c0.701-0.497,1.61-0.108,1.68,0.758
								c0.215,2.647-1.507,6.036-2.695,9.055c-0.388,0.985,0.479,1.88,1.393,1.466c0.442-0.2,0.898-0.355,1.361-0.461
								c0.81-0.187,1.426,0.645,1.159,1.498c-0.868,2.766-1.988,5.457-3.339,8.02c-0.404,0.767,0.002,1.716,0.793,1.721
								c3.569,0.021-3.052,12.704-6.859,12.368c-3.187-0.678-6.953-5.937-9.59-9.898C658.237,99.033,659.292,97.676,660.305,98.169z
								"/>
						</g>
						<g style="opacity:0.43;">
							<defs>
								<path id="SVGID_00000159464903534123644640000000954306110542470787_" style="opacity:0.43;" d="M660.305,98.169
									c0.025,0.012,0.05,0.024,0.075,0.037c0.944,0.464,1.962-0.698,1.489-1.692c-1.597-3.348-2.677-6.897,0.102-5.894
									c0.884,0.319,1.755-0.719,1.424-1.657c-1.143-3.245-1.629-6.805-1.406-10.368c0.065-1.029,1.276-1.565,1.909-0.846
									c0.12,0.136,0.237,0.275,0.352,0.417c0.656,0.812,1.934,0.218,1.945-0.898c0.024-2.573,0.385-5.17,1.073-7.686
									c0.323-1.18,1.899-1.233,2.127-0.07c0.535,2.726,0.523,5.684,0.632,8.573c0.042,1.121,1.368,1.431,1.993,0.48
									c0.798-1.213,1.808-2.274,2.958-3.09c0.701-0.497,1.61-0.108,1.68,0.758c0.215,2.647-1.507,6.036-2.695,9.055
									c-0.388,0.985,0.479,1.88,1.393,1.466c0.442-0.2,0.898-0.355,1.361-0.461c0.81-0.187,1.426,0.645,1.159,1.498
									c-0.868,2.766-1.988,5.457-3.339,8.02c-0.404,0.767,0.002,1.716,0.793,1.721c3.569,0.021-3.052,12.704-6.859,12.368
									c-3.187-0.678-6.953-5.937-9.59-9.898C658.237,99.033,659.292,97.676,660.305,98.169z"/>
							</defs>
							<clipPath id="SVGID_00000062890531925566133500000015219990152697314991_">
								<use xlink:href="#SVGID_00000159464903534123644640000000954306110542470787_"  style="overflow:visible;"/>
							</clipPath>
							<g style="clip-path:url(#SVGID_00000062890531925566133500000015219990152697314991_);">
								<path style="fill:none;stroke:#205F28;stroke-linecap:round;stroke-linejoin:round;stroke-miterlimit:10;" d="
									M668.125,109.419c-3.951-13.045,1.017-27.042,0.346-40.655"/>
								<path style="fill:none;stroke:#205F28;stroke-linecap:round;stroke-linejoin:round;stroke-miterlimit:10;" d="
									M666.79,92.587c2.474-6.081,5.591-13.399,9.773-18.459"/>
								<path style="fill:none;stroke:#205F28;stroke-linecap:round;stroke-linejoin:round;stroke-miterlimit:10;" d="
									M666.717,100.695c0.075-1.841,1.055-3.507,2.031-5.07c3.242-5.191,6.755-10.212,10.518-15.038"/>
								<path style="fill:none;stroke:#205F28;stroke-linecap:round;stroke-linejoin:round;stroke-miterlimit:10;" d="
									M667.526,106.851c3.028-6.677,7.561-12.666,13.164-17.394"/>
								<path style="fill:none;stroke:#205F28;stroke-linecap:round;stroke-linejoin:round;stroke-miterlimit:10;" d="
									M666.739,91.961c-1.265-6.048-4.557-11.586-5.34-17.715"/>
								<path style="fill:none;stroke:#205F28;stroke-linecap:round;stroke-linejoin:round;stroke-miterlimit:10;" d="
									M666.406,99.031c-2.014-3.338-4.193-6.576-6.526-9.699"/>
								<path style="fill:none;stroke:#205F28;stroke-linecap:round;stroke-linejoin:round;stroke-miterlimit:10;" d="
									M667.526,106.851c-4.106-3.141-8.568-7.954-11.894-11.913"/>
							</g>
						</g>
					</g>
				</g>
				<g>
					<g>
						<path style="fill:#FFFFFF;" d="M640.609,152.835c1.448-11.11,9.715-21.585,27.184-19.54
							c19.959-0.277,28.477,8.203,25.725,21.595c0.542,11.988-24.129,122.956-54.509,94.275c-3.579-5.44-2.967-13.035-3.433-18.675
							C633.413,204.317,635.101,178.245,640.609,152.835z"/>
						<path style="opacity:0.44;fill:#FFB900;" d="M640.609,152.835c1.448-11.11,9.715-21.585,27.184-19.54
							c19.959-0.277,28.477,8.203,25.725,21.595c0.542,11.988-24.129,122.956-54.509,94.275c-3.579-5.44-2.967-13.035-3.433-18.675
							C633.413,204.317,635.101,178.245,640.609,152.835z"/>
					</g>
					<g>
						<path style="fill:none;stroke:#FFFFDF;stroke-linecap:round;stroke-linejoin:round;stroke-miterlimit:10;" d="
							M639.617,178.783c6.961-0.909,14.055-1.205,20.986-0.087c6.93,1.119,13.714,3.709,19.173,8.123"/>
						<path style="fill:none;stroke:#FFFFDF;stroke-linecap:round;stroke-linejoin:round;stroke-miterlimit:10;" d="M637.39,195.415
							c12.727-2.278,26.248,0.193,37.347,6.824"/>
						<path style="fill:none;stroke:#FFFFDF;stroke-linecap:round;stroke-linejoin:round;stroke-miterlimit:10;" d="
							M636.607,213.438c11.755-2.496,24.542,0.373,34.104,7.651"/>
						<path style="fill:none;stroke:#FFFFDF;stroke-linecap:round;stroke-linejoin:round;stroke-miterlimit:10;" d="
							M636.353,230.541c10.687-2.502,22.507,0.475,30.733,7.741"/>
						<path style="fill:none;stroke:#FFFFDF;stroke-linecap:round;stroke-linejoin:round;stroke-miterlimit:10;" d="M639.387,244.72
							c5.686-1.46,11.977-0.371,16.842,2.916"/>
						<path style="fill:none;stroke:#FFFFDF;stroke-linecap:round;stroke-linejoin:round;stroke-miterlimit:10;" d="
							M640.575,156.579c1.9-1.358,4.23-1.963,6.528-2.379c13.982-2.534,28.985,1.238,40.106,10.082"/>
						<path style="fill:none;stroke:#FFFFDF;stroke-linecap:round;stroke-linejoin:round;stroke-miterlimit:10;" d="
							M643.391,146.052c14.617-7.848,33.963-5.756,46.564,5.036"/>
					</g>
				</g>
				<g>
					<g>
						
							<ellipse transform="matrix(0.09 -0.9959 0.9959 0.09 449.0226 818.632)" style="fill:#1B1D35;" cx="672.494" cy="163.596" rx="4.478" ry="2.372"/>
						
							<ellipse transform="matrix(0.09 -0.9959 0.9959 0.09 433.3021 799.2507)" style="fill:#1B1D35;" cx="654.028" cy="162.508" rx="4.478" ry="2.372"/>
					</g>
					
						<ellipse transform="matrix(0.1645 -0.9864 0.9864 0.1645 393.3812 812.9323)" style="fill:#D35C3C;" cx="676.577" cy="174.247" rx="3.905" ry="5.532"/>
					
						<ellipse transform="matrix(0.002 -1 1 0.002 475.7342 817.2603)" style="fill:#D35C3C;" cx="647.313" cy="170.288" rx="3.905" ry="5.532"/>
					<path style="fill:none;stroke:#1B1D35;stroke-linecap:round;stroke-linejoin:round;stroke-miterlimit:10;" d="M657.381,170.193
						c0.739,1.617,2.312,2.824,4.065,3.121c1.753,0.297,3.636-0.325,4.866-1.608"/>
				</g>
			</g>
		</g>
		<g>
			<path style="fill:none;stroke:#FFFFDF;stroke-linecap:round;stroke-linejoin:round;stroke-miterlimit:10;" d="M311.414,321.383
				c0,0,4.3,5.061-1.216,9.807"/>
			<circle style="fill:#ACD96A;" cx="177.573" cy="435.448" r="6.286"/>
			<circle style="fill:#ACD96A;" cx="660.635" cy="324.292" r="6.286"/>
			<circle style="fill:#ACD96A;" cx="499.967" cy="479.785" r="6.286"/>
			<circle style="fill:#ACD96A;" cx="141.694" cy="479.785" r="3.143"/>
			<circle style="fill:#ACD96A;" cx="327.768" cy="399.596" r="3.143"/>
			<circle style="fill:#ACD96A;" cx="625.023" cy="113.089" r="3.143"/>
			<circle style="fill:#ACD96A;" cx="201.087" cy="472.368" r="3.143"/>
			<circle style="fill:#ACD96A;" cx="568.555" cy="482.473" r="3.143"/>
			<circle style="fill:#ACD96A;" cx="686.588" cy="418.185" r="3.143"/>
			<path style="fill:#6C71D1;" d="M241.359,419.904l1.013,3.117c0.287,0.884,1.111,1.482,2.04,1.482h3.278
				c2.078,0,2.942,2.659,1.261,3.881l-2.652,1.927c-0.752,0.546-1.066,1.514-0.779,2.398l1.013,3.117
				c0.642,1.976-1.62,3.62-3.301,2.398l-2.652-1.927c-0.752-0.546-1.77-0.546-2.522,0l-2.652,1.927
				c-1.681,1.221-3.943-0.422-3.301-2.398l1.013-3.117c0.287-0.884-0.027-1.852-0.779-2.398l-2.652-1.927
				c-1.681-1.221-0.817-3.881,1.261-3.881h3.278c0.929,0,1.753-0.598,2.04-1.482l1.013-3.117
				C237.921,417.927,240.717,417.927,241.359,419.904z"/>
			<path style="fill:#6C71D1;" d="M725.274,258.732l1.013,3.117c0.287,0.884,1.111,1.482,2.04,1.482h3.278
				c2.078,0,2.942,2.659,1.261,3.881l-2.652,1.927c-0.752,0.546-1.066,1.514-0.779,2.398l1.013,3.117
				c0.642,1.976-1.62,3.62-3.301,2.398l-2.652-1.927c-0.752-0.546-1.77-0.546-2.522,0l-2.652,1.927
				c-1.681,1.221-3.943-0.422-3.301-2.398l1.013-3.117c0.287-0.884-0.027-1.852-0.779-2.398l-2.652-1.927
				c-1.681-1.221-0.817-3.881,1.261-3.881h3.278c0.929,0,1.753-0.598,2.04-1.482l1.013-3.117
				C721.836,256.756,724.632,256.756,725.274,258.732z"/>
			<path style="fill:#6C71D1;" d="M493.762,425.22l1.013,3.117c0.287,0.884,1.111,1.482,2.04,1.482h3.278
				c2.078,0,2.942,2.659,1.261,3.881l-2.652,1.927c-0.752,0.546-1.066,1.514-0.779,2.398l1.013,3.117
				c0.642,1.976-1.62,3.62-3.301,2.398l-2.652-1.927c-0.752-0.546-1.77-0.546-2.522,0l-2.652,1.927
				c-1.681,1.221-3.943-0.422-3.301-2.398l1.013-3.117c0.287-0.884-0.027-1.852-0.779-2.398l-2.652-1.927
				c-1.681-1.221-0.817-3.881,1.261-3.881h3.278c0.929,0,1.753-0.598,2.04-1.482l1.013-3.117
				C490.324,423.243,493.12,423.243,493.762,425.22z"/>
			<path style="fill:#6C71D1;" d="M314.6,366.109l0.79,2.43c0.224,0.689,0.866,1.156,1.591,1.156h2.555
				c1.62,0,2.294,2.073,0.983,3.025l-2.067,1.502c-0.586,0.426-0.831,1.181-0.608,1.87l0.79,2.43
				c0.501,1.541-1.263,2.822-2.574,1.87l-2.067-1.502c-0.586-0.426-1.38-0.426-1.966,0l-2.067,1.502
				c-1.311,0.952-3.074-0.329-2.574-1.87l0.79-2.43c0.224-0.689-0.021-1.444-0.608-1.87l-2.067-1.502
				c-1.311-0.952-0.637-3.025,0.983-3.025h2.555c0.725,0,1.367-0.467,1.591-1.156l0.79-2.43
				C311.92,364.568,314.1,364.568,314.6,366.109z"/>
			<path style="fill:#6C71D1;" d="M730.984,441.474l0.79,2.43c0.224,0.689,0.866,1.156,1.591,1.156h2.555
				c1.62,0,2.294,2.073,0.983,3.025l-2.067,1.502c-0.586,0.426-0.831,1.181-0.608,1.87l0.79,2.43
				c0.501,1.541-1.263,2.822-2.574,1.87l-2.067-1.502c-0.586-0.426-1.38-0.426-1.966,0l-2.067,1.502
				c-1.311,0.952-3.074-0.329-2.574-1.87l0.79-2.43c0.224-0.689-0.021-1.444-0.608-1.87l-2.067-1.502
				c-1.311-0.952-0.637-3.025,0.983-3.025h2.555c0.725,0,1.367-0.467,1.591-1.156l0.79-2.43
				C728.303,439.934,730.483,439.934,730.984,441.474z"/>
			<path style="fill:#6C71D1;" d="M586.977,86.349l0.79,2.43c0.224,0.689,0.866,1.156,1.591,1.156h2.555
				c1.62,0,2.294,2.073,0.983,3.025l-2.067,1.502c-0.586,0.426-0.831,1.181-0.608,1.87l0.79,2.43
				c0.501,1.541-1.263,2.822-2.574,1.87l-2.067-1.502c-0.586-0.426-1.38-0.426-1.966,0l-2.067,1.502
				c-1.311,0.952-3.074-0.329-2.574-1.87l0.79-2.43c0.224-0.689-0.021-1.444-0.608-1.87l-2.067-1.502
				c-1.311-0.952-0.637-3.025,0.983-3.025h2.555c0.724,0,1.367-0.467,1.591-1.156l0.79-2.43
				C584.297,84.809,586.476,84.809,586.977,86.349z"/>
			<path style="fill:#6C71D1;" d="M545.778,311.883l0.79,2.43c0.224,0.689,0.866,1.156,1.591,1.156h2.555
				c1.62,0,2.294,2.073,0.983,3.025l-2.067,1.502c-0.586,0.426-0.831,1.181-0.608,1.87l0.79,2.43
				c0.501,1.541-1.263,2.822-2.574,1.87l-2.067-1.502c-0.586-0.426-1.38-0.426-1.966,0l-2.067,1.502
				c-1.311,0.952-3.074-0.329-2.574-1.87l0.79-2.43c0.224-0.689-0.021-1.444-0.608-1.87l-2.067-1.502
				c-1.311-0.952-0.637-3.025,0.983-3.025h2.555c0.725,0,1.367-0.467,1.591-1.156l0.79-2.43
				C543.097,310.342,545.277,310.342,545.778,311.883z"/>
		</g>
	</g>
</g>
</svg>
