<?xml version="1.0" standalone="no"?>
<!DOCTYPE svg PUBLIC "-//W3C//DTD SVG 20010904//EN"
 "http://www.w3.org/TR/2001/REC-SVG-20010904/DTD/svg10.dtd">
<svg version="1.0" xmlns="http://www.w3.org/2000/svg"
 width="900.000000pt" height="580.000000pt" viewBox="0 0 900.000000 580.000000"
 preserveAspectRatio="xMidYMid meet">

<g transform="translate(0.000000,580.000000) scale(0.100000,-0.100000)"
fill="#000000" stroke="none">
<path d="M6842 5390 c-24 -4 -48 -13 -53 -21 -11 -18 -58 -158 -65 -192 -4
-25 -3 -25 28 -14 24 9 32 9 35 -1 3 -6 9 -10 14 -6 5 3 9 2 9 -3 0 -4 -13
-15 -29 -25 -26 -14 -32 -14 -50 -1 -19 13 -21 12 -21 -4 0 -11 -4 -23 -9 -28
-16 -18 -191 -526 -191 -557 0 -15 -28 -94 -83 -235 l-20 -52 -76 6 -75 6 21
-23 c26 -27 103 -179 103 -202 0 -9 4 -19 9 -22 5 -3 11 -16 14 -28 2 -13 12
-50 21 -83 59 -218 59 -525 0 -790 -55 -244 -154 -507 -292 -779 -64 -127
-204 -366 -266 -456 -35 -51 -49 -73 -71 -113 l-16 -28 43 22 c24 12 92 51
151 87 l108 64 81 137 c217 364 358 708 408 996 6 39 16 89 21 112 16 76 22
304 10 433 -20 219 -79 414 -170 564 -22 38 -41 70 -41 72 0 8 44 -19 90 -55
109 -87 151 -128 212 -211 98 -133 134 -215 168 -381 24 -120 29 -342 10 -454
-17 -105 -38 -204 -54 -260 -8 -27 -20 -68 -26 -90 -16 -55 -80 -236 -92 -258
-5 -10 -24 -55 -43 -100 l-35 -82 83 86 c114 120 212 268 264 399 46 116 67
305 44 403 -5 20 -6 39 -2 42 5 2 25 0 45 -6 21 -6 72 -16 114 -23 86 -15 396
-80 454 -96 42 -12 322 -69 325 -67 1 1 -5 52 -13 112 -17 125 -12 209 17 275
28 64 81 143 88 132 3 -5 14 -10 24 -10 65 -5 92 -3 95 7 2 6 8 11 13 11 5 0
2 -17 -7 -37 -68 -160 -67 -358 2 -494 22 -45 26 -47 91 -63 100 -23 215 -46
236 -46 47 0 90 191 76 336 -17 187 -87 315 -263 486 -80 77 -97 98 -83 104
14 5 17 19 17 79 0 84 -29 194 -85 325 -20 47 -39 91 -42 98 -3 8 0 10 11 6 9
-3 16 -2 16 3 0 6 26 15 58 22 173 38 170 52 -12 59 l-126 5 -82 115 c-46 63
-106 142 -133 176 -28 33 -62 77 -75 96 -43 63 -284 341 -301 348 -4 2 -48
-24 -98 -57 -49 -33 -94 -62 -99 -63 -5 -2 -32 28 -60 65 -27 38 -74 90 -103
116 -107 95 -176 124 -267 111z m735 -712 c-3 -8 -6 -5 -6 6 -1 11 2 17 5 13
3 -3 4 -12 1 -19z m-1021 -84 c-9 -8 -16 -20 -16 -26 0 -6 -3 -9 -6 -6 -8 9
14 48 27 48 6 0 3 -7 -5 -16z m-16 -65 c0 -5 -4 -9 -10 -9 -5 0 -10 7 -10 16
0 8 5 12 10 9 6 -3 10 -10 10 -16z m208 -50 c23 -17 42 -36 42 -42 0 -6 11
-22 24 -36 26 -28 85 -134 104 -188 10 -31 13 -33 55 -29 46 5 78 -6 58 -18
-6 -4 -15 -5 -20 -2 -4 3 -17 -2 -27 -10 -17 -14 -17 -15 -1 -10 22 7 22 3 -5
-20 -12 -10 -18 -13 -13 -5 4 8 2 17 -6 22 -12 8 -12 11 1 19 13 8 12 10 -2
10 -10 0 -18 -5 -18 -11 0 -6 -7 -9 -15 -5 -10 4 -15 -1 -15 -15 0 -11 -7 -22
-15 -25 -23 -9 -18 -26 5 -19 11 4 20 2 20 -4 0 -6 -7 -11 -15 -11 -8 0 -15
-5 -15 -11 0 -5 -4 -7 -10 -4 -6 4 -8 -6 -6 -24 2 -21 -1 -28 -10 -24 -15 6
-26 31 -18 44 3 5 -4 9 -15 9 -18 0 -21 -6 -21 -47 0 -31 3 -43 9 -34 5 7 7
23 4 35 -3 20 -3 20 6 -1 6 -13 16 -23 22 -23 8 0 7 -5 -2 -17 -10 -11 -10
-14 -1 -9 6 4 12 3 12 -2 0 -17 -13 -21 -31 -11 -15 8 -17 6 -12 -7 4 -10 14
-14 29 -11 20 3 22 1 14 -14 -15 -26 -12 -33 6 -18 13 11 15 11 14 -2 -1 -7
-2 -21 -1 -29 1 -13 2 -13 11 0 9 13 13 12 30 -8 11 -13 24 -20 30 -17 6 4 17
-1 24 -10 10 -14 29 -18 84 -19 81 -1 95 -16 33 -35 -22 -6 -65 -32 -96 -57
-31 -25 -57 -45 -59 -43 -1 2 -13 31 -26 64 -13 33 -48 95 -77 138 -29 43 -53
85 -53 95 0 13 -2 14 -9 4 -6 -10 -16 -4 -37 27 -16 22 -37 43 -46 46 -23 8
-34 45 -17 56 10 6 10 9 2 9 -7 0 -17 -8 -22 -17 -10 -17 -10 -17 -11 0 0 10
-7 20 -15 23 -8 4 -12 11 -8 17 4 6 0 8 -10 4 -10 -4 -14 -2 -11 7 3 8 -3 12
-18 12 -25 -1 -50 37 -41 62 5 12 8 12 20 -3 7 -10 16 -15 20 -11 4 4 1 11 -6
16 -12 7 -12 13 3 34 9 15 14 31 11 36 -3 6 2 10 12 10 19 0 83 89 83 115 0 9
4 14 8 11 4 -2 7 11 7 30 -1 19 1 34 5 34 3 0 25 -14 48 -31z m200 -351 c-2
-6 -10 -14 -16 -16 -7 -2 -10 2 -6 12 7 18 28 22 22 4z m-8 -53 c0 -8 -4 -15
-10 -15 -5 0 -7 7 -4 15 4 8 8 15 10 15 2 0 4 -7 4 -15z m118 -626 l-43 -109
-12 105 c-6 57 -14 109 -17 114 -6 9 31 27 47 23 4 -1 10 5 14 14 5 13 7 13
15 2 7 -10 11 -9 21 7 11 19 12 18 15 -14 2 -22 -11 -70 -40 -142z m642 -67
c-20 -64 -50 -119 -50 -93 0 8 -17 29 -37 48 -24 21 -34 36 -27 41 6 4 13 15
17 24 4 11 12 15 22 12 10 -4 15 -2 13 7 -2 8 7 15 22 17 14 2 29 8 35 13 21
20 23 -10 5 -69z"/>
<path d="M6635 4320 c-3 -5 -1 -10 4 -10 6 0 11 5 11 10 0 6 -2 10 -4 10 -3 0
-8 -4 -11 -10z"/>
<path d="M6585 4200 c3 -5 11 -10 16 -10 6 0 7 5 4 10 -3 6 -11 10 -16 10 -6
0 -7 -4 -4 -10z"/>
<path d="M6750 4009 c0 -5 5 -7 10 -4 6 3 10 8 10 11 0 2 -4 4 -10 4 -5 0 -10
-5 -10 -11z"/>
<path d="M6890 3830 c0 -5 5 -10 10 -10 6 0 10 5 10 10 0 6 -4 10 -10 10 -5 0
-10 -4 -10 -10z"/>
<path d="M7678 5368 c-26 -18 -48 -36 -48 -39 0 -3 44 -46 98 -95 330 -301
513 -524 643 -783 79 -159 92 -207 93 -348 1 -77 5 -122 11 -120 6 2 24 23 40
46 26 37 30 51 30 109 -1 75 -30 143 -103 240 -38 51 -39 54 -35 115 15 184
-54 412 -168 558 -100 127 -211 216 -371 296 -119 59 -133 61 -190 21z"/>
<path d="M5506 4289 c-166 -13 -268 -34 -432 -88 -112 -37 -149 -53 -148 -65
1 -10 -7 -17 -20 -18 -78 -7 -109 -17 -102 -34 3 -8 0 -11 -8 -8 -7 3 -26 -2
-42 -11 -16 -8 -24 -15 -19 -16 9 0 -65 -27 -92 -33 -17 -3 -29 -16 -15 -16 7
0 12 -5 12 -11 0 -6 -9 -8 -20 -4 -23 7 -26 -5 -7 -24 10 -10 9 -11 -5 -6 -9
4 -20 20 -23 36 -4 16 -10 31 -14 33 -19 12 -431 -159 -666 -274 -88 -44 -166
-83 -173 -88 -10 -7 -7 -22 12 -73 78 -206 96 -569 45 -884 -30 -179 -150
-618 -204 -740 -7 -16 -25 -59 -38 -95 -55 -140 -197 -439 -285 -598 -36 -66
-47 -94 -39 -100 30 -24 143 -74 214 -94 67 -19 103 -22 258 -23 107 0 202 5
235 12 30 7 127 29 215 48 88 20 184 40 213 46 99 18 524 167 838 294 40 17
44 22 128 199 82 170 110 230 165 350 25 55 17 81 -19 58 -11 -7 -20 -8 -20
-3 0 6 -16 5 -37 -3 -36 -12 -316 -21 -333 -11 -4 3 1 37 12 77 17 66 114 400
137 473 12 39 66 238 92 340 11 44 27 105 34 135 8 30 22 87 31 125 9 39 22
85 30 103 l14 33 117 -5 c137 -6 154 -9 213 -29 67 -23 100 -39 100 -50 0 -5
7 -7 15 -3 8 3 15 0 15 -7 0 -29 28 32 33 73 3 25 13 83 23 130 29 147 23 520
-10 635 -2 6 -7 29 -11 52 -4 23 -14 44 -21 47 -8 3 -14 12 -14 20 0 17 -45
87 -63 98 -15 10 -177 8 -321 -3z m-582 -194 c-4 -8 -8 -15 -10 -15 -2 0 -4 7
-4 15 0 8 4 15 10 15 5 0 7 -7 4 -15z m41 -1271 c-8 -65 -17 -129 -21 -140 -3
-12 -1 -25 5 -28 6 -4 11 0 11 8 0 18 35 22 45 6 4 -7 12 -7 25 0 13 7 22 6
32 -3 7 -8 19 -12 26 -9 16 5 15 -13 -4 -106 -30 -150 -130 -452 -148 -449 -6
1 -12 -9 -14 -22 -3 -19 -6 -21 -13 -10 -6 10 -9 10 -9 2 0 -7 -11 -13 -24
-13 -14 0 -28 -4 -31 -10 -3 -5 -19 -10 -35 -10 -15 0 -31 -6 -33 -12 -4 -10
-8 -9 -16 2 -9 13 -11 13 -11 0 0 -21 -81 -204 -182 -412 -71 -147 -83 -165
-94 -150 -11 14 -13 15 -14 2 0 -9 -10 -17 -22 -17 -37 -2 -122 -24 -132 -34
-6 -5 -24 -9 -40 -9 -22 0 -27 -3 -17 -9 11 -7 3 -12 -28 -21 -23 -6 -48 -9
-54 -7 -7 2 -18 -8 -24 -22 -11 -22 -12 -22 -7 -3 3 12 1 22 -5 22 -6 0 -11
-12 -11 -27 0 -21 -3 -24 -9 -14 -13 21 -10 30 78 224 45 99 81 183 81 188 0
6 6 22 14 37 7 15 16 39 20 54 5 22 3 25 -13 21 -11 -3 -22 -11 -25 -19 -3 -8
-12 -14 -20 -14 -9 0 -30 -9 -47 -19 -17 -11 -37 -17 -44 -15 -6 3 -18 -2 -25
-11 -7 -8 -17 -15 -23 -15 -6 0 -18 -6 -26 -13 -9 -8 -38 -20 -66 -27 -27 -8
-61 -20 -75 -27 -14 -7 -33 -13 -43 -13 -10 0 -20 -7 -24 -16 -5 -15 -7 -15
-15 0 -8 14 -12 15 -25 4 -14 -11 -15 -10 -8 12 4 14 33 86 65 160 32 74 82
195 110 268 36 91 55 130 61 120 7 -10 9 -9 9 5 0 9 5 17 10 17 6 0 10 -5 10
-10 0 -9 35 5 50 20 3 3 14 6 25 8 30 5 149 65 158 79 4 7 19 13 32 13 14 0
25 4 25 10 0 5 16 16 35 24 19 8 35 20 35 25 0 15 27 14 34 -1 3 -7 3 -2 -1
12 -5 22 -4 23 11 11 14 -12 16 -12 10 4 -5 11 -3 16 3 12 9 -6 19 23 68 198
8 28 20 81 27 119 12 65 15 70 48 83 19 8 55 24 80 35 25 12 64 21 86 22 23 1
40 4 37 9 -2 4 23 7 56 7 40 0 61 4 61 12 0 6 2 9 5 6 3 -2 -2 -58 -10 -124z
m-870 -1494 c3 -5 1 -10 -4 -10 -6 0 -11 5 -11 10 0 6 2 10 4 10 3 0 8 -4 11
-10z"/>
<path d="M4316 1883 c-6 -14 -5 -15 5 -6 7 7 10 15 7 18 -3 3 -9 -2 -12 -12z"/>
<path d="M4480 1499 c0 -5 5 -7 10 -4 6 3 10 8 10 11 0 2 -4 4 -10 4 -5 0 -10
-5 -10 -11z"/>
<path d="M5876 4255 c9 -14 19 -24 21 -21 7 7 -16 46 -28 46 -5 0 -2 -11 7
-25z"/>
<path d="M5901 4276 c10 -8 89 -13 89 -5 0 5 -21 9 -47 9 -25 0 -44 -2 -42 -4z"/>
<path d="M6060 4270 c34 -11 60 -11 35 0 -11 5 -29 8 -40 8 -16 0 -15 -2 5 -8z"/>
<path d="M6126 4251 c-4 -7 -5 -15 -2 -18 9 -9 19 4 14 18 -4 11 -6 11 -12 0z"/>
<path d="M6018 4243 c-10 -2 -15 -10 -11 -19 6 -17 33 -19 33 -3 0 7 11 9 30
6 21 -5 28 -3 24 6 -5 13 -45 18 -76 10z"/>
<path d="M5910 4221 c0 -5 5 -13 10 -16 6 -3 10 -2 10 4 0 5 -4 13 -10 16 -5
3 -10 2 -10 -4z"/>
<path d="M6128 4215 c-18 -18 28 -71 48 -54 11 9 15 -4 15 -54 0 -15 4 -25 9
-22 6 4 10 13 10 21 0 8 4 14 9 14 14 0 23 -34 15 -54 -5 -13 -2 -17 11 -14
15 2 24 -16 52 -102 18 -58 36 -136 39 -175 4 -38 8 -72 11 -75 6 -7 -3 171
-10 190 -3 8 -16 49 -28 90 -13 41 -29 81 -36 88 -9 10 -10 19 -3 32 8 16 8
18 -5 14 -8 -4 -15 -2 -15 2 0 5 -14 24 -31 42 -23 24 -34 30 -44 22 -13 -11
-28 1 -36 28 -3 7 -7 10 -11 7z"/>
<path d="M6160 4199 c0 -11 5 -17 10 -14 6 3 10 13 10 21 0 8 -4 14 -10 14 -5
0 -10 -9 -10 -21z"/>
<path d="M5956 4155 c-9 -26 -7 -32 5 -12 6 10 9 21 6 23 -2 3 -7 -2 -11 -11z"/>
<path d="M6090 4146 c7 -7 13 -7 20 0 6 6 3 10 -10 10 -13 0 -16 -4 -10 -10z"/>
<path d="M6355 4010 c3 -5 8 -10 11 -10 2 0 4 5 4 10 0 6 -5 10 -11 10 -5 0
-7 -4 -4 -10z"/>
<path d="M3403 3468 c-300 -200 -549 -423 -680 -609 -125 -177 -203 -362 -224
-531 -6 -45 -12 -84 -14 -87 -2 -2 -51 15 -108 38 -57 22 -108 41 -114 41 -22
0 -122 -356 -107 -381 2 -4 -1 -31 -6 -60 -21 -109 -15 -427 11 -629 9 -70 16
-105 70 -327 25 -104 64 -234 83 -283 8 -19 31 -79 52 -132 21 -54 40 -98 44
-98 8 0 76 72 129 137 23 28 89 121 145 207 57 85 113 167 124 183 20 28 51
77 137 215 27 43 61 92 76 110 25 30 29 32 49 20 12 -7 23 -12 25 -10 2 2 28
53 58 113 145 289 268 609 350 905 23 83 50 203 67 300 6 36 16 88 22 115 16
85 23 434 9 522 -40 251 -55 313 -77 313 -7 0 -62 -32 -121 -72z m-903 -1890
c0 -20 -173 -129 -184 -118 -14 14 9 35 96 86 80 47 88 50 88 32z m205 -520
l49 -95 -49 -79 c-27 -43 -55 -85 -62 -92 -7 -7 -17 -21 -22 -30 -13 -22 -18
-16 -85 96 -53 88 -86 154 -86 173 0 4 33 27 73 51 39 23 83 50 96 60 13 10
26 16 30 14 3 -2 28 -47 56 -98z"/>
<path d="M904 2724 c-9 -16 -33 -52 -51 -80 -113 -170 -53 -358 187 -586 56
-54 100 -103 98 -110 -3 -10 -47 -14 -164 -18 -137 -5 -165 -8 -200 -27 -46
-25 -64 -57 -64 -116 0 -48 27 -273 34 -285 2 -4 14 -61 26 -127 28 -157 111
-484 144 -564 47 -115 97 -161 176 -161 48 0 104 27 231 110 50 33 101 60 114
60 28 0 115 -92 185 -195 111 -163 246 -322 319 -376 89 -65 147 -71 236 -27
22 11 41 21 43 23 1 1 -27 62 -62 136 -107 224 -154 371 -186 584 -11 72 -25
159 -30 195 -15 93 -21 398 -10 510 18 176 70 515 94 610 7 30 17 71 20 91 l6
37 -72 27 c-502 189 -841 295 -996 311 -58 6 -60 6 -78 -22z"/>
<path d="M5714 1783 c-15 -26 -34 -56 -42 -65 -8 -9 -12 -23 -10 -30 3 -7 14
4 27 27 12 22 31 55 42 74 11 18 18 35 15 38 -2 3 -17 -17 -32 -44z"/>
</g>
</svg>
