<?xml version="1.0" standalone="no"?>
<!DOCTYPE svg PUBLIC "-//W3C//DTD SVG 20010904//EN"
 "http://www.w3.org/TR/2001/REC-SVG-20010904/DTD/svg10.dtd">
<svg version="1.0" xmlns="http://www.w3.org/2000/svg"
 width="970.000000pt" height="685.000000pt" viewBox="0 0 970.000000 685.000000"
 preserveAspectRatio="xMidYMid meet">

<g transform="translate(0.000000,685.000000) scale(0.100000,-0.100000)"
fill="#000000" stroke="none">
<path d="M8322 6843 c-8 -3 -191 -360 -407 -795 l-394 -789 -62 123 c-74 148
-104 193 -183 277 -216 226 -560 313 -856 215 -41 -14 -487 -232 -990 -486
-503 -253 -1498 -753 -2210 -1111 -1026 -516 -1310 -663 -1373 -711 -237 -178
-363 -492 -317 -786 15 -92 45 -180 102 -293 l49 -99 -28 6 c-15 3 -371 67
-790 141 -420 75 -776 138 -792 141 -34 7 -71 -23 -71 -58 0 -41 39 -186 75
-278 51 -134 108 -223 204 -323 l86 -89 -1 -72 c-1 -39 -5 -132 -9 -206 -8
-151 2 -214 52 -316 34 -71 82 -113 223 -201 131 -81 160 -108 192 -178 21
-47 23 -61 21 -215 -3 -179 6 -249 42 -320 42 -83 176 -219 339 -342 101 -78
128 -89 158 -65 9 6 179 342 379 745 199 402 365 732 368 732 3 0 30 -48 60
-106 131 -259 329 -415 598 -470 106 -22 290 -15 388 15 106 33 516 233 1420
694 1117 569 2313 1167 2334 1167 18 0 637 324 771 403 126 74 234 191 305
327 60 117 85 212 92 346 9 179 -16 280 -119 488 -33 65 -58 120 -56 121 2 2
390 -66 862 -150 587 -105 866 -151 881 -145 12 5 25 16 29 25 18 47 -2 373
-30 495 -33 145 -86 214 -244 320 -125 84 -173 130 -199 190 -20 47 -21 64
-19 268 l3 217 -35 65 c-41 76 -145 182 -221 226 -30 18 -87 51 -127 73 -40
23 -79 53 -88 66 -9 13 -20 59 -25 102 -22 191 -128 401 -293 581 -37 40 -60
49 -94 35z m123 -268 c88 -131 144 -277 145 -371 0 -17 7 -54 16 -83 21 -71
74 -121 209 -196 118 -66 196 -134 241 -210 l29 -50 0 -225 c0 -222 0 -226 26
-280 38 -80 95 -139 215 -220 124 -84 170 -128 195 -185 25 -56 46 -187 55
-330 l7 -118 -39 5 c-21 4 -397 70 -834 147 -437 78 -810 144 -828 148 -30 5
-37 14 -75 89 -22 46 -39 85 -37 87 3 3 122 10 265 17 291 13 305 17 305 75 0
63 -11 65 -285 50 -132 -7 -242 -11 -243 -10 -2 2 66 86 152 187 129 152 155
188 156 215 0 45 -38 71 -78 53 -15 -6 -99 -98 -192 -211 -90 -109 -167 -199
-170 -199 -3 0 -25 38 -48 85 l-42 85 387 774 c309 618 390 773 401 764 7 -6
37 -48 67 -93z m-1600 -801 c33 -9 95 -31 138 -51 60 -28 77 -41 77 -57 0 -12
-7 -118 -15 -236 -8 -118 -46 -699 -84 -1290 -39 -591 -73 -1110 -77 -1152
l-6 -78 -586 -295 c-322 -162 -586 -293 -587 -292 -1 1 16 200 37 442 90 1030
199 2306 205 2381 l6 82 -177 -90 c-102 -51 -187 -88 -199 -86 -16 2 -23 11
-25 30 -3 26 5 32 202 130 232 116 208 89 222 246 l6 73 218 109 c219 109 289
137 390 151 69 9 177 2 255 -17z m-1760 -945 c5 -14 1 -27 -9 -38 -9 -9 -312
-164 -674 -346 l-657 -330 -42 -640 c-46 -714 -82 -1268 -118 -1820 -14 -203
-25 -380 -25 -392 0 -19 -26 -36 -169 -107 -240 -121 -275 -131 -441 -131
-151 0 -206 12 -323 71 -139 69 -240 169 -313 307 l-35 67 51 593 c28 325 66
772 86 991 19 220 32 401 30 404 -11 11 -355 -182 -400 -224 -66 -63 -104
-217 -92 -377 7 -94 0 -117 -35 -117 -30 0 -39 40 -39 173 0 184 35 300 114
376 43 41 176 120 333 196 l131 64 6 88 c4 48 10 99 14 111 6 19 128 85 642
343 349 175 637 319 640 319 3 0 2 -44 -1 -97 -4 -54 -5 -100 -3 -102 3 -3
1093 542 1207 604 73 40 113 45 122 14z m-4151 -2429 c433 -77 792 -140 797
-140 5 0 29 -40 53 -88 l44 -88 -285 -62 c-295 -63 -323 -74 -323 -119 0 -24
32 -63 51 -63 9 0 527 109 596 125 19 4 27 -3 47 -44 l25 -49 -203 -164 c-112
-89 -209 -173 -215 -185 -24 -51 30 -100 82 -75 12 6 105 78 207 161 l185 151
32 -64 32 -64 -367 -742 -368 -742 -79 63 c-113 90 -229 211 -257 266 -22 45
-23 60 -24 243 -1 217 -9 259 -65 344 -39 58 -93 102 -226 184 -124 76 -156
111 -184 203 -22 74 -23 153 -3 376 10 114 -5 153 -99 248 -89 91 -134 155
-177 250 -39 86 -79 215 -67 215 2 0 358 -63 791 -140z"/>
</g>
</svg>
