<?xml version="1.0" standalone="no"?>
<!DOCTYPE svg PUBLIC "-//W3C//DTD SVG 20010904//EN"
 "http://www.w3.org/TR/2001/REC-SVG-20010904/DTD/svg10.dtd">
<svg version="1.0" xmlns="http://www.w3.org/2000/svg"
 width="1280.000000pt" height="1280.000000pt" viewBox="0 0 1280.000000 1280.000000"
 preserveAspectRatio="xMidYMid meet">

<g transform="translate(0.000000,1280.000000) scale(0.100000,-0.100000)"
fill="#000000" stroke="none">
<path d="M8466 12514 c-68 -21 -113 -52 -177 -121 -154 -167 -296 -519 -478
-1184 -97 -353 -222 -900 -237 -1031 -6 -58 -11 -67 -60 -121 -39 -41 -58 -73
-70 -115 -10 -31 -19 -58 -20 -60 0 -1 -54 11 -119 28 -453 117 -957 131
-1429 40 -442 -86 -904 -288 -1274 -557 -1045 -763 -1535 -2052 -1261 -3318
38 -173 129 -452 198 -605 29 -63 53 -118 54 -123 1 -4 -28 -18 -65 -31 -84
-30 -149 -67 -204 -118 -45 -42 -94 -127 -94 -164 0 -22 -3 -22 -108 -23 -129
0 -256 -22 -554 -96 -555 -138 -932 -188 -1538 -205 -471 -14 -568 -32 -673
-129 -110 -102 -123 -272 -37 -488 41 -104 72 -157 202 -352 189 -284 203
-326 219 -651 23 -492 76 -615 489 -1130 188 -233 303 -357 427 -459 345 -286
691 -364 974 -220 35 17 122 71 194 118 150 100 184 116 222 107 44 -11 312
-300 633 -681 159 -190 290 -323 382 -388 137 -98 298 -152 484 -164 163 -10
194 16 266 219 140 396 571 2207 642 2696 l22 152 61 29 c94 45 148 109 182
214 7 20 18 37 24 37 7 0 70 -11 141 -25 216 -43 374 -58 611 -58 238 -1 374
11 585 49 1113 203 2028 957 2443 2014 85 215 148 457 187 715 27 178 38 547
21 732 -24 270 -87 558 -175 806 l-45 128 68 67 c38 37 82 92 99 122 l31 55
268 48 c701 127 1998 401 2147 454 241 86 355 224 356 429 0 212 -152 462
-340 559 -59 30 -171 56 -308 70 -81 9 -155 18 -164 21 -25 7 -23 54 7 249 32
201 42 412 26 523 -31 209 -126 390 -295 557 -149 148 -330 257 -548 330 -276
91 -523 106 -858 49 -85 -14 -198 -28 -250 -31 -165 -10 -191 15 -291 265 -82
209 -135 312 -209 410 -200 265 -554 426 -784 356z m275 -259 c161 -68 314
-209 392 -360 15 -29 14 -33 -29 -120 l-43 -89 28 -12 c72 -30 69 -89 -18
-342 -72 -209 -73 -233 -14 -172 l30 31 39 -22 c53 -30 51 -29 30 -45 -11 -8
-16 -14 -10 -14 5 0 31 25 57 55 43 49 53 55 87 55 21 0 42 -4 45 -10 9 -15
27 -12 19 3 -4 6 -4 9 1 5 11 -11 36 12 28 25 -3 5 -1 7 5 3 6 -3 20 6 31 20
l21 27 -54 57 c-30 31 -71 89 -91 130 -41 82 -148 351 -141 357 2 2 33 -72 70
-165 100 -255 154 -333 270 -391 71 -36 181 -54 271 -45 33 3 146 19 250 36
321 51 551 38 783 -44 380 -134 626 -398 662 -711 11 -93 3 -202 -36 -454 -13
-89 -24 -186 -24 -216 0 -77 25 -152 67 -198 64 -71 123 -90 334 -109 187 -16
269 -51 339 -143 71 -95 103 -201 86 -290 -12 -62 -87 -116 -211 -153 -33 -9
-76 -25 -95 -34 -19 -10 -152 -39 -295 -65 -522 -95 -1281 -251 -1747 -360
-119 -27 -138 -29 -138 -16 -1 75 -142 352 -305 596 -225 339 -489 584 -910
847 -336 210 -473 268 -646 271 -43 1 -79 2 -79 2 0 0 54 212 119 470 206 809
321 1172 450 1419 47 91 118 181 155 197 37 16 149 2 217 -26z m-776 -2291
c77 -19 194 -79 371 -187 l141 -86 2 -60 c1 -38 -4 -71 -13 -90 -20 -37 -80
-75 -109 -68 -12 3 -38 10 -57 15 -20 5 -80 36 -135 69 -120 72 -272 149 -392
199 -48 20 -91 38 -95 40 -4 3 3 25 14 51 11 26 22 61 23 77 2 26 8 33 41 43
55 16 140 16 209 -3z m-1327 -231 c-15 -2 -42 -2 -60 0 -18 2 -6 4 27 4 33 0
48 -2 33 -4z m-517 -91 c-227 -209 -500 -559 -709 -907 -446 -744 -723 -1628
-819 -2610 -27 -283 -25 -844 5 -1120 26 -236 70 -554 80 -570 21 -35 -189
149 -304 267 -752 771 -1026 1884 -719 2920 289 975 1072 1743 2054 2013 159
43 389 88 486 94 14 1 -10 -27 -74 -87z m329 15 c0 -2 -19 -21 -42 -42 l-43
-40 40 43 c36 39 45 47 45 39z m1250 -162 c182 -78 422 -215 574 -328 l69 -51
-74 -65 c-279 -246 -502 -506 -724 -841 -461 -696 -769 -1530 -899 -2440 -92
-639 -86 -1214 19 -1818 14 -79 25 -145 25 -147 0 -9 -326 -5 -440 5 -101 9
-360 48 -368 55 -4 4 -38 347 -59 595 -23 272 -26 1180 -5 1405 94 1002 381
1889 852 2635 181 287 341 485 724 897 l149 161 36 -13 c20 -7 74 -29 121 -50z
m-1400 2 c0 -2 -12 -14 -27 -28 l-28 -24 24 28 c23 25 31 32 31 24z m-100
-110 c0 -2 -10 -12 -22 -23 l-23 -19 19 23 c18 21 26 27 26 19z m-80 -90 c0
-2 -10 -12 -22 -23 l-23 -19 19 23 c18 21 26 27 26 19z m-70 -81 c0 -2 -8 -10
-17 -17 -16 -13 -17 -12 -4 4 13 16 21 21 21 13z m2768 -578 c211 -260 395
-601 504 -933 102 -311 148 -601 148 -939 -1 -791 -312 -1539 -875 -2101 -324
-323 -713 -561 -1160 -710 -145 -49 -419 -114 -536 -129 l-46 -5 -7 87 c-53
725 -41 1330 35 1857 147 1014 528 1937 1089 2639 101 127 217 259 408 463
l114 122 125 -129 c69 -72 159 -172 201 -222z m-3931 -2130 c-3 -8 -6 -5 -6 6
-1 11 2 17 5 13 3 -3 4 -12 1 -19z m-10 -70 c-3 -8 -6 -5 -6 6 -1 11 2 17 5
13 3 -3 4 -12 1 -19z m-10 -70 c-3 -8 -6 -5 -6 6 -1 11 2 17 5 13 3 -3 4 -12
1 -19z m-10 -90 c-3 -7 -5 -2 -5 12 0 14 2 19 5 13 2 -7 2 -19 0 -25z m-10
-90 c-3 -7 -5 -2 -5 12 0 14 2 19 5 13 2 -7 2 -19 0 -25z m-10 -110 c-3 -7 -5
-2 -5 12 0 14 2 19 5 13 2 -7 2 -19 0 -25z m-10 -135 c-3 -10 -5 -2 -5 17 0
19 2 27 5 18 2 -10 2 -26 0 -35z m-10 -210 c-2 -16 -4 -3 -4 27 0 30 2 43 4
28 2 -16 2 -40 0 -55z m-1098 -619 c20 -44 150 -234 235 -344 44 -57 143 -168
218 -245 l137 -141 -22 -39 c-25 -44 -87 -92 -132 -101 -27 -5 -41 4 -130 82
-316 275 -535 540 -535 647 0 29 7 42 34 64 31 25 162 101 177 102 3 1 11 -11
18 -25z m-429 -367 c122 -248 578 -682 1040 -992 342 -228 616 -360 867 -415
68 -15 75 -18 33 -13 -70 7 -196 43 -305 87 -85 34 -85 34 -85 12 0 -33 53
-131 68 -128 8 1 11 -2 7 -9 -10 -14 86 -111 103 -104 7 2 11 1 8 -4 -3 -4 3
-16 13 -25 17 -15 17 -22 6 -79 -34 -159 -62 -474 -70 -775 -4 -150 -9 -200
-29 -280 -87 -341 -302 -1282 -326 -1424 -12 -68 -12 -68 -45 -68 -49 0 -173
25 -231 48 -129 49 -250 159 -498 455 -101 121 -156 194 -152 203 3 8 26 126
51 262 66 356 89 454 158 664 52 161 59 190 49 212 -13 28 -49 41 -87 32 -31
-8 -80 -101 -158 -306 -84 -219 -148 -446 -182 -644 l-6 -39 -130 136 c-71 74
-146 146 -167 158 -20 12 -38 23 -40 24 -1 1 18 32 42 68 76 113 208 384 204
419 -4 44 -48 75 -85 62 -44 -15 -273 -362 -308 -465 -15 -45 -18 -47 -63 -53
-63 -8 -144 -48 -277 -136 -60 -40 -141 -89 -180 -108 -62 -32 -81 -36 -162
-40 -111 -5 -194 16 -320 83 -118 62 -211 136 -344 272 -212 217 -600 726
-599 784 1 8 20 26 43 41 54 34 243 192 568 473 309 267 379 334 379 362 0 33
-31 63 -75 73 -36 9 -48 6 -123 -30 -55 -26 -81 -44 -76 -51 4 -8 3 -9 -4 -5
-16 10 -54 -12 -46 -26 4 -7 3 -8 -5 -4 -15 10 -83 -33 -75 -46 4 -7 2 -8 -5
-4 -13 9 -84 -32 -76 -44 3 -4 -3 -7 -13 -6 -9 0 -16 -4 -15 -10 1 -7 -5 -11
-15 -10 -9 0 -16 -5 -14 -12 1 -8 -2 -10 -8 -7 -14 8 -93 -42 -85 -54 2 -5 -3
-8 -13 -7 -9 0 -16 -4 -15 -10 1 -7 -5 -11 -15 -10 -9 0 -16 -5 -14 -12 1 -8
-2 -11 -8 -7 -5 3 -38 -13 -71 -37 -60 -41 -62 -42 -75 -23 -39 59 -34 57 -94
34 -51 -19 -57 -19 -93 -5 l-40 16 7 -92 c3 -50 6 -113 6 -140 0 -32 4 -47 10
-43 8 5 9 -10 4 -46 l-7 -53 25 20 c14 10 99 80 189 154 90 74 273 220 406
324 134 103 240 192 237 197 -3 5 3 6 12 2 13 -5 15 -3 9 8 -4 8 -5 11 0 7 4
-4 19 2 33 12 13 11 29 20 34 20 5 0 -104 -88 -242 -196 -317 -246 -591 -465
-652 -522 -30 -28 -49 -39 -53 -32 -4 7 -13 114 -20 238 -15 251 -25 327 -56
429 -32 104 -87 205 -214 393 -163 242 -205 332 -205 440 0 101 24 108 438
120 738 22 1199 89 1830 266 147 42 400 100 444 103 11 1 27 -20 48 -62z
m1946 -1558 c-18 -63 -82 -311 -142 -552 -60 -241 -110 -434 -112 -429 -3 11
220 912 254 1020 14 46 28 82 30 80 2 -3 -11 -56 -30 -119z m-199 -281 c-3 -8
-6 -5 -6 6 -1 11 2 17 5 13 3 -3 4 -12 1 -19z m-10 -80 c-3 -8 -6 -5 -6 6 -1
11 2 17 5 13 3 -3 4 -12 1 -19z m-10 -100 c-3 -7 -5 -2 -5 12 0 14 2 19 5 13
2 -7 2 -19 0 -25z m-10 -125 c-3 -10 -5 -4 -5 12 0 17 2 24 5 18 2 -7 2 -21 0
-30z m-10 -185 c-2 -13 -4 -3 -4 22 0 25 2 35 4 23 2 -13 2 -33 0 -45z"/>
<path d="M8996 11638 c-37 -37 -75 -130 -197 -475 -73 -207 -163 -513 -189
-647 -11 -53 -10 -61 8 -85 38 -52 92 -40 126 27 41 83 287 769 367 1027 26
84 25 136 -4 163 -34 32 -73 28 -111 -10z"/>
<path d="M9237 11190 c-26 -20 -191 -263 -243 -356 -24 -44 -27 -56 -19 -80
13 -37 54 -58 88 -45 48 19 297 379 297 430 0 66 -68 94 -123 51z"/>
<path d="M11392 10279 c-23 -17 -40 -34 -37 -39 3 -5 0 -12 -6 -16 -8 -4 -9
-3 -5 4 10 17 -9 15 -23 -1 -6 -8 -7 -18 -3 -22 4 -5 1 -5 -6 -1 -14 9 -45
-12 -37 -24 3 -5 0 -12 -6 -16 -8 -4 -9 -3 -5 4 4 7 3 12 -2 12 -12 0 -33 -25
-27 -32 3 -3 -2 -11 -12 -19 -11 -9 -14 -10 -9 -1 4 6 3 12 -2 12 -12 0 -43
-35 -37 -42 3 -3 -2 -11 -12 -19 -11 -9 -14 -10 -9 -1 15 26 -11 11 -45 -25
-21 -23 -25 -30 -9 -18 l25 20 -24 -28 c-24 -27 -38 -36 -26 -17 3 6 2 10 -3
10 -12 0 -63 -55 -57 -62 3 -2 -5 -13 -17 -24 -12 -10 -18 -13 -14 -6 13 22
-10 13 -37 -16 -15 -16 -24 -32 -20 -37 5 -4 3 -5 -3 -2 -7 4 -18 -1 -25 -10
-12 -14 -12 -16 1 -8 9 5 12 5 7 -1 -5 -5 -14 -9 -20 -9 -7 -1 -11 -7 -9 -14
1 -7 -2 -9 -9 -6 -14 9 -110 -85 -102 -99 3 -6 2 -8 -2 -3 -11 9 -126 -103
-119 -115 3 -5 0 -7 -8 -6 -7 2 -12 -3 -10 -10 1 -8 -2 -11 -7 -8 -13 9 -83
-73 -75 -87 4 -7 3 -9 -1 -4 -5 4 -17 0 -27 -10 -20 -18 -25 -38 -5 -27 8 5 7
2 -2 -9 -8 -10 -16 -15 -19 -12 -7 6 -32 -15 -32 -27 0 -5 6 -6 13 -2 8 5 7 2
-2 -9 -8 -10 -16 -15 -19 -12 -7 6 -32 -15 -32 -27 0 -5 6 -6 13 -2 7 4 9 3 4
-2 -5 -5 -14 -9 -20 -9 -7 0 -11 -8 -11 -17 1 -10 -3 -16 -10 -15 -6 1 -10 -6
-10 -15 1 -10 -3 -16 -10 -15 -6 1 -11 -8 -10 -20 0 -12 -3 -20 -7 -18 -12 8
-18 -36 -9 -61 6 -16 17 -24 33 -24 20 0 22 4 19 41 -4 39 -1 44 64 111 113
115 310 294 463 421 156 131 230 184 267 193 35 9 83 -14 100 -48 27 -52 11
-84 -92 -184 l-93 -91 20 -38 c23 -43 13 -68 -18 -45 -17 13 -17 12 -3 -3 13
-14 22 -15 50 -7 64 18 115 13 144 -16 14 -15 26 -31 26 -35 0 -16 25 -9 98
26 40 19 71 39 68 44 -3 5 2 8 12 7 9 0 16 5 14 12 -1 8 2 11 8 7 5 -3 15 -3
20 0 6 4 -12 23 -41 43 -34 24 -63 56 -82 91 -43 76 -46 158 -14 381 33 222
35 240 28 240 -3 -1 -25 -14 -49 -31z m-652 -582 c0 -2 -12 -14 -27 -28 l-28
-24 24 28 c23 25 31 32 31 24z"/>
<path d="M11182 9910 c-59 -24 -284 -207 -522 -425 -211 -193 -250 -237 -250
-277 0 -27 6 -37 29 -51 16 -9 36 -17 44 -17 26 0 335 232 513 384 39 34 109
94 157 134 87 74 147 149 147 184 0 25 -53 78 -77 77 -10 0 -28 -4 -41 -9z"/>
<path d="M10086 9679 c-22 -17 -26 -28 -26 -72 0 -65 15 -121 38 -138 15 -12
15 -12 6 1 -6 8 -15 26 -19 40 -7 23 -7 23 9 7 21 -21 42 -21 79 -3 25 14 27
14 27 -7 1 -17 2 -19 9 -7 4 8 5 48 1 89 -6 60 -12 78 -30 93 -29 24 -61 23
-94 -3z m86 -6 c24 -21 23 -36 -1 -23 -29 15 -62 12 -83 -7 -25 -22 -23 2 2
27 24 24 57 26 82 3z m-95 -115 c-3 -7 -5 -2 -5 12 0 14 2 19 5 13 2 -7 2 -19
0 -25z m120 0 c-3 -8 -6 -5 -6 6 -1 11 2 17 5 13 3 -3 4 -12 1 -19z"/>
<path d="M11090 9585 c-7 -9 -11 -17 -9 -20 3 -2 10 5 17 15 14 24 10 26 -8 5z"/>
<path d="M9865 9570 c-3 -6 1 -7 9 -4 18 7 21 14 7 14 -6 0 -13 -4 -16 -10z"/>
<path d="M9970 9566 c0 -2 8 -10 18 -17 15 -13 16 -12 3 4 -13 16 -21 21 -21
13z"/>
<path d="M9833 9538 c-21 -44 -23 -60 -12 -100 16 -60 49 -88 102 -88 49 0
102 32 93 56 -3 8 0 13 7 11 6 -1 13 9 14 23 2 23 2 23 -7 5 -7 -16 -9 -11 -8
22 2 40 -5 58 -20 58 -4 0 -29 7 -55 14 -37 11 -54 11 -73 2 -32 -14 -35 -14
-28 4 9 23 -1 18 -13 -7z m108 -166 c20 2 35 0 33 -4 -3 -5 -23 -8 -45 -8 -31
0 -47 7 -70 29 -42 43 -36 55 8 14 31 -29 42 -34 74 -31z"/>
<path d="M11085 9471 c-167 -63 -219 -88 -239 -114 -23 -32 -15 -70 20 -93 23
-16 31 -15 152 16 173 44 268 84 287 121 21 39 19 56 -10 84 -35 36 -89 32
-210 -14z"/>
<path d="M10640 8813 c-358 -14 -895 -57 -933 -74 -19 -8 -18 -8 8 -5 17 3 55
7 85 10 53 5 54 5 14 -5 -24 -6 -57 -24 -77 -44 l-36 -35 -15 27 c-23 43 -19
22 8 -40 14 -30 32 -80 41 -111 9 -31 19 -56 21 -56 3 0 114 25 247 55 447
101 1223 262 1280 267 12 1 -12 4 -53 8 -74 7 -443 9 -590 3z m-22 -20 c-10
-2 -28 -2 -40 0 -13 2 -5 4 17 4 22 1 32 -1 23 -4z m-195 -10 c-7 -2 -21 -2
-30 0 -10 3 -4 5 12 5 17 0 24 -2 18 -5z m-190 -10 c-7 -2 -19 -2 -25 0 -7 3
-2 5 12 5 14 0 19 -2 13 -5z m-136 -9 c-3 -3 -12 -4 -19 -1 -8 3 -5 6 6 6 11
1 17 -2 13 -5z m-120 -10 c-3 -3 -12 -4 -19 -1 -8 3 -5 6 6 6 11 1 17 -2 13
-5z"/>
<path d="M9105 8113 c4 -38 22 -147 41 -243 28 -150 35 -212 44 -430 7 -140
10 -353 8 -473 l-3 -217 27 0 c15 0 40 -11 55 -24 28 -24 28 -26 27 -133 -3
-244 -144 -658 -314 -917 -124 -189 -347 -457 -430 -516 -19 -14 -29 -28 -26
-37 3 -8 2 -12 -2 -9 -13 8 -95 -81 -87 -93 4 -7 1 -10 -7 -9 -7 2 -12 -3 -10
-10 1 -8 -1 -11 -6 -8 -9 5 -50 -32 -51 -46 -1 -5 -3 -7 -5 -5 -8 5 -45 -36
-40 -45 3 -4 0 -7 -7 -6 -7 2 -18 -7 -24 -19 -19 -37 -47 -64 -88 -84 -22 -12
-35 -24 -31 -31 4 -7 3 -8 -4 -4 -13 8 -102 -70 -99 -87 1 -7 -4 -11 -12 -9
-18 4 -62 -38 -54 -51 3 -6 1 -7 -4 -4 -13 8 -65 -31 -58 -43 3 -4 -3 -14 -12
-21 -12 -10 -14 -10 -9 -1 11 19 -9 14 -27 -6 -10 -10 -14 -22 -10 -27 5 -4 3
-5 -3 -2 -15 8 -56 -22 -48 -35 4 -6 3 -8 -3 -5 -14 9 -55 -22 -47 -36 4 -7 4
-9 -1 -5 -11 11 -47 -11 -39 -24 4 -6 3 -8 -3 -5 -14 9 -104 -63 -96 -76 3 -6
1 -7 -6 -3 -13 9 -44 -12 -36 -24 3 -4 -3 -7 -13 -6 -9 0 -16 -5 -14 -12 1 -8
-1 -11 -6 -8 -12 7 -84 -43 -77 -53 2 -5 -3 -8 -12 -7 -10 0 -18 -4 -18 -11 0
-6 -4 -15 -9 -20 -5 -5 -6 -2 -1 6 5 9 3 12 -6 9 -8 -3 -13 -11 -11 -17 1 -7
-2 -10 -8 -6 -13 8 -42 -14 -35 -25 3 -4 -3 -7 -13 -6 -9 0 -16 -4 -15 -10 1
-7 -5 -11 -15 -10 -9 0 -16 -4 -15 -10 1 -7 -5 -11 -15 -10 -9 0 -16 -4 -15
-10 1 -7 -5 -11 -15 -10 -9 0 -16 -4 -15 -10 1 -7 -5 -11 -15 -10 -9 0 -16 -4
-15 -10 1 -7 -5 -11 -15 -10 -9 0 -16 -4 -15 -10 1 -7 -5 -11 -15 -10 -9 0
-17 -4 -17 -11 0 -6 -4 -15 -9 -20 -5 -5 -6 -3 -2 5 15 26 -12 10 -67 -39 -32
-28 -62 -60 -68 -70 -12 -23 -27 -25 186 26 1013 247 1829 1035 2121 2048 86
298 119 564 111 892 -9 358 -67 659 -192 989 -42 113 -150 346 -160 346 -4 0
-4 -30 0 -67z m22 -45 c-3 -8 -6 -5 -6 6 -1 11 2 17 5 13 3 -3 4 -12 1 -19z
m70 -395 c-3 -10 -5 -4 -5 12 0 17 2 24 5 18 2 -7 2 -21 0 -30z m10 -225 c-2
-13 -4 -5 -4 17 -1 22 1 32 4 23 2 -10 2 -28 0 -40z m10 -235 c-2 -16 -4 -5
-4 22 0 28 2 40 4 28 2 -13 2 -35 0 -50z m0 -385 c-2 -13 -4 -5 -4 17 -1 22 1
32 4 23 2 -10 2 -28 0 -40z m-2062 -2857 c-3 -5 -24 -24 -48 -41 l-42 -32 45
41 c45 41 56 49 45 32z"/>
<path d="M8789 7927 c-25 -19 -37 -48 -39 -97 -4 -77 -1 -91 29 -121 23 -23
38 -29 68 -28 l38 2 -44 7 c-42 6 -81 37 -81 62 0 6 9 -1 21 -16 24 -30 47
-33 92 -9 18 9 37 18 42 18 6 1 8 7 6 15 -2 8 -5 41 -6 73 -3 45 -9 65 -26 83
-25 26 -73 32 -100 11z m91 -17 c31 -31 24 -41 -15 -23 -28 14 -39 14 -61 4
-34 -15 -42 -7 -19 19 23 26 69 26 95 0z m-113 -72 c-3 -8 -6 -5 -6 6 -1 11 2
17 5 13 3 -3 4 -12 1 -19z"/>
<path d="M8525 7856 c-13 -13 -28 -41 -34 -62 -16 -58 -14 -199 4 -234 29 -57
128 -61 157 -7 36 68 49 202 24 261 -28 67 -105 88 -151 42z m119 -12 c14 -15
26 -30 26 -35 0 -4 -13 6 -29 22 -31 31 -66 37 -104 18 -21 -10 -21 -10 -3 5
31 25 79 20 110 -10z m33 -126 c-2 -13 -4 -5 -4 17 -1 22 1 32 4 23 2 -10 2
-28 0 -40z m-180 -10 c-3 -7 -5 -2 -5 12 0 14 2 19 5 13 2 -7 2 -19 0 -25z
m30 -148 c26 -20 80 -27 99 -12 5 4 0 -1 -10 -11 -39 -36 -128 11 -125 66 l2
22 4 -22 c2 -13 16 -32 30 -43z"/>
<path d="M8901 7707 c-13 -21 -12 -21 5 -5 10 10 16 20 13 22 -3 3 -11 -5 -18
-17z"/>
<path d="M9172 6718 c-14 -15 -38 -71 -62 -150 -22 -71 -58 -188 -81 -260 -55
-180 -139 -391 -206 -518 -65 -125 -194 -320 -292 -444 -44 -54 -71 -97 -71
-112 0 -35 34 -64 75 -64 31 0 44 10 136 113 184 204 342 429 435 621 120 246
224 690 184 786 -22 54 -79 67 -118 28z"/>
<path d="M8120 4953 c-81 -48 -160 -114 -166 -139 -15 -60 22 -101 82 -89 52
9 212 93 230 120 39 60 3 135 -65 135 -21 0 -55 -11 -81 -27z"/>
<path d="M2034 3990 c-30 -12 -54 -49 -54 -83 0 -70 48 -96 136 -73 88 23 115
66 74 118 -13 18 -32 27 -62 31 -24 2 -50 7 -58 10 -8 3 -25 2 -36 -3z"/>
<path d="M2314 3764 c-70 -34 -91 -81 -63 -137 11 -21 10 -21 -6 -5 -10 9 -18
30 -19 47 -1 17 -4 31 -7 31 -12 0 -29 -27 -21 -35 4 -5 1 -5 -6 -1 -14 8 -45
-12 -37 -24 2 -4 -5 -16 -18 -26 l-22 -19 19 23 c11 12 15 22 10 22 -18 0 -34
-24 -34 -52 0 -39 35 -46 89 -18 23 11 39 25 37 29 -3 5 17 7 45 5 114 -8 211
94 149 156 -24 24 -72 26 -116 4z m-169 -203 c-6 -5 -25 10 -25 20 0 5 6 4 14
-3 8 -7 12 -15 11 -17z"/>
<path d="M3819 3601 c-35 -36 -36 -62 -4 -121 l25 -45 -26 30 c-17 20 -22 23
-15 8 21 -41 60 -63 110 -61 l46 1 -45 4 c-25 3 -48 8 -52 12 -5 4 7 5 25 3
28 -3 38 2 61 29 22 26 30 30 37 18 8 -10 8 -7 4 11 -4 14 -11 29 -16 35 -5 5
-9 20 -9 32 0 13 -11 35 -25 48 -34 35 -78 33 -116 -4z m102 -1 c26 -21 19
-26 -12 -9 -25 13 -84 -5 -99 -29 -5 -9 -10 -12 -10 -6 0 24 48 63 81 64 9 0
27 -9 40 -20z"/>
<path d="M3618 3575 c-45 -25 -71 -79 -76 -159 -7 -107 24 -156 98 -156 17 0
40 5 51 10 22 12 77 127 85 179 5 31 1 40 -29 69 -20 19 -48 35 -69 38 -30 5
-41 1 -73 -27 -29 -26 -35 -29 -27 -12 20 37 62 63 103 63 39 0 60 -14 86 -56
11 -18 11 -17 6 4 -13 54 -95 79 -155 47z m-61 -147 c-3 -8 -6 -5 -6 6 -1 11
2 17 5 13 3 -3 4 -12 1 -19z m38 -134 c15 -10 38 -15 59 -12 19 2 32 0 30 -4
-3 -4 -23 -8 -44 -8 -30 0 -43 6 -64 31 -14 17 -26 40 -25 52 1 16 3 13 10
-10 5 -18 21 -40 34 -49z"/>
<path d="M1365 3501 c-347 -156 -404 -202 -349 -279 27 -39 58 -44 122 -23 66
23 101 14 113 -29 6 -22 7 -22 8 -4 1 21 -22 48 -48 56 -7 2 36 30 95 62 60
31 152 83 204 114 94 56 95 58 98 99 2 33 -1 44 -20 57 -36 25 -64 19 -223
-53z"/>
<path d="M3985 2839 c-58 -51 -94 -185 -65 -240 7 -12 21 -19 40 -19 16 0 32
-4 35 -10 10 -16 72 -12 90 6 22 23 50 80 69 144 28 94 -1 139 -91 146 -37 2
-50 -2 -78 -27z m36 -5 c-26 -33 -53 -126 -55 -190 0 -29 -4 -47 -8 -40 -4 6
-8 22 -7 36 0 26 29 140 44 174 6 15 5 17 -5 11 -9 -5 -11 -4 -6 4 4 6 11 9
16 6 4 -3 13 2 20 10 21 26 22 16 1 -11z m-81 -229 c14 -19 14 -19 -2 -6 -10
7 -18 18 -18 24 0 6 1 8 3 6 1 -2 9 -13 17 -24z"/>
<path d="M3487 2599 c-27 -16 -38 -53 -26 -89 28 -79 139 -61 139 23 0 59 -63
95 -113 66z"/>
<path d="M3731 2284 c-30 -25 -43 -52 -18 -38 7 4 9 3 4 -2 -5 -5 -14 -9 -19
-9 -6 0 -13 -6 -16 -14 -3 -9 0 -11 8 -6 9 5 11 4 6 -4 -4 -6 -11 -9 -16 -6
-14 9 -68 -104 -141 -294 l-10 -25 -28 31 c-33 37 -72 58 -123 67 l-37 7 -35
-68 c-19 -37 -51 -93 -70 -123 l-36 -55 38 -30 c43 -34 122 -112 210 -208 36
-39 64 -62 66 -55 2 7 13 63 25 123 33 175 114 426 219 683 24 58 18 64 -27
26z"/>
<path d="M3356 2014 c-5 -13 -3 -14 6 -6 7 5 24 12 38 15 22 4 21 4 -6 6 -21
1 -34 -5 -38 -15z"/>
<path d="M3468 1994 c24 -14 47 -36 52 -47 7 -18 9 -18 9 -5 1 18 -72 78 -93
78 -6 0 8 -12 32 -26z"/>
</g>
</svg>
