<?xml version="1.0" standalone="no"?>
<!DOCTYPE svg PUBLIC "-//W3C//DTD SVG 20010904//EN"
 "http://www.w3.org/TR/2001/REC-SVG-20010904/DTD/svg10.dtd">
<svg version="1.0" xmlns="http://www.w3.org/2000/svg"
 width="736.000000pt" height="495.000000pt" viewBox="0 0 736.000000 495.000000"
 preserveAspectRatio="xMidYMid meet">

<g transform="translate(0.000000,495.000000) scale(0.100000,-0.100000)"
fill="#000000" stroke="none">
<path d="M3715 4061 c-66 -32 -152 -51 -226 -51 -56 0 -69 12 -37 34 33 23 6
19 -60 -8 -80 -34 -336 -115 -386 -123 -22 -3 -108 -39 -191 -80 -160 -80
-183 -81 -38 -1 49 26 85 48 80 48 -19 0 -207 -102 -207 -113 0 -6 -30 -29
-65 -51 -36 -21 -68 -43 -71 -48 -3 -5 17 5 44 22 71 44 73 37 6 -25 -75 -69
-65 -72 13 -4 115 100 285 192 408 220 69 15 86 5 64 -38 -17 -34 -32 -47 -81
-73 -51 -27 -48 -41 4 -23 117 40 309 85 441 104 82 11 151 18 154 15 11 -10
-80 -85 -140 -114 -34 -17 -98 -38 -142 -47 -70 -13 -87 -14 -133 -2 -48 13
-54 13 -59 -2 -10 -35 -21 -45 -59 -57 -21 -7 -93 -28 -159 -48 -66 -20 -124
-42 -130 -50 -5 -7 -28 -19 -49 -26 -42 -14 -146 -60 -146 -64 0 -2 19 1 43 6
44 11 127 -4 127 -22 0 -5 14 -30 31 -55 17 -25 28 -52 25 -60 -3 -8 -27 -48
-54 -87 -52 -79 -111 -185 -141 -258 -18 -46 -19 -46 -96 -64 -86 -20 -114
-14 -134 30 -15 33 -25 30 -45 -13 -29 -65 -12 -107 45 -111 52 -3 110 12 181
49 34 17 64 26 74 22 13 -5 16 -3 11 10 -5 12 1 19 18 23 14 3 25 10 25 15 0
5 5 9 10 9 16 0 12 -30 -5 -36 -8 -4 -15 -17 -15 -30 0 -28 30 -33 53 -9 13
13 16 13 21 -1 3 -8 2 -12 -3 -9 -5 3 -12 1 -16 -5 -3 -6 0 -13 9 -16 8 -3 12
-13 9 -22 -3 -11 -2 -13 4 -6 4 6 19 17 31 23 13 7 21 15 18 18 -3 3 -12 0
-21 -7 -9 -7 -18 -10 -21 -7 -8 8 35 29 46 22 6 -3 20 1 32 9 18 13 19 16 5
16 -31 0 -18 17 26 34 23 9 46 16 50 16 15 0 6 -18 -15 -28 -13 -6 -17 -11
-10 -11 21 -1 73 29 67 39 -3 4 1 11 7 13 7 3 0 6 -17 6 -21 1 -26 4 -16 10
11 7 11 9 0 14 -8 3 2 6 21 8 31 2 29 3 -15 9 -41 6 -30 7 53 8 132 2 268 22
564 79 l237 47 -41 45 c-64 72 -84 132 -79 234 0 16 5 26 10 22 5 -3 13 4 16
16 7 21 10 22 139 15 142 -7 341 -33 368 -47 10 -5 17 -15 15 -22 -1 -7 3 -11
10 -10 16 4 27 -58 19 -110 -4 -23 -19 -62 -33 -86 l-26 -45 28 -22 c15 -12
25 -26 22 -31 -4 -6 5 -16 18 -23 20 -11 38 -11 97 -1 40 7 106 16 147 21 41
6 79 14 85 19 17 15 242 26 250 13 3 -6 -14 -20 -40 -32 -38 -19 -56 -22 -103
-17 -32 4 -66 9 -77 13 -15 5 -16 4 -4 -5 13 -9 12 -11 -2 -16 -13 -5 -14 -13
-7 -38 12 -42 11 -53 -4 -69 -7 -7 -13 -24 -13 -38 l-1 -26 56 19 c89 30 190
8 248 -55 53 -57 93 -179 93 -283 -1 -39 -4 -43 -125 -142 -70 -58 -133 -103
-145 -103 -60 0 -176 93 -218 175 l-21 40 -1 -30 -1 -30 -11 25 -11 25 -7 -35
c-4 -19 -8 -28 -9 -19 -2 29 -103 -15 -126 -54 -73 -123 -244 -180 -384 -127
l-60 22 -43 -33 c-24 -18 -64 -51 -90 -72 l-46 -39 -114 13 c-62 7 -171 13
-243 14 -126 1 -132 2 -195 33 -48 24 -96 38 -190 53 l-125 20 -20 -27 c-76
-104 -134 -143 -225 -151 -69 -7 -127 19 -159 70 -22 37 -51 144 -51 194 0 30
-21 53 -47 53 -4 0 -8 -44 -8 -98 0 -108 -8 -152 -29 -152 -24 0 -174 89 -181
107 -14 36 -17 164 -6 221 l12 60 -68 64 c-38 36 -88 83 -113 105 -42 39 -44
42 -28 60 9 10 21 37 27 59 6 23 21 56 34 75 48 71 88 141 84 146 -3 2 -18
-13 -33 -34 -45 -62 -48 -61 -16 2 29 58 61 95 82 95 6 0 10 4 10 8 0 30 270
261 355 304 77 40 116 78 80 78 -21 0 -44 -17 -212 -150 -56 -44 -113 -95
-127 -113 -14 -17 -26 -27 -26 -20 0 13 49 79 119 162 74 88 21 44 -65 -54
-129 -146 -137 -155 -147 -155 -5 0 -6 8 -3 17 6 15 4 15 -14 -2 -11 -10 -18
-20 -16 -23 5 -5 -20 -47 -94 -158 -62 -92 -82 -131 -46 -89 l25 30 -3 -45
c-3 -39 -10 -50 -50 -85 -43 -38 -48 -46 -71 -138 -13 -54 -30 -127 -36 -163
-13 -77 -39 -115 -66 -98 -31 19 -59 68 -112 201 -125 308 -217 457 -391 633
-109 110 -273 240 -336 266 -36 15 -88 12 -359 -22 -51 -6 -90 -41 -121 -108
-37 -80 -34 -90 28 -83 29 3 119 11 199 18 173 14 162 17 314 -104 55 -44 113
-86 130 -94 34 -17 163 -166 244 -281 50 -72 168 -298 160 -307 -2 -2 -30 3
-62 10 -32 7 -87 17 -122 20 -61 7 -65 9 -92 49 -45 66 -135 176 -144 176 -5
0 -15 15 -23 33 -7 17 -31 48 -52 67 -49 45 -256 200 -266 200 -9 0 0 -28 19
-55 17 -26 17 -29 -12 -64 -25 -29 -28 -30 -103 -27 -78 3 -151 28 -169 59 -4
8 -21 20 -38 28 -58 28 -38 58 40 59 38 0 60 14 52 33 -4 11 -17 14 -54 10
-101 -9 -113 -13 -119 -38 -3 -14 -10 -25 -16 -25 -18 0 -103 22 -120 31 -23
12 -45 2 -51 -24 -16 -63 -58 -425 -54 -453 3 -20 1 -34 -6 -37 -21 -7 -10
-128 24 -237 30 -101 32 -114 39 -355 8 -233 17 -315 40 -354 8 -14 9 -14 10
2 0 9 4 17 9 17 5 0 36 19 70 41 34 23 63 40 65 38 1 -2 12 -44 25 -94 12 -49
40 -129 62 -176 l41 -86 -31 -31 c-17 -17 -31 -26 -31 -21 0 6 -5 7 -11 3 -8
-4 -8 -9 0 -17 6 -6 11 -18 10 -26 0 -11 -2 -12 -6 -3 -2 6 -10 9 -15 6 -7 -4
-8 -2 -4 4 4 7 1 12 -9 12 -10 0 -14 -5 -10 -13 4 -6 -1 -3 -10 8 -9 11 -19
32 -22 47 -5 27 -29 55 -38 46 -2 -2 21 -47 53 -100 47 -80 59 -95 71 -85 12
10 13 9 3 -8 -11 -22 2 -60 17 -50 5 2 8 -3 7 -13 0 -9 5 -16 12 -14 8 1 11
-2 8 -7 -4 -5 11 -38 31 -73 l38 -63 5 49 c5 38 13 55 37 76 17 16 28 32 25
37 -4 5 7 -5 23 -23 33 -35 81 -121 73 -130 -3 -2 -39 -8 -81 -12 l-76 -7 18
-24 18 -24 119 12 c271 27 447 52 477 67 45 24 223 206 298 307 169 226 267
517 240 712 -6 43 -9 81 -5 84 3 3 44 -14 90 -39 l85 -45 75 -145 c248 -484
645 -808 1149 -940 189 -49 242 -55 505 -55 262 1 363 13 582 70 277 71 578
215 820 390 130 94 332 302 413 423 111 169 162 303 190 507 8 59 21 118 29
133 19 37 55 68 65 56 9 -10 40 -95 126 -339 79 -223 104 -284 135 -330 34
-50 152 -150 295 -250 175 -123 164 -119 345 -112 172 7 289 19 398 43 61 13
74 20 86 43 15 28 70 331 62 339 -7 7 -33 -54 -51 -119 -15 -55 -17 -57 -57
-63 -22 -4 -43 -5 -45 -2 -2 2 3 19 12 36 31 61 42 114 35 171 -13 93 -6 149
28 226 42 95 42 103 -8 103 l-40 0 0 55 c0 66 24 189 47 242 9 21 20 72 24
113 4 41 11 108 15 148 6 59 4 79 -11 113 l-18 40 -56 -6 c-31 -3 -107 -13
-169 -22 -62 -8 -115 -13 -118 -10 -2 2 17 28 42 56 35 39 44 55 34 61 -7 5
-11 18 -8 33 4 21 1 27 -16 30 -19 3 -18 5 9 16 17 7 53 18 80 26 31 8 49 18
49 26 -1 8 -16 56 -34 107 -17 52 -29 96 -26 99 3 3 10 -5 15 -18 l10 -24 1
25 1 25 11 -22 c10 -21 12 -22 25 -5 14 16 14 16 9 0 -7 -23 3 -23 20 0 13 16
13 16 14 -3 0 -13 3 -16 8 -8 5 7 21 -23 42 -78 l35 -90 75 1 c85 1 146 -11
143 -28 -2 -6 8 -14 22 -18 31 -8 31 -9 0 -50 -23 -31 -25 -38 -19 -104 l7
-72 23 54 c73 172 51 324 -72 483 -81 106 -161 298 -239 578 -14 47 -20 57
-38 57 -60 0 -555 -93 -583 -109 -45 -27 -392 -297 -441 -344 -30 -28 -51 -62
-69 -110 -36 -93 -103 -339 -144 -524 -21 -92 -39 -153 -46 -153 -6 0 -27 17
-45 38 l-34 37 0 -55 c0 -40 -4 -55 -14 -55 -29 0 -121 238 -121 314 0 52
-143 236 -353 456 -35 36 -47 44 -42 27 10 -36 -21 -39 -79 -8 -87 46 -245
208 -226 231 15 18 -246 140 -275 129 -48 -19 -346 58 -359 92 -3 9 -19 14
-43 13 -32 0 -34 -2 -17 -9 66 -26 12 -54 -91 -48 -80 5 -135 29 -135 58 0 25
-3 25 -75 -9z m330 -112 c51 -19 84 -44 72 -55 -3 -3 -31 0 -64 6 -32 6 -118
14 -191 17 -119 5 -132 8 -118 21 23 23 123 42 190 36 32 -3 82 -14 111 -25z
m-472 2 c17 -14 12 -43 -7 -39 -31 5 -270 -37 -355 -63 -103 -31 -97 -7 11 47
131 66 306 93 351 55z m892 -33 c135 -29 259 -140 215 -193 -18 -22 -28 -19
-121 25 -46 21 -137 56 -201 77 -102 33 -117 41 -118 60 0 50 86 62 225 31z
m2418 -130 c15 -50 25 -93 23 -96 -2 -2 -16 34 -31 80 -16 46 -30 89 -33 96
-2 6 0 12 5 12 5 0 21 -41 36 -92z m-2844 57 c46 -8 86 -17 89 -20 9 -9 -27
-41 -73 -64 -63 -31 -173 -39 -248 -17 -69 20 -127 67 -127 104 l0 25 138 -6
c75 -4 175 -13 221 -22z m2461 -25 c0 -25 -41 -89 -78 -122 -39 -35 -47 -38
-187 -65 l-30 -5 21 23 c25 27 54 82 64 119 6 22 15 27 91 41 105 21 119 22
119 9z m-2069 -85 c19 -8 27 -14 19 -14 -14 0 -72 28 -59 29 4 0 22 -7 40 -15z
m258 -165 c86 -43 158 -178 162 -302 2 -32 0 -60 -3 -63 -2 -3 -33 20 -69 51
-86 75 -196 152 -299 208 -46 26 -86 48 -87 50 -16 16 45 63 101 77 49 13 151
2 195 -21z m341 -89 c34 -26 120 -145 120 -165 0 -10 -202 181 -209 198 -7 17
54 -5 89 -33z m11 -158 c107 -111 139 -154 139 -185 0 -39 -24 -94 -47 -106
-16 -10 -14 -14 23 -49 51 -47 124 -150 124 -174 0 -10 -10 -25 -22 -34 -19
-13 -21 -18 -11 -34 13 -21 29 -121 19 -121 -3 0 -17 23 -31 50 -14 28 -30 50
-36 50 -6 0 -46 -29 -89 -65 -42 -35 -80 -62 -84 -58 -12 13 -6 150 10 196 8
25 27 57 41 71 l25 26 -56 72 c-31 40 -70 89 -87 108 -37 41 -25 49 31 20 23
-12 44 -19 46 -17 3 2 -14 31 -36 64 -22 33 -40 64 -40 68 0 4 -6 21 -14 38
-22 49 -36 108 -36 155 l0 44 38 -30 c20 -17 62 -57 93 -89z m234 -4 c20 -18
33 -34 30 -37 -3 -3 2 -13 10 -22 46 -51 107 -234 92 -274 -6 -15 -14 -8 -44
35 -20 30 -62 90 -94 134 -57 80 -77 134 -64 174 9 29 28 26 70 -10z m-1782
-30 l-7 -34 -7 30 -7 30 -1 -27 c-1 -31 -21 -39 -21 -9 0 21 23 45 33 34 4 -3
7 0 7 7 0 7 2 11 5 8 3 -3 2 -20 -2 -39z m937 -19 c0 -21 53 -85 68 -82 15 2
15 1 2 -8 -15 -10 -30 3 -81 73 -17 23 -18 27 -5 27 9 0 16 -4 16 -10z m-1593
-266 c-3 -3 -12 -4 -19 -1 -8 3 -5 6 6 6 11 1 17 -2 13 -5z m-82 -14 c-3 -5
-11 -10 -17 -10 -6 0 -17 -8 -25 -17 -10 -14 -13 -14 -11 -3 2 8 12 20 23 27
25 15 38 16 30 3z m32 -26 c-3 -3 -12 -4 -19 -1 -8 3 -5 6 6 6 11 1 17 -2 13
-5z m1812 -40 c-6 -8 -17 -14 -23 -14 -6 0 -3 7 6 14 10 7 14 17 10 21 -4 5
-1 5 6 1 10 -6 10 -11 1 -22z m-1879 6 c0 -5 -7 -10 -16 -10 -8 0 -12 5 -9 10
3 6 10 10 16 10 5 0 9 -4 9 -10z m-20 -29 c0 -5 -7 -14 -15 -21 -12 -10 -15
-10 -15 2 0 8 3 18 7 21 9 10 23 9 23 -2z m2720 -165 l29 -61 -21 -107 c-12
-60 -24 -108 -27 -108 -10 0 -26 14 -52 47 -63 76 -40 322 28 296 8 -3 27 -33
43 -67z m149 -151 c0 -31 -2 -36 -9 -20 -5 11 -9 38 -9 60 0 31 2 36 9 20 5
-11 9 -38 9 -60z m-3602 23 c11 -13 26 -39 32 -58 16 -46 27 -200 15 -200 -5
0 -42 33 -83 74 l-73 73 12 43 c11 40 48 90 68 90 5 0 18 -10 29 -22z m-600
-119 l101 -22 19 -46 c10 -25 20 -50 22 -55 2 -4 -6 -5 -17 -2 -11 4 -30 9
-41 11 -39 7 -136 33 -163 44 -17 6 -28 20 -33 40 -4 17 -11 33 -16 36 -16 11
-10 27 9 21 9 -2 63 -15 119 -27z m104 -386 c-11 -41 -34 -41 -57 2 -10 18 -8
20 27 23 36 2 37 1 30 -25z m2683 3 c27 -8 66 -27 89 -42 48 -31 46 -34 -71
-68 -93 -28 -180 -44 -289 -54 -98 -9 -102 -3 -46 59 49 54 100 86 166 104 68
18 94 18 151 1z m-702 -98 c25 -11 56 -31 69 -44 21 -22 21 -24 3 -24 -31 0
-286 39 -319 48 l-30 8 45 17 c82 30 152 28 232 -5z m-2972 -680 l53 -91 -24
-19 c-13 -10 -29 -22 -35 -27 -13 -11 -34 5 -34 26 0 7 -10 18 -22 24 -18 10
-24 8 -36 -7 -13 -18 -14 -18 -8 3 4 12 2 30 -5 41 -15 25 -5 82 22 116 11 14
24 26 28 26 5 0 32 -41 61 -92z"/>
<path d="M3073 3968 c-18 -6 -33 -15 -33 -20 0 -4 17 -1 37 7 61 25 58 33 -4
13z"/>
<path d="M2449 3623 c-13 -16 -12 -17 4 -4 9 7 17 15 17 17 0 8 -8 3 -21 -13z"/>
<path d="M2365 3588 c-27 -22 -49 -47 -49 -54 1 -8 -1 -12 -5 -10 -3 2 -12 -2
-18 -10 -9 -9 -10 -15 -2 -20 6 -3 25 7 42 23 48 45 93 89 83 81 -21 -16 -28
-7 -11 12 27 30 15 24 -40 -22z m15 -14 c-8 -8 -23 -20 -34 -26 -18 -10 -17
-7 4 15 27 28 51 38 30 11z"/>
<path d="M221 3537 c-13 -6 -30 -23 -39 -37 -12 -22 -12 -23 0 -8 8 10 19 14
23 10 5 -4 5 -2 2 4 -10 17 16 24 90 24 78 0 79 5 3 13 -35 4 -64 2 -79 -6z"/>
<path d="M2395 3387 c-84 -51 -136 -91 -132 -101 3 -7 8 -38 12 -69 l7 -56 24
17 c13 9 24 22 24 27 0 21 58 131 84 163 28 33 19 42 -19 19z"/>
<path d="M112 3295 c0 -16 2 -22 5 -12 2 9 2 23 0 30 -3 6 -5 -1 -5 -18z"/>
<path d="M2090 3172 c-40 -39 -40 -39 -40 -113 0 -41 -4 -90 -10 -108 -11 -40
-9 -45 19 -36 18 5 21 15 21 56 0 53 52 218 73 231 8 5 7 8 -5 8 -9 0 -35 -17
-58 -38z"/>
<path d="M91 3174 c0 -11 3 -14 6 -6 3 7 2 16 -1 19 -3 4 -6 -2 -5 -13z"/>
<path d="M2943 2973 c9 -2 17 -8 17 -13 0 -5 8 -6 17 -3 15 6 15 7 -3 14 -10
4 -26 7 -34 7 -10 0 -9 -2 3 -5z"/>
<path d="M2570 2880 c-7 -5 -2 -9 14 -12 15 -3 29 -2 31 2 7 11 -30 19 -45 10z"/>
<path d="M4510 2855 c-7 -9 -8 -15 -2 -15 5 0 12 7 16 15 3 8 4 15 2 15 -2 0
-9 -7 -16 -15z"/>
<path d="M2525 2850 c-3 -5 -2 -10 4 -10 5 0 13 5 16 10 3 6 2 10 -4 10 -5 0
-13 -4 -16 -10z"/>
<path d="M2470 2830 c-18 -12 -2 -12 25 0 13 6 15 9 5 9 -8 0 -22 -4 -30 -9z"/>
<path d="M2640 2830 c0 -5 5 -10 10 -10 6 0 10 5 10 10 0 6 -4 10 -10 10 -5 0
-10 -4 -10 -10z"/>
<path d="M2687 2823 c-12 -12 -7 -22 8 -17 8 4 15 10 15 15 0 11 -14 12 -23 2z"/>
<path d="M2630 2785 c-8 -9 -7 -14 4 -18 10 -4 13 -1 10 8 -4 10 0 12 15 8 12
-3 21 -3 21 0 0 12 -40 14 -50 2z"/>
<path d="M2528 2783 c7 -3 16 -2 19 1 4 3 -2 6 -13 5 -11 0 -14 -3 -6 -6z"/>
<path d="M2560 2773 l-25 -15 25 6 c14 3 28 6 33 6 4 0 7 5 7 10 0 13 -9 11
-40 -7z"/>
<path d="M2608 2753 c7 -3 16 -2 19 1 4 3 -2 6 -13 5 -11 0 -14 -3 -6 -6z"/>
<path d="M4450 2759 c0 -2 -4 -19 -9 -37 -5 -17 -6 -32 -1 -32 8 0 21 62 14
69 -2 2 -4 2 -4 0z"/>
<path d="M4410 2720 c-9 -16 -8 -18 5 -14 8 4 15 12 15 20 0 20 -7 17 -20 -6z"/>
<path d="M7184 2525 c-4 -15 1 -71 10 -126 22 -133 22 -129 -19 -129 -35 0
-35 0 -34 -42 0 -24 4 -61 8 -83 l8 -40 27 60 c40 87 46 141 29 269 -8 61 -16
112 -18 114 -2 3 -7 -8 -11 -23z"/>
<path d="M180 1551 c0 -6 4 -13 10 -16 6 -3 7 1 4 9 -7 18 -14 21 -14 7z"/>
<path d="M212 1485 c6 -14 13 -24 14 -22 6 6 -9 47 -17 47 -5 0 -3 -11 3 -25z"/>
</g>
</svg>
