<?xml version="1.0" standalone="no"?>
<!DOCTYPE svg PUBLIC "-//W3C//DTD SVG 20010904//EN"
 "http://www.w3.org/TR/2001/REC-SVG-20010904/DTD/svg10.dtd">
<svg version="1.0" xmlns="http://www.w3.org/2000/svg"
 width="1280.000000pt" height="1280.000000pt" viewBox="0 0 1280.000000 1280.000000"
 preserveAspectRatio="xMidYMid meet">

<g transform="translate(0.000000,1280.000000) scale(0.100000,-0.100000)"
fill="#000000" stroke="none">
<path d="M6773 11364 c50 -16 77 -30 77 -39 0 -13 -45 -15 -312 -13 -172 0
-378 -2 -458 -5 -80 -3 -284 -10 -455 -16 -274 -9 -530 -31 -545 -48 -3 -3 27
-3 65 1 192 18 534 25 775 14 140 -5 262 -10 270 -10 8 0 89 7 180 17 219 22
705 32 727 14 8 -7 27 -12 43 -11 15 1 33 -5 40 -13 7 -8 16 -13 20 -10 5 3
34 -5 65 -17 39 -15 55 -26 53 -37 -3 -13 -18 -16 -93 -14 -50 1 -124 2 -165
2 -41 1 -133 8 -205 16 -294 32 -398 26 -170 -9 201 -32 497 -95 710 -152 299
-80 324 -85 362 -73 26 8 39 6 75 -13 l43 -22 -40 -6 c-39 -5 -36 -6 90 -54
351 -132 730 -323 954 -479 97 -69 212 -166 287 -244 34 -35 67 -63 73 -63 6
0 16 -11 21 -25 6 -16 14 -23 25 -19 8 3 15 2 15 -4 0 -5 16 -26 36 -47 32
-34 34 -39 20 -53 -14 -14 -19 -12 -51 22 -19 21 -35 45 -36 54 0 14 -2 14 -8
-2 -7 -18 -12 -16 -53 22 -25 23 -50 42 -55 42 -6 0 -26 16 -46 35 -20 19 -41
35 -47 35 -5 0 -10 6 -10 14 0 7 -20 21 -45 30 -24 10 -47 25 -50 35 -3 10
-24 28 -48 40 -23 12 -57 33 -76 47 -19 13 -39 23 -45 21 -6 -2 -22 4 -36 13
-14 9 -63 38 -110 63 -54 29 -91 57 -102 75 -15 25 -25 30 -70 34 -32 3 -85
20 -133 42 -44 21 -97 45 -117 53 -21 8 -38 20 -38 25 0 6 -7 8 -15 4 -8 -3
-15 -2 -15 3 0 5 -17 11 -37 14 -21 4 -49 14 -63 24 -27 19 -115 53 -138 53
-7 0 -20 7 -29 16 -9 8 -22 13 -30 10 -8 -4 -35 3 -60 14 -25 11 -53 20 -62
20 -9 0 -29 7 -45 15 -15 8 -37 15 -47 15 -11 0 -36 8 -57 17 -20 9 -41 17
-47 18 -25 3 -82 17 -100 24 -11 4 -60 18 -110 30 -63 15 -97 29 -116 47 -23
22 -33 25 -56 19 -36 -10 -115 -8 -122 2 -3 4 -26 9 -51 11 -25 2 -46 7 -48
12 -2 6 -25 10 -51 10 -26 0 -62 7 -79 15 -17 9 -70 19 -119 22 -55 3 -94 11
-105 20 -10 9 -25 12 -37 8 -15 -4 -31 1 -52 19 -35 29 -73 33 -115 11 -32
-17 -87 -20 -112 -6 -18 9 -159 20 -357 26 -153 5 -222 14 -236 31 -16 20 -49
17 -74 -6 -20 -18 -38 -21 -211 -24 -108 -3 -255 -13 -344 -25 -85 -11 -186
-23 -224 -26 -38 -2 -83 -9 -100 -15 -17 -6 -85 -22 -151 -36 -66 -14 -174
-42 -240 -62 -66 -19 -133 -37 -150 -39 -16 -3 -58 -14 -93 -25 -35 -11 -65
-18 -68 -15 -7 7 61 58 140 105 39 23 67 42 63 42 -22 0 -231 -119 -402 -228
-73 -47 -225 -160 -225 -167 0 -5 -4 -7 202 74 135 53 373 119 385 108 8 -9
-28 -36 -102 -77 -41 -23 -77 -46 -81 -51 -3 -6 -26 -19 -50 -29 -24 -11 -44
-24 -44 -30 0 -5 -9 -10 -20 -10 -11 0 -23 -7 -27 -16 -3 -8 -30 -27 -61 -42
-30 -14 -69 -40 -86 -57 -44 -44 -102 -86 -123 -89 -10 -2 -18 -7 -18 -13 0
-5 -41 -44 -91 -86 -50 -42 -136 -120 -190 -173 -54 -54 -102 -97 -107 -96 -4
1 -12 -8 -16 -20 -5 -13 -28 -43 -51 -68 -23 -24 -46 -52 -51 -62 -6 -10 -14
-16 -20 -13 -5 4 -8 2 -7 -2 3 -8 -118 -180 -164 -235 -10 -12 -18 -24 -18
-29 0 -8 -101 -165 -120 -187 -20 -22 -94 -154 -149 -262 -29 -58 -63 -125
-76 -150 -13 -25 -33 -65 -43 -90 -11 -25 -26 -61 -35 -80 -8 -19 -30 -73 -47
-120 -18 -47 -36 -89 -40 -95 -8 -12 -46 -128 -85 -265 -15 -52 -35 -124 -46
-160 -10 -36 -24 -90 -30 -120 -6 -30 -16 -64 -22 -75 -6 -11 -11 -61 -12
-110 -1 -69 -6 -99 -20 -122 -15 -26 -16 -34 -6 -47 7 -8 10 -19 7 -24 -14
-22 -25 -529 -12 -550 3 -5 7 -62 8 -126 2 -64 5 -116 9 -116 11 0 -8 -106
-25 -138 l-17 -34 40 -38 c50 -48 58 -75 31 -118 -27 -45 -43 -48 -82 -18 -32
24 -35 32 -56 148 -26 141 -48 307 -62 458 -8 92 -8 82 -4 -80 2 -102 10 -218
18 -257 7 -40 11 -74 9 -76 -2 -3 1 -45 7 -96 8 -74 8 -98 -4 -125 -8 -19 -12
-36 -10 -39 3 -3 -8 -9 -24 -15 -27 -9 -32 -7 -53 21 -26 36 -37 140 -38 361
-1 71 -4 127 -7 124 -3 -4 -5 -104 -5 -225 0 -195 -2 -225 -21 -279 -14 -43
-19 -72 -14 -98 4 -20 9 -36 12 -36 2 0 30 13 62 29 149 75 351 120 544 123
l106 2 38 65 c31 52 39 78 42 127 4 53 1 65 -17 83 -16 16 -32 21 -59 19 -33
-3 -40 -8 -60 -48 -19 -39 -22 -55 -17 -120 3 -41 2 -70 -2 -64 -17 23 -58 43
-78 38 -49 -12 -57 64 -18 176 12 36 16 110 19 362 4 301 6 324 34 470 30 158
62 298 79 356 6 19 7 48 4 64 -4 21 -3 29 5 24 6 -4 22 32 42 96 67 218 143
415 260 673 79 176 111 234 148 274 13 14 76 100 139 191 177 253 266 362 418
515 423 423 974 740 1697 974 336 109 901 230 1009 216 19 -2 86 -9 149 -15
135 -13 424 -59 595 -94 578 -118 1148 -313 1602 -547 227 -117 247 -132 366
-269 480 -552 881 -1253 1185 -2070 35 -94 24 -44 -24 109 -68 214 -176 481
-279 687 l-90 181 52 47 c29 26 57 45 63 41 12 -8 86 -151 125 -245 15 -36 35
-83 45 -105 75 -167 157 -418 226 -690 45 -179 53 -200 30 -75 -18 91 -23 199
-10 201 14 2 73 -154 99 -261 21 -88 49 -257 75 -459 13 -99 18 -483 7 -589
-4 -39 -16 -115 -27 -168 -11 -53 -20 -106 -20 -118 0 -12 -6 -31 -14 -41 -11
-16 -17 -17 -29 -7 -13 11 -15 56 -16 290 -1 153 -6 345 -11 427 -5 83 -10
157 -10 166 0 8 -6 23 -12 32 -11 14 -13 -36 -12 -260 1 -153 5 -325 9 -383 9
-107 8 -241 -1 -272 -7 -22 -22 -23 -44 -3 -16 14 -18 13 -24 -24 -3 -21 -8
-46 -11 -54 -5 -12 16 -15 122 -20 131 -6 220 -24 346 -70 l67 -25 0 49 c0 39
-3 47 -15 43 -30 -12 -38 43 -20 136 11 56 19 156 21 290 3 113 8 261 13 330
11 151 1 276 -40 500 -97 528 -190 860 -356 1265 -52 128 -163 354 -189 384
-10 11 -19 26 -20 33 -8 59 -348 531 -378 525 -6 -1 -10 3 -9 10 2 6 -16 28
-40 49 -23 20 -35 33 -27 29 8 -4 -16 24 -54 63 -38 39 -74 70 -80 69 -6 -1
-10 3 -9 9 2 11 -87 95 -212 199 -88 74 -101 83 -90 66 11 -18 -2 -11 -87 52
-37 27 -65 54 -62 59 3 5 0 8 -7 7 -19 -4 -61 20 -54 31 9 14 -222 156 -435
267 -41 21 -94 47 -118 56 -36 14 -272 173 -272 182 0 2 26 1 58 -2 55 -5 56
-5 34 12 -60 44 -324 146 -339 131 -2 -2 25 -20 60 -40 163 -90 456 -302 591
-425 34 -31 108 -102 166 -160 77 -77 100 -106 88 -108 -23 -6 -40 4 -203 112
-77 52 -196 125 -265 164 -69 39 -152 90 -186 115 -33 24 -78 52 -99 60 -21 9
-58 34 -82 56 -23 22 -54 46 -68 52 -13 6 -22 15 -19 19 3 5 -6 9 -19 9 -13 0
-35 8 -48 19 -13 10 -73 42 -134 71 -60 29 -119 57 -129 62 -98 51 -446 144
-626 168 -47 6 -125 20 -175 31 -119 26 -137 23 -42 -7z m-1254 -353 c10 -7 8
-12 -10 -25 -13 -9 -29 -16 -37 -16 -7 0 -34 -9 -59 -21 -25 -11 -72 -25 -104
-30 -33 -5 -78 -19 -102 -32 -34 -17 -56 -21 -113 -20 -67 2 -75 0 -110 -28
-22 -17 -42 -37 -46 -44 -4 -7 -19 -16 -34 -19 -32 -8 -259 -105 -373 -158
-47 -22 -102 -41 -124 -42 -31 -2 -45 -10 -70 -38 -18 -19 -83 -65 -145 -102
-62 -37 -145 -88 -185 -114 -40 -25 -85 -53 -101 -61 -16 -8 -43 -30 -61 -48
-18 -18 -37 -33 -44 -33 -6 0 -11 -3 -11 -7 0 -5 -36 -37 -80 -73 -178 -145
-421 -400 -515 -542 -21 -32 -39 -58 -41 -58 -15 0 135 291 205 398 72 109
134 177 270 295 193 168 370 294 596 422 254 145 630 311 805 355 131 34 457
61 489 41z m-1339 -374 c-324 -197 -501 -327 -662 -486 -60 -58 -108 -101
-108 -96 0 6 27 42 59 81 103 124 357 313 624 464 126 71 184 96 87 37z m4908
-313 c12 -8 22 -12 22 -7 0 4 7 -1 16 -12 8 -11 18 -20 22 -20 14 0 112 -77
123 -96 5 -10 14 -19 18 -19 5 0 24 -12 42 -27 42 -36 329 -320 329 -327 0 -2
23 -28 50 -56 28 -28 50 -56 50 -61 0 -12 59 -89 102 -133 15 -15 28 -34 28
-40 0 -7 11 -23 25 -36 14 -13 25 -28 25 -34 0 -5 8 -19 19 -30 27 -31 124
-204 193 -346 69 -143 183 -428 198 -496 6 -26 20 -66 31 -90 11 -25 24 -63
29 -87 5 -23 21 -78 36 -121 23 -68 25 -84 15 -111 -17 -48 -14 -62 18 -86 28
-21 40 -54 46 -124 1 -11 4 -27 8 -35 13 -31 41 -223 68 -470 14 -119 17 -471
5 -610 -8 -104 -28 -258 -42 -315 -13 -59 -83 -85 -119 -45 -16 18 -17 27 -6
107 68 512 19 1091 -135 1613 -19 63 -42 141 -51 173 -19 66 -33 59 -33 -18 0
-49 0 -49 -19 -30 -16 16 -48 105 -66 185 -1 8 -8 33 -13 55 -6 22 -10 47 -9
55 3 28 -14 148 -29 196 -18 59 -136 297 -206 412 -55 92 -86 138 -179 267
-31 44 -74 114 -95 155 -20 41 -54 100 -74 130 -20 30 -53 80 -73 110 -32 48
-126 145 -318 326 -78 73 -114 142 -51 98z m319 -424 c-6 -25 -3 -30 14 -30
19 0 37 -25 26 -36 -11 -11 -56 31 -57 52 0 11 -5 25 -12 32 -9 9 -7 12 11 12
21 0 23 -4 18 -30z m-142 -52 c128 -92 274 -239 341 -343 109 -172 209 -358
202 -377 -4 -10 -28 -17 -74 -21 l-68 -7 -31 37 c-16 21 -30 42 -31 48 -1 29
-17 56 -30 51 -10 -4 -14 2 -14 18 0 12 -9 31 -19 40 -11 10 -19 25 -18 34 2
28 -32 72 -50 65 -12 -5 -15 -2 -10 10 3 9 1 19 -5 23 -7 5 -8 2 -3 -7 5 -8 4
-11 0 -6 -5 4 -11 20 -13 34 -4 36 -20 63 -34 60 -6 -1 -15 12 -19 29 -5 17
-31 54 -59 83 -27 28 -53 64 -56 79 -4 15 -35 66 -69 113 l-63 86 47 -13 c25
-8 60 -24 76 -36z m-6005 7 c-7 -8 -16 -15 -21 -15 -5 0 -6 7 -3 15 4 8 13 15
21 15 13 0 13 -3 3 -15z m6207 -47 c-3 -8 -6 -5 -6 6 -1 11 2 17 5 13 3 -3 4
-12 1 -19z m116 -219 c7 -28 -13 -10 -37 33 l-19 33 25 -23 c15 -13 28 -33 31
-43z m142 -161 c124 -173 290 -494 325 -631 6 -23 14 -51 17 -62 6 -20 5 -20
-16 -1 -30 27 -80 123 -136 260 -27 65 -64 144 -83 175 -53 87 -142 256 -142
269 0 19 18 14 35 -10z m-6777 -108 c-13 -22 -24 -35 -26 -30 -3 8 37 70 45
70 2 0 -7 -18 -19 -40z m-38 -58 c0 -10 -22 -32 -32 -32 -5 0 -3 9 4 20 13 20
28 27 28 12z m-380 -806 c-10 -30 -25 -70 -33 -88 -13 -28 -100 -327 -112
-381 -2 -10 -7 -28 -11 -40 -4 -12 -9 -33 -11 -47 -2 -14 -5 -34 -7 -45 -2
-11 -4 -29 -5 -40 -1 -17 -3 -18 -12 -5 -8 12 -9 9 -5 -12 4 -15 0 -46 -8 -69
-8 -23 -12 -48 -9 -55 3 -8 1 -14 -5 -14 -12 0 -32 -98 -20 -102 5 -2 5 -15
-1 -31 -6 -16 -11 -45 -12 -65 0 -30 -2 -33 -9 -17 -5 11 -6 81 -3 155 5 142
34 283 73 366 11 22 20 47 20 55 0 9 15 51 34 95 19 43 44 115 56 159 12 44
25 89 29 100 19 48 61 135 65 135 3 0 -4 -25 -14 -54z m8190 -960 c0 -51 -6
-43 -14 19 -4 34 -3 45 4 35 5 -8 10 -33 10 -54z m-8150 -708 c0 -2 -11 -34
-24 -73 -27 -82 -51 -98 -58 -38 -7 57 32 125 53 92 7 -11 9 -10 9 4 0 9 5 17
10 17 6 0 10 -1 10 -2z"/>
<path d="M10560 7355 c0 -8 7 -15 15 -15 8 0 15 7 15 15 0 8 -7 15 -15 15 -8
0 -15 -7 -15 -15z"/>
<path d="M9607 9323 c-12 -11 -8 -23 8 -23 8 0 15 7 15 15 0 16 -12 20 -23 8z"/>
<path d="M4847 11228 c-59 -17 -106 -32 -104 -34 2 -2 75 7 163 20 126 19 147
24 101 25 -36 1 -56 5 -52 11 3 6 5 10 3 9 -2 0 -52 -14 -111 -31z"/>
<path d="M7927 11073 c-4 -3 -7 -15 -7 -25 0 -12 7 -18 24 -18 24 0 41 23 30
41 -6 10 -38 12 -47 2z"/>
<path d="M8004 11016 c-8 -22 3 -33 18 -18 9 9 9 15 0 24 -9 9 -13 7 -18 -6z"/>
<path d="M1996 8068 c-10 -40 -26 -109 -36 -153 -37 -154 -51 -231 -71 -400
-20 -163 -39 -406 -33 -414 5 -6 13 61 19 159 7 112 23 208 40 233 11 16 13
13 19 -20 3 -21 6 -71 6 -110 0 -40 3 -73 8 -73 4 0 8 98 8 218 2 263 3 282
45 516 10 60 17 111 15 113 -2 2 -11 -29 -20 -69z"/>
<path d="M10282 7830 c0 -14 2 -19 5 -12 2 6 2 18 0 25 -3 6 -5 1 -5 -13z"/>
<path d="M10292 7780 c0 -14 2 -19 5 -12 2 6 2 18 0 25 -3 6 -5 1 -5 -13z"/>
<path d="M1852 7070 c0 -14 2 -19 5 -12 2 6 2 18 0 25 -3 6 -5 1 -5 -13z"/>
<path d="M2345 6383 c-11 -2 -29 -8 -40 -13 -11 -4 -47 -14 -80 -20 -33 -7
-78 -16 -100 -21 -22 -6 -49 -11 -60 -13 -38 -7 -76 -26 -81 -40 -3 -8 -22
-21 -43 -29 -51 -21 -116 -107 -81 -107 6 0 33 11 60 25 155 78 348 129 534
140 33 2 64 9 70 15 7 7 5 10 -7 10 -24 0 -21 17 3 25 11 4 18 10 15 14 -8 14
-93 21 -121 11 -15 -6 -31 -7 -38 -2 -6 5 -20 7 -31 5z"/>
<path d="M10225 6290 c-3 -5 -19 -7 -36 -3 -49 9 -220 -35 -244 -64 -31 -38
-138 -63 -265 -63 -117 0 -247 -11 -485 -40 -88 -11 -189 -21 -225 -21 -36 -1
-83 -6 -104 -11 -73 -18 -55 29 25 66 8 3 -2 4 -20 1 -104 -16 -143 -17 -150
-6 -5 8 -15 8 -38 0 -17 -5 -51 -9 -74 -7 l-44 3 35 12 c31 10 32 11 10 13
-14 0 21 16 80 35 187 59 219 76 109 55 -30 -6 -135 -22 -234 -35 -99 -14
-261 -36 -360 -50 -326 -45 -520 -59 -533 -38 -6 9 -21 9 -67 -3 -33 -9 -74
-13 -94 -9 -25 4 -32 3 -21 -4 19 -13 13 -18 -33 -26 -34 -7 -39 -5 -44 14 -3
11 -9 21 -14 21 -5 0 -6 -6 -3 -14 4 -10 -15 -15 -82 -20 -47 -4 -88 -6 -90
-4 -4 5 75 35 229 89 70 25 114 45 107 49 -8 5 1 12 24 20 102 33 -25 13 -401
-65 -209 -42 -215 -43 -208 -12 9 34 -20 57 -42 34 -13 -13 -14 -21 -5 -41 10
-22 8 -25 -15 -31 -19 -4 -29 -2 -35 9 -13 23 -49 20 -55 -4 -5 -18 -13 -20
-87 -18 -44 1 -83 5 -86 9 -3 4 -39 -4 -80 -18 -58 -19 -98 -25 -176 -26 -73
-2 -100 1 -97 10 4 9 113 56 268 113 22 8 26 13 16 20 -10 5 0 14 35 31 l49
23 -35 4 c-21 2 -170 -31 -370 -82 -184 -46 -366 -87 -405 -91 -38 -4 -85 -12
-103 -18 -30 -10 -36 -9 -48 7 -13 18 -15 18 -76 -5 -50 -19 -82 -24 -156 -24
-69 0 -86 2 -70 10 13 5 29 15 36 22 7 7 58 34 114 60 55 26 95 49 89 51 -8 3
-6 9 6 18 16 12 10 13 -51 14 -54 0 -111 -12 -275 -59 -321 -92 -440 -111
-433 -68 4 22 7 22 -74 -14 -43 -20 -70 -27 -72 -20 -2 6 -8 11 -13 11 -6 0
-7 -5 -3 -11 3 -6 1 -15 -7 -19 -18 -12 -169 -12 -169 0 0 5 56 39 124 77 68
37 123 70 121 74 -2 3 17 15 42 28 25 12 43 24 40 27 -7 8 -378 -97 -540 -153
-73 -24 -154 -47 -182 -50 -27 -4 -56 -12 -63 -20 -32 -31 -54 -5 -32 38 13
24 13 24 -52 -6 -63 -29 -113 -34 -104 -9 5 13 1 15 -21 11 l-28 -5 24 17 c13
9 61 39 107 68 47 28 79 53 72 55 -8 3 0 12 17 21 98 53 -118 -20 -260 -88
-234 -112 -309 -145 -365 -161 -92 -26 -99 -17 -37 46 30 30 62 61 73 68 10 7
3 5 -16 -5 -19 -9 -62 -20 -95 -24 -33 -4 -77 -11 -98 -15 -32 -6 -36 -4 -31
9 6 16 38 37 154 100 109 59 155 87 145 87 -29 0 -162 -44 -255 -85 -241 -106
-351 -145 -372 -134 -14 8 -19 18 -15 35 3 20 0 24 -19 24 -13 0 -24 5 -24 10
0 6 5 10 12 10 21 0 -5 18 -32 22 l-25 3 25 23 c14 13 36 28 50 34 16 6 20 12
12 16 -7 5 8 15 39 27 64 25 75 40 23 32 -21 -4 -106 -12 -188 -18 -144 -10
-150 -11 -175 -38 -23 -25 -36 -29 -111 -35 -94 -8 -165 -23 -195 -42 -11 -7
-38 -16 -60 -20 -22 -4 -74 -20 -115 -35 -41 -16 -84 -29 -96 -29 -12 0 -24
-5 -26 -10 -2 -6 -19 -16 -38 -23 -42 -15 -100 -49 -100 -58 0 -4 9 -11 20
-14 24 -8 26 -41 5 -69 -8 -11 -15 -25 -15 -30 0 -6 8 -1 18 12 37 48 357 191
465 207 26 4 50 11 53 16 3 5 16 9 29 9 14 0 59 9 102 21 75 21 77 21 90 3 8
-11 13 -35 11 -54 -3 -29 -8 -36 -33 -43 -16 -5 -57 -17 -90 -28 -33 -10 -73
-19 -88 -19 -15 0 -47 -10 -70 -21 -23 -12 -55 -22 -70 -21 -16 0 -26 -2 -23
-5 5 -5 -72 -40 -189 -87 -44 -17 -115 -65 -121 -81 -3 -8 1 -22 10 -30 14
-15 14 -19 1 -38 -25 -36 -16 -44 11 -9 30 38 72 62 109 62 42 0 43 -29 2 -67
-21 -18 -37 -36 -37 -40 0 -4 -14 -22 -32 -40 l-31 -32 26 -10 c18 -7 36 -7
52 -1 36 14 31 -2 -14 -47 -92 -91 -70 -237 53 -357 72 -71 119 -91 256 -110
166 -23 440 -78 434 -88 -19 -30 -371 18 -488 67 -15 7 -18 5 -14 -7 4 -8 10
-36 13 -62 6 -39 5 -46 -9 -46 -27 0 -66 -46 -66 -77 0 -27 37 -98 79 -153 11
-14 21 -46 24 -72 4 -41 2 -48 -14 -48 -48 0 -64 -71 -30 -138 11 -20 37 -55
59 -77 21 -22 53 -66 70 -98 30 -58 31 -59 8 -53 -36 9 -66 -19 -66 -63 0 -51
45 -119 114 -171 31 -23 56 -47 56 -52 0 -5 -16 -6 -35 -2 -27 5 -41 2 -55
-11 -29 -26 -25 -64 13 -120 17 -26 44 -69 58 -94 14 -25 53 -70 85 -99 l59
-54 -38 7 c-86 14 -116 -56 -55 -129 25 -31 31 -47 29 -75 -2 -29 5 -44 34
-78 l36 -42 -21 -29 c-20 -27 -21 -31 -7 -64 18 -42 62 -77 139 -113 l56 -26
-24 -24 c-21 -22 -24 -31 -20 -88 7 -112 76 -210 209 -299 35 -24 97 -65 137
-92 184 -123 487 -205 830 -225 117 -7 154 -13 187 -29 211 -108 651 -184 972
-169 112 5 116 5 195 -28 219 -90 361 -117 650 -123 237 -4 321 2 541 40 111
19 129 20 258 8 236 -22 595 7 807 65 39 10 108 15 235 16 99 0 218 4 265 9
47 5 175 14 285 20 225 11 397 31 530 62 283 65 567 207 767 385 80 70 178
184 178 207 0 7 29 38 65 70 78 69 117 130 113 180 -1 21 4 42 14 53 21 25 48
79 48 98 0 25 -46 65 -76 65 -25 0 -24 2 24 45 63 57 94 106 90 142 -4 36 -42
42 -105 18 -59 -23 -64 -13 -11 18 91 53 177 170 164 223 -5 17 2 36 24 65 33
47 41 108 15 129 -8 7 -33 12 -55 12 l-40 -1 19 26 c11 14 41 43 67 66 102 90
87 181 -26 165 -17 -3 -30 -3 -30 0 0 9 65 87 80 96 8 5 34 29 58 53 65 67 57
117 -21 130 l-35 5 44 57 c58 75 71 117 46 151 -19 24 -19 24 24 77 47 58 63
108 44 143 -10 19 -18 22 -53 17 -23 -3 -52 -9 -65 -13 -36 -10 -18 15 45 65
49 38 58 42 80 32 46 -21 91 -5 64 22 -6 6 -11 24 -11 39 0 33 24 47 51 29 11
-6 19 -8 19 -5 0 16 -43 74 -66 89 -35 22 -24 31 15 11 37 -19 71 -21 71 -3 0
7 -9 32 -20 55 -25 51 -25 48 5 68 24 16 27 16 45 -1 11 -10 20 -15 20 -11 0
17 -41 64 -79 91 -56 38 -51 49 10 25 30 -12 60 -18 72 -14 20 6 20 8 -9 33
-39 35 -74 85 -74 105 0 26 45 42 78 27 l27 -11 -30 25 c-16 13 -42 30 -57 36
-16 6 -28 15 -28 20 0 12 8 11 69 -7 64 -19 83 -9 57 30 -9 15 -21 26 -26 26
-5 0 -26 11 -46 25 -66 45 -137 74 -244 100 -58 14 -128 32 -156 40 -28 8 -63
15 -79 15 -30 0 -127 -26 -158 -41 -42 -22 -32 77 10 111 23 18 39 21 106 19
56 -1 81 2 87 11 10 17 81 6 96 -15 6 -8 26 -15 47 -15 31 0 215 -57 260 -82
10 -5 48 -17 85 -27 37 -11 77 -22 90 -26 24 -8 30 7 10 25 -29 24 -90 60
-101 60 -20 -1 -211 64 -218 74 -4 5 -11 6 -17 2 -10 -6 -62 8 -93 24 -9 4
-37 8 -62 8 -25 0 -52 4 -59 8 -7 5 -42 13 -78 19 -57 9 -66 14 -74 37 -7 18
-6 35 2 53 11 23 17 25 74 25 153 0 366 -53 505 -126 37 -19 84 -37 105 -41
25 -3 51 -17 70 -37 23 -22 28 -25 20 -9 -14 25 -83 83 -127 106 -39 21 -16
21 57 1 42 -12 62 -14 70 -6 7 7 -2 16 -30 31 -23 12 -49 21 -58 21 -9 0 -28
6 -42 14 -15 8 -81 26 -147 41 -66 15 -140 34 -165 42 -25 8 -100 17 -168 20
-110 5 -124 8 -137 27 -19 27 -19 56 1 84 14 21 21 22 112 17 129 -6 209 -14
256 -27 22 -5 60 -13 85 -18 26 -4 80 -17 121 -28 41 -11 77 -18 79 -16 2 2
-1 4 -7 4 -7 0 -12 5 -12 11 0 7 16 8 46 3 45 -6 46 -6 32 15 -7 12 -31 26
-53 32 -22 6 -48 19 -58 30 -10 10 -28 21 -40 23 -61 13 -222 36 -247 36 -16
0 -32 5 -35 10 -8 13 -62 13 -70 0z m-6385 -229 c0 -5 -7 -11 -15 -15 -15 -5
-20 5 -8 17 9 10 23 9 23 -2z m6337 -7 c-3 -3 -12 -4 -19 -1 -8 3 -5 6 6 6 11
1 17 -2 13 -5z m-6823 -59 c-4 -8 -13 -15 -22 -15 -13 0 -12 3 4 15 24 18 25
18 18 0z m-652 -59 c7 -18 7 -31 -4 -52 l-13 -29 -114 2 c-108 1 -115 2 -118
22 -2 15 2 21 16 21 30 0 51 11 51 26 0 8 6 11 15 8 8 -4 22 -1 30 6 8 7 32
18 52 25 44 15 68 6 85 -29z m-262 -51 c0 -9 -6 -12 -16 -8 -8 3 -25 -4 -38
-16 -15 -15 -26 -19 -31 -12 -9 16 2 30 38 45 35 15 47 12 47 -9z m150 -93 c0
-15 -6 -18 -30 -14 -36 5 -37 10 -7 22 32 13 37 12 37 -8z m-151 -38 c15 -33
9 -41 -42 -54 -59 -15 -166 -58 -205 -82 -18 -11 -35 -18 -38 -15 -11 11 48
88 87 114 44 29 131 62 165 63 13 0 25 -10 33 -26z m740 -14 c155 -10 290 -26
300 -36 8 -8 -5 -13 -124 -44 -95 -25 -137 -31 -200 -29 -201 6 -403 -1 -495
-17 -70 -13 -140 -10 -140 5 0 11 69 51 89 51 11 0 23 4 26 10 10 16 133 49
215 59 106 12 144 12 329 1z m6856 -31 c10 -15 -29 -53 -104 -100 -36 -23 -77
-50 -91 -60 -14 -10 -47 -34 -75 -53 -27 -19 -76 -57 -108 -84 -46 -39 -63
-48 -84 -44 -24 5 -26 3 -20 -25 5 -25 1 -32 -24 -47 -28 -16 -29 -16 -29 1 0
76 214 294 341 347 24 11 69 31 99 46 61 31 85 35 95 19z m-238 -53 c2 -2 -27
-24 -64 -49 -68 -47 -178 -85 -210 -73 -17 7 -143 -13 -158 -24 -9 -8 -193
-57 -240 -65 -11 -2 -39 -13 -63 -25 -23 -11 -47 -18 -51 -15 -5 3 -11 0 -13
-6 -2 -6 -13 -12 -23 -13 -25 -3 -71 -22 -88 -36 -6 -6 -58 -38 -115 -71 -102
-61 -182 -85 -182 -57 0 75 212 237 418 319 95 38 286 96 343 104 24 3 53 9
64 12 58 18 365 17 382 -1z m-3957 -41 c258 -26 510 -57 597 -74 47 -9 104 -5
183 13 74 17 414 46 610 52 245 7 434 -5 496 -31 44 -18 38 -27 -31 -45 -27
-7 -66 -21 -85 -31 -20 -9 -59 -17 -91 -18 -55 0 -190 -18 -197 -26 -3 -2 -22
3 -44 12 -35 14 -48 14 -90 4 -27 -7 -59 -10 -71 -7 -14 3 -39 -4 -65 -19 -36
-21 -52 -24 -100 -19 -66 6 -93 -6 -76 -33 9 -15 6 -22 -19 -40 -17 -13 -31
-23 -32 -23 -1 0 0 14 3 30 6 39 -12 60 -51 60 l-30 0 24 -26 24 -27 -28 18
c-15 10 -47 18 -75 18 -44 1 -131 -24 -159 -46 -8 -6 -27 -4 -54 7 -40 16 -80
12 -144 -15 -34 -14 -109 -33 -123 -30 -15 3 -142 -38 -142 -46 0 -2 10 -4 23
-3 62 5 75 1 79 -30 3 -20 0 -30 -9 -30 -7 0 -12 9 -10 22 3 33 -29 35 -46 3
l-13 -27 -32 27 c-46 39 -76 10 -32 -30 12 -10 19 -24 16 -30 -2 -7 7 -10 28
-8 31 3 31 3 -9 -16 -51 -25 -54 -25 -48 -2 3 12 -5 26 -24 40 -33 27 -71 23
-118 -13 -29 -22 -34 -23 -75 -12 -25 6 -55 17 -67 24 -27 15 -65 16 -80 1
-13 -13 -83 -20 -83 -8 0 10 52 48 101 74 20 11 70 39 111 61 40 23 113 57
162 75 l90 34 -40 7 c-21 4 -73 10 -114 13 -124 9 -144 13 -160 35 -15 20 -45
21 -99 4 -8 -3 -93 -7 -190 -10 -97 -3 -192 -7 -211 -8 -35 -3 -75 6 -117 26
-12 6 -36 8 -55 4 -34 -7 -90 -15 -288 -42 -63 -8 -119 -19 -125 -23 -5 -5
-37 -12 -70 -16 -33 -4 -79 -16 -102 -26 -55 -25 -128 -35 -138 -20 -11 19 0
23 55 23 27 0 53 4 56 9 3 5 -13 9 -35 9 -48 0 -51 10 -16 56 64 83 301 150
620 174 182 14 565 2 835 -25z m-2180 1 c196 17 747 9 780 -11 5 -3 -9 -22
-31 -42 -65 -59 -127 -70 -370 -65 -112 2 -208 8 -214 13 -14 13 -51 11 -64
-4 -8 -10 -52 -16 -150 -21 -178 -8 -410 -49 -526 -92 -37 -14 37 42 100 75
33 18 82 46 108 63 33 22 62 32 89 33 26 1 43 7 49 18 6 9 22 17 37 17 15 0
47 6 72 14 25 7 52 10 60 6 8 -5 35 -6 60 -4z m5276 -44 l69 -7 -119 -64 -118
-63 -142 2 c-138 3 -236 -4 -266 -17 -8 -4 -44 -8 -80 -9 -71 -2 -92 -5 -101
-17 -3 -4 -50 -10 -105 -14 -54 -3 -107 -10 -116 -15 -10 -4 -59 -10 -111 -13
-95 -4 -133 -16 -207 -63 -19 -12 -45 -22 -56 -22 -12 0 -27 -6 -34 -14 -6 -8
-18 -12 -26 -9 -10 4 -12 0 -8 -10 4 -12 -2 -18 -23 -22 -74 -15 -103 -27
-103 -40 0 -14 -11 -19 -37 -16 -7 1 -10 -4 -7 -12 6 -17 -48 -42 -71 -33 -8
3 -15 1 -15 -4 0 -6 -10 -10 -23 -10 -13 0 -27 -4 -32 -9 -12 -11 -102 2 -117
17 -14 14 -20 72 -7 72 5 0 15 11 21 25 21 46 315 181 554 255 219 68 542 116
829 123 126 3 369 -3 451 -11z m1204 -22 c0 -5 -5 -10 -11 -10 -5 0 -7 5 -4
10 3 6 8 10 11 10 2 0 4 -4 4 -10z m-7766 -80 c42 -38 79 -97 65 -106 -26 -15
-56 8 -87 66 -17 34 -32 63 -32 66 0 12 23 1 54 -26z m-188 -69 c63 -75 216
-138 399 -165 66 -10 135 -20 153 -22 17 -3 32 -8 32 -13 0 -11 76 -35 87 -28
6 4 18 0 29 -7 17 -13 16 -15 -20 -30 -20 -9 -63 -18 -94 -21 -31 -2 -78 -7
-103 -11 -30 -3 -58 0 -82 9 -19 9 -37 14 -39 12 -2 -2 -24 -6 -50 -8 -38 -4
-46 -3 -41 9 7 18 -23 29 -41 14 -8 -6 -28 -12 -45 -12 -17 -1 -31 -5 -31 -9
0 -12 -73 20 -87 39 -7 9 -13 12 -13 8 0 -11 -47 19 -83 53 -32 29 -67 91 -67
118 0 22 47 93 61 93 6 0 21 -13 35 -29z m659 -61 c3 -5 1 -10 -4 -10 -6 0
-11 5 -11 10 0 6 2 10 4 10 3 0 8 -4 11 -10z m810 -15 c87 -14 229 -73 255
-105 3 -4 44 -32 92 -64 48 -31 90 -62 94 -69 5 -9 3 -9 -7 1 -7 6 -27 12 -45
12 -17 0 -60 9 -94 20 -34 11 -67 20 -72 20 -5 0 -55 18 -110 40 -150 59 -233
122 -202 153 4 4 16 5 28 2 12 -2 39 -7 61 -10z m1243 -56 c278 -39 468 -75
562 -107 54 -19 55 -20 52 -54 -3 -29 2 -40 23 -57 24 -18 40 -21 149 -20 163
0 255 -13 421 -59 77 -21 174 -46 215 -55 41 -9 109 -23 150 -31 300 -63 366
-78 382 -87 10 -5 22 -8 26 -5 15 9 137 -27 169 -50 23 -17 39 -22 60 -18 27
5 28 4 30 -40 1 -35 -2 -46 -13 -46 -9 0 -13 4 -10 8 3 5 -16 8 -42 8 -26 1
-76 8 -112 17 -36 9 -108 21 -160 27 -52 6 -111 17 -130 24 -49 19 -132 28
-149 17 -10 -6 -23 -3 -40 9 -28 20 -186 37 -208 23 -7 -5 75 -29 195 -57 114
-27 231 -55 260 -62 46 -11 53 -11 48 2 -6 15 13 18 51 8 13 -4 20 -11 16 -20
-4 -11 2 -13 26 -8 26 6 30 4 25 -10 -5 -14 -3 -15 21 -6 38 14 52 13 74 -9
11 -11 36 -23 55 -27 30 -5 36 -3 36 11 0 12 5 15 16 11 9 -3 27 -6 41 -6 20
0 23 -3 14 -13 -6 -8 -8 -17 -4 -20 9 -9 -31 -9 -140 2 -51 5 -144 15 -207 21
-307 31 -819 132 -1265 251 -169 45 -215 61 -209 71 3 5 0 16 -8 25 -12 15
-10 16 12 10 14 -4 40 -7 58 -7 20 0 31 -4 27 -10 -4 -6 6 -10 22 -11 15 0 39
-2 52 -5 18 -3 22 -1 17 11 -8 22 39 19 91 -6 45 -22 77 -19 87 8 5 12 1 14
-21 10 -20 -4 -35 1 -50 15 -20 19 -120 47 -171 48 -13 0 -38 6 -55 14 -18 8
-93 28 -167 45 -313 70 -368 84 -464 118 -55 19 -113 44 -128 55 -30 21 -36
43 -15 51 27 12 145 6 285 -14z m1406 7 l27 -13 -50 -17 c-60 -19 -72 -20 -65
-3 3 9 49 44 60 47 1 0 14 -6 28 -14z m2266 -88 c0 -18 -2 -20 -9 -8 -6 8 -7
18 -5 22 9 14 14 9 14 -14z m698 -1 c7 -5 32 -10 55 -9 28 1 54 -5 77 -20 l35
-21 -32 -11 c-17 -6 -35 -15 -40 -20 -4 -5 -4 -7 2 -4 6 3 16 -1 24 -9 12 -13
11 -14 -10 -8 -13 4 -39 16 -57 26 -18 10 -40 19 -48 19 -8 0 -38 12 -67 27
-49 25 -50 27 -27 33 38 10 74 9 88 -3z m-3292 -29 c4 -6 0 -16 -8 -24 -12
-12 -20 -13 -41 -3 -28 13 -36 34 -15 41 18 6 57 -3 64 -14z m2297 -15 c77
-16 179 -68 167 -85 -8 -10 46 -48 98 -70 26 -10 35 -16 20 -13 -14 3 -62 7
-105 10 -119 8 -138 15 -139 53 0 38 -29 72 -60 72 -13 0 -39 -14 -59 -31 -25
-22 -42 -30 -58 -26 -12 3 -44 11 -71 18 -49 11 -170 72 -182 90 -10 16 298 2
389 -18z m-1678 -12 c17 -5 52 -12 78 -16 31 -4 47 -11 44 -18 -2 -7 -1 -22 4
-34 11 -31 73 -33 91 -3 9 13 24 20 44 20 27 0 34 -5 45 -32 7 -18 12 -39 12
-45 0 -7 3 -13 7 -13 13 0 19 -39 7 -43 -7 -2 1 -12 16 -21 27 -18 84 -15 73
3 -12 19 23 33 66 25 24 -4 67 -8 97 -8 34 -1 56 -6 59 -13 2 -7 8 -13 13 -13
6 0 7 5 4 10 -3 6 2 10 12 10 10 0 24 -10 32 -22 13 -21 14 -21 28 -3 11 16
17 18 33 7 11 -6 33 -12 49 -12 17 0 32 -4 35 -8 3 -5 30 -14 60 -21 45 -10
55 -16 61 -38 5 -23 9 -25 43 -20 20 4 54 2 74 -2 25 -6 38 -5 41 3 2 7 10 4
21 -7 19 -18 41 -24 31 -7 -4 7 2 9 17 5 12 -3 57 -12 98 -20 41 -9 76 -20 78
-25 2 -6 14 -7 27 -4 27 7 317 -44 326 -57 7 -12 117 -32 140 -26 11 3 19 1
19 -4 0 -5 17 -9 38 -10 20 -1 48 -5 62 -9 15 -5 -42 -8 -140 -9 -433 -2
-1093 109 -2240 375 -134 31 -139 34 -74 29 39 -3 86 -8 104 -11 28 -6 32 -5
27 9 -8 21 1 22 24 1 28 -25 92 -36 105 -18 17 21 65 9 56 -14 -5 -14 -3 -15
9 -5 10 8 38 9 94 3 44 -4 81 -7 83 -6 1 2 -26 11 -61 20 -108 29 -207 82
-207 109 0 12 191 3 235 -12z m-1788 -42 c27 -7 62 -18 80 -25 17 -8 38 -14
47 -14 9 0 16 -4 16 -10 0 -15 -39 -12 -123 10 -73 18 -117 35 -117 45 0 9 49
5 97 -6z m-1347 -39 c442 -78 606 -94 927 -95 128 0 233 -3 233 -7 0 -4 19 -8
43 -10 32 -3 37 -5 22 -11 -11 -5 -34 -15 -52 -24 -27 -13 -41 -14 -91 -4 -48
9 -66 9 -106 -5 -40 -14 -83 -16 -299 -11 -349 8 -625 40 -842 98 -44 12 -91
24 -105 27 -22 5 -16 10 45 38 39 18 79 30 90 28 11 -2 72 -13 135 -24z m2893
3 c-7 -2 -19 -2 -25 0 -7 3 -2 5 12 5 14 0 19 -2 13 -5z m2877 -2 c25 -5 104
-18 175 -30 72 -12 159 -28 195 -36 36 -8 78 -17 94 -20 23 -5 27 -8 15 -16
-10 -6 -10 -9 -1 -9 7 0 21 5 31 12 15 9 25 9 43 1 23 -11 23 -12 -7 -13 -26
-1 -28 -3 -10 -11 62 -28 -407 56 -645 116 l-55 13 60 1 c33 0 80 -4 105 -8z
m-1416 -37 c28 -5 37 -4 32 4 -5 8 0 12 12 12 11 0 23 -7 26 -16 5 -14 15 -15
55 -10 36 5 50 3 53 -6 6 -17 156 -39 161 -24 2 7 12 7 31 -2 15 -6 41 -12 58
-12 49 0 158 -21 153 -30 -5 -9 122 -29 180 -29 22 0 53 -4 68 -10 15 -6 27
-7 27 -3 0 4 5 0 10 -9 12 -21 80 -35 90 -18 4 6 13 8 19 5 6 -4 9 -12 6 -17
-4 -5 7 -6 25 -3 21 5 35 2 43 -8 7 -9 32 -21 57 -27 100 -26 197 -50 225 -54
17 -3 -13 -3 -65 -1 -96 5 -295 35 -495 74 -622 123 -960 192 -964 197 -7 7
135 -3 193 -13z m-4618 -33 c97 -32 256 -72 304 -78 25 -3 52 -9 62 -14 9 -5
25 -9 36 -9 19 0 62 -31 62 -45 0 -4 -7 -5 -15 -1 -8 3 -15 0 -16 -7 -1 -7 -4
-1 -8 13 -8 29 -51 42 -51 16 0 -9 -4 -16 -8 -16 -5 0 -15 -11 -22 -25 -11
-21 -20 -25 -62 -25 -89 0 -312 39 -343 60 -13 9 -67 24 -78 21 -5 -1 -29 10
-55 23 -26 13 -64 32 -85 43 l-38 18 38 7 c21 4 70 14 108 22 97 19 104 19
171 -3z m5597 3 c104 -5 150 -11 158 -21 6 -7 17 -13 24 -13 8 0 15 -4 17 -8
2 -5 21 -16 43 -25 l40 -17 -60 4 c-33 3 -72 5 -87 5 -16 1 -28 6 -28 13 0 20
-32 48 -54 48 -17 0 -18 -2 -6 -10 10 -7 11 -10 3 -11 -7 -1 -18 -2 -24 -3 -6
0 -16 -9 -23 -18 -11 -16 -20 -16 -74 -7 -34 6 -62 16 -62 21 0 5 -13 7 -30 3
-23 -5 -30 -3 -30 8 0 9 -3 23 -7 33 -5 14 -2 16 23 11 16 -4 95 -10 177 -13z
m-3913 -42 c0 -5 -15 -9 -32 -9 -27 -1 -29 1 -13 7 27 11 45 12 45 2z m-2580
-72 c22 -12 70 -89 70 -112 0 -19 -19 -28 -40 -19 -63 25 -100 97 -68 129 15
15 15 15 38 2z m2670 -15 c-11 -13 -5 -15 51 -10 l64 5 -65 -26 c-179 -71
-561 -135 -798 -133 l-137 0 85 25 c47 14 105 34 130 44 25 10 56 18 70 19 78
1 140 10 175 26 31 14 68 19 163 19 89 1 125 5 131 14 5 9 17 11 36 6 19 -5
26 -3 21 4 -4 7 7 12 31 15 21 2 42 4 47 5 5 1 3 -5 -4 -13z m-2015 -50 c50
-9 110 -15 135 -15 84 3 121 0 116 -9 -3 -4 6 -6 19 -3 14 2 33 1 42 -3 10 -5
26 -7 36 -6 9 1 17 -2 17 -8 0 -6 15 -7 37 -4 26 4 34 3 29 -5 -5 -8 2 -12 21
-12 97 -1 156 -10 168 -26 9 -13 21 -16 49 -11 22 3 34 2 31 -4 -4 -5 26 -9
72 -10 l78 -1 -65 -14 c-79 -17 -297 -19 -412 -4 -157 21 -342 74 -468 134
-60 28 -63 28 95 1z m2165 5 c0 -5 -17 -10 -37 -10 -28 0 -34 3 -23 10 20 13
60 13 60 0z m150 -2 c0 -12 68 -40 80 -33 4 3 16 2 25 -1 13 -5 14 -8 3 -15
-9 -6 -7 -9 9 -9 12 0 28 -6 35 -12 32 -31 48 -38 113 -48 39 -6 89 -18 112
-27 23 -8 52 -13 65 -10 12 4 27 2 32 -2 6 -5 40 -14 76 -20 36 -6 103 -20
150 -30 l85 -18 -128 -8 c-235 -14 -695 24 -990 82 -89 17 -96 31 -16 32 20 1
39 4 43 8 9 9 61 15 159 17 63 1 74 3 61 13 -10 7 -14 19 -10 28 4 12 0 19
-15 22 -19 5 -18 7 8 23 29 19 103 24 103 8z m4913 -147 c-5 -19 -97 -68 -120
-63 -7 2 -13 -2 -13 -8 0 -5 -7 -10 -15 -10 -21 0 -19 34 4 54 11 10 41 24 68
31 69 19 82 18 76 -4z m-2979 -7 c9 -3 16 -10 16 -15 0 -14 -26 -10 -40 6 -13
16 -3 20 24 9z m2249 -24 c84 2 113 -21 65 -52 -33 -22 -180 -78 -203 -78 -11
0 -37 -2 -58 -4 -31 -3 -36 -2 -26 10 14 17 -2 19 -31 4 -20 -11 -100 14 -100
31 0 5 -7 9 -15 9 -22 0 -18 18 9 45 19 18 32 23 53 20 15 -3 51 1 78 9 32 10
73 13 115 10 36 -3 87 -5 113 -4z m-613 -54 c0 -2 -9 -6 -20 -9 -11 -3 -20 -1
-20 4 0 5 9 9 20 9 11 0 20 -2 20 -4z m-4121 -36 c95 -10 188 -24 206 -30 18
-6 37 -9 42 -8 15 5 113 -52 113 -66 0 -6 -6 -18 -12 -25 -11 -11 -10 -13 5
-8 9 4 17 3 17 -2 0 -5 -9 -11 -20 -14 -11 -3 -18 -1 -14 4 3 5 -2 9 -11 9 -9
0 -14 -4 -10 -9 9 -16 -34 -34 -50 -21 -7 6 -15 7 -17 2 -4 -12 -88 -25 -88
-13 0 5 -55 9 -122 9 -68 0 -130 3 -138 5 -8 3 -40 10 -70 15 -30 6 -81 22
-114 37 -54 24 -58 27 -51 53 4 15 7 27 8 27 1 0 27 12 57 27 66 33 52 33 269
8z m-721 -15 c60 -17 73 -27 52 -40 -20 -12 -10 -26 10 -15 15 8 20 8 20 -3 0
-31 -143 -67 -325 -83 -38 -3 -72 -7 -75 -7 -3 -1 -21 5 -40 12 -19 8 -40 13
-45 13 -6 -1 -15 8 -20 21 -7 15 -20 23 -42 25 -18 2 -33 -1 -33 -6 0 -5 -17
-12 -37 -15 -29 -5 -49 0 -102 29 -113 59 -122 72 -61 79 18 3 35 7 38 9 2 3
138 4 301 2 249 -2 306 -5 359 -21z m3727 -5 c18 -12 38 -17 53 -13 21 5 23 2
20 -31 -2 -32 -7 -39 -45 -57 -24 -12 -49 -19 -56 -16 -7 3 -21 -1 -31 -9 -11
-7 -23 -11 -27 -8 -5 3 -58 13 -118 23 -65 11 -121 26 -138 37 -15 10 -41 24
-58 30 l-30 12 27 10 c14 6 29 15 32 21 4 6 46 10 97 10 50 0 94 2 97 5 3 4
37 6 76 6 54 0 78 -5 101 -20z m-5365 -61 c17 -33 29 -63 26 -66 -3 -3 -16 -3
-30 1 -45 11 -83 126 -41 126 7 0 27 -27 45 -61z m354 12 c26 -12 52 -19 56
-16 11 7 40 -23 40 -40 0 -24 -38 -37 -83 -29 -35 6 -39 8 -22 15 14 7 11 7
-12 3 -36 -6 -72 10 -123 55 -19 18 -40 29 -46 27 -7 -3 -18 2 -24 10 -15 17
-4 18 38 3 25 -8 36 -8 53 5 19 13 26 13 48 1 14 -8 48 -23 75 -34z m5516 19
c0 -13 -28 -25 -38 -16 -3 4 0 11 8 16 20 13 30 12 30 0z m-1887 -37 c4 -3 35
-8 69 -9 35 -2 83 -6 108 -10 37 -5 41 -8 26 -16 -10 -6 -33 -8 -52 -5 -22 4
-36 1 -41 -7 -5 -7 -25 -19 -45 -25 -60 -20 -260 -49 -295 -44 -18 3 -41 2
-50 -2 -10 -5 -25 -7 -33 -7 -8 1 -80 6 -160 12 -209 15 -270 22 -265 30 11
17 175 75 230 81 83 8 500 11 508 2z m3061 -34 c13 -6 27 -21 30 -32 4 -16 8
-18 19 -8 11 9 19 7 38 -9 14 -11 18 -19 11 -20 -7 0 -10 -5 -7 -10 3 -6 -2
-13 -12 -17 -10 -4 -29 -17 -42 -29 -38 -35 -171 -75 -224 -68 -28 4 -47 2
-51 -5 -4 -6 -18 -9 -32 -6 -78 16 -78 16 -63 25 10 7 5 9 -16 7 -17 -1 -30 3
-30 10 0 6 -10 20 -22 31 -29 25 -29 26 9 53 23 17 72 30 191 50 87 15 161 30
164 33 8 8 8 8 37 -5z m495 -35 c17 -4 31 -11 31 -15 0 -15 -51 -30 -87 -27
-33 3 -33 4 -18 26 17 24 25 25 74 16z m-1454 -42 c39 -5 105 -5 148 0 80 8
122 -1 114 -25 -9 -30 -365 -121 -447 -116 -20 2 -41 -1 -48 -5 -7 -4 -12 -2
-12 4 0 6 -4 9 -8 6 -9 -6 -136 19 -153 30 -8 4 -7 9 2 14 10 7 10 11 0 24
-28 34 22 55 180 75 65 8 101 7 224 -7z m487 -47 c4 -21 -1 -27 -36 -44 -70
-33 -85 -35 -79 -11 7 26 49 60 75 60 11 0 16 5 13 10 -3 6 0 10 8 10 8 0 17
-11 19 -25z m-3706 -10 c29 -25 72 -33 90 -16 5 5 67 4 154 -5 286 -27 400
-33 551 -28 434 14 518 10 547 -25 10 -12 15 -13 18 -3 6 13 62 16 81 4 17
-11 -14 -55 -33 -48 -7 3 -35 -5 -61 -18 -79 -39 -99 -47 -109 -45 -16 3 -74
-13 -80 -22 -3 -5 -9 -7 -14 -4 -4 3 -34 -4 -67 -14 -51 -16 -83 -18 -224 -15
-90 2 -180 4 -199 4 -33 1 -34 1 -16 15 14 11 16 15 5 15 -11 0 -12 2 -1 9 25
16 10 46 -23 46 -38 0 -48 -36 -14 -51 21 -10 21 -11 -13 -27 -38 -18 -113
-23 -122 -8 -3 4 -34 11 -68 15 -98 11 -162 34 -276 97 -76 42 -112 57 -129
53 -15 -4 -23 -2 -23 7 -1 10 -4 9 -10 -3 -10 -16 -13 -16 -53 2 -23 11 -56
20 -73 20 -43 0 -94 11 -94 20 0 17 108 49 166 49 51 1 66 -3 90 -24z m-1771
-1 c77 -2 346 -2 525 0 70 1 90 -3 112 -19 34 -25 34 -33 3 -68 -29 -31 -15
-37 15 -7 16 16 20 17 20 4 0 -29 -71 -79 -103 -70 -11 3 -33 -2 -49 -10 -64
-33 -421 -31 -483 2 -11 6 -26 9 -33 7 -7 -3 -36 11 -65 30 -29 19 -74 47
-100 61 -56 32 -68 53 -41 73 14 10 32 12 69 7 28 -4 86 -9 130 -10z m1035 7
c0 -10 -40 -19 -58 -13 -7 2 -10 8 -6 13 7 12 64 12 64 0z m3075 -14 c11 -1
25 -5 30 -8 14 -8 98 -5 113 5 7 4 16 -2 23 -18 7 -14 21 -26 33 -28 36 -6
-63 -58 -110 -58 -36 0 -40 3 -56 42 -17 40 -18 41 -37 24 -14 -13 -19 -27
-16 -48 2 -18 -2 -37 -11 -45 -21 -21 -93 -36 -109 -23 -14 12 -48 3 -40 -11
3 -4 -8 -7 -24 -6 -24 2 -27 5 -18 16 10 12 9 13 -8 6 -49 -21 -183 -16 -170
6 4 5 -1 9 -9 9 -8 0 -17 -4 -20 -9 -6 -9 -43 -4 -61 9 -5 4 -24 11 -42 14
-17 4 -37 14 -43 21 -10 12 -2 19 43 39 61 27 413 79 477 70 19 -2 44 -5 55
-7z m-2800 -86 c140 -2 263 -31 308 -75 7 -6 29 -20 50 -29 20 -10 37 -21 37
-25 0 -14 -37 -30 -106 -48 -58 -14 -97 -16 -249 -10 -99 3 -202 11 -230 17
-27 6 -60 12 -72 13 -13 2 -31 10 -40 18 -10 9 -37 25 -60 37 -49 24 -52 32
-23 61 42 42 127 59 235 48 39 -4 106 -7 150 -7z m4575 -30 c-8 -5 -31 -12
-50 -16 -31 -7 -33 -6 -21 9 8 9 28 16 50 16 25 -1 31 -3 21 -9z m-6884 -45
c47 -47 56 -76 24 -76 -40 0 -112 83 -95 110 11 18 27 11 71 -34z m523 0 c42
-14 63 -42 41 -56 -18 -12 -105 -11 -138 2 -34 12 -93 59 -87 69 7 10 139 0
184 -15z m6421 -6 c0 -17 75 -34 99 -21 34 19 27 -14 -12 -54 -35 -36 -123
-85 -153 -85 -11 0 -38 -7 -62 -15 -35 -13 -51 -13 -82 -4 -28 8 -43 9 -52 2
-17 -14 -84 8 -80 26 2 9 -4 12 -20 8 -13 -4 -29 -2 -36 2 -10 6 -8 10 8 14
22 6 22 6 -4 29 -24 20 -25 25 -13 42 19 25 297 67 326 49 15 -10 22 -9 31 2
14 17 50 20 50 5z m-805 -70 c4 -6 11 -8 16 -4 20 12 105 15 133 4 23 -8 26
-13 17 -24 -10 -12 -8 -14 11 -9 20 4 18 0 -12 -26 -19 -16 -44 -34 -55 -40
-46 -22 -245 -80 -298 -86 -31 -4 -57 -10 -57 -14 0 -10 -191 -4 -241 8 -86
20 -97 27 -92 56 3 14 8 23 11 21 3 -3 11 2 18 12 10 14 10 20 -4 35 -29 33
-1 41 171 49 89 5 189 12 222 17 88 12 153 12 160 1z m-4915 -40 c41 -5 140
-9 220 -10 185 0 270 -21 235 -57 -8 -8 -15 -22 -15 -32 0 -25 -37 -56 -93
-80 -60 -26 -158 -27 -332 -5 -155 19 -142 17 -198 42 -27 12 -50 22 -52 22
-2 0 -20 9 -39 21 -35 20 -35 21 -21 49 8 15 27 38 42 49 30 24 73 24 253 1z
m4110 -10 c0 -4 14 -7 31 -6 18 0 34 -5 36 -11 6 -18 -46 -63 -72 -63 -23 0
-60 -32 -49 -43 8 -8 -71 -47 -96 -47 -26 0 -190 -39 -211 -50 -9 -4 -22 -4
-30 1 -8 5 -25 9 -39 9 -20 0 -22 -2 -10 -10 11 -8 7 -10 -17 -8 -27 2 -30 5
-20 17 10 12 9 13 -8 6 -31 -14 -146 -18 -169 -6 -12 6 -28 10 -36 9 -41 -3
-71 3 -64 13 5 8 -1 10 -19 6 -35 -9 -87 3 -87 19 0 20 -37 17 -49 -3 -10 -17
-10 -17 -11 0 0 9 -6 17 -12 17 -25 1 28 31 77 45 28 8 109 21 180 30 72 9
202 29 290 45 88 16 176 30 195 32 83 7 190 6 190 -2z m-2236 -40 c66 -10 150
-24 186 -29 57 -9 362 -7 612 4 43 2 80 -1 84 -6 3 -5 11 -6 17 -2 15 10 207
10 207 1 0 -5 -4 -8 -10 -8 -5 0 -10 -5 -10 -11 0 -18 -41 -70 -53 -67 -7 2
-41 -12 -75 -30 -35 -19 -70 -31 -78 -28 -8 3 -22 2 -32 -3 -28 -15 -56 -24
-69 -22 -7 1 -25 -5 -41 -13 -34 -18 -152 -33 -152 -19 0 5 -37 7 -89 5 -103
-5 -470 25 -488 40 -7 6 -13 7 -13 4 0 -4 -40 14 -89 40 -49 27 -88 52 -85 56
3 4 -16 18 -41 30 -54 26 -56 48 -5 65 49 17 86 16 224 -7z m1146 -40 c0 -5
-7 -10 -16 -10 -8 0 -12 5 -9 10 3 6 10 10 16 10 5 0 9 -4 9 -10z m3200 0 c0
-5 -2 -10 -4 -10 -3 0 -8 5 -11 10 -3 6 -1 10 4 10 6 0 11 -4 11 -10z m-7393
-37 c33 -22 118 -136 105 -141 -19 -6 -88 36 -120 73 -30 34 -40 64 -25 78 9
10 10 9 40 -10z m793 -47 c47 -21 100 -45 118 -54 l33 -17 -38 -7 c-21 -3 -52
-4 -70 -2 -17 3 -34 0 -38 -6 -7 -11 -45 -14 -45 -2 0 4 -23 8 -52 9 -122 4
-298 56 -298 87 0 29 33 36 170 33 132 -3 137 -4 220 -41z m1485 4 c66 -5 150
-10 187 -10 47 0 78 -6 100 -18 18 -11 50 -25 72 -32 27 -9 34 -15 25 -21 -21
-12 -3 -22 19 -10 22 12 33 5 25 -15 -4 -12 0 -14 22 -8 20 5 26 4 21 -5 -13
-20 -68 -43 -91 -37 -14 4 -43 -3 -72 -15 -61 -28 -197 -32 -367 -12 -66 7
-126 11 -133 9 -7 -3 -15 -1 -18 4 -3 5 -41 28 -84 50 -43 23 -87 47 -97 55
-19 13 -18 14 2 35 11 12 38 28 60 36 41 15 76 15 329 -6z m4645 -9 c3 -1 -12
-17 -32 -36 -21 -18 -39 -38 -39 -42 -1 -4 -3 -17 -4 -28 -6 -53 -15 -63 -66
-74 -69 -15 -119 -14 -169 4 -23 8 -52 15 -64 15 -46 0 -49 14 -18 71 23 42
35 55 63 62 73 19 285 37 329 28z m75 -59 c0 -18 -20 -15 -23 4 -3 10 1 15 10
12 7 -3 13 -10 13 -16z m-840 -39 c-22 -53 -16 -62 38 -68 30 -3 30 -3 10 -24
-39 -41 -185 -90 -319 -107 -49 -6 -52 -5 -85 30 -37 39 -49 37 -64 -9 -9 -25
-16 -31 -47 -33 -20 -2 -55 2 -77 8 l-40 11 19 37 c47 90 122 125 300 141 153
13 224 21 229 27 2 2 13 4 24 4 14 0 17 -4 12 -17z m-1060 -23 c0 -18 -80 -36
-119 -26 -34 8 -33 22 2 35 41 15 117 9 117 -9z m505 10 c-20 -13 -40 -13 -40
0 0 6 12 10 28 10 21 0 24 -2 12 -10z m-4392 -20 c51 -6 148 -10 215 -9 194 1
220 -7 193 -61 -11 -23 -13 -37 -6 -50 18 -34 12 -53 -14 -46 -15 4 -43 -2
-72 -14 -35 -16 -67 -20 -118 -19 -157 4 -332 29 -401 58 -132 56 -152 67
-141 82 37 48 148 85 226 73 14 -2 67 -8 118 -14z m4265 -25 c-35 -44 -106
-86 -156 -91 -47 -5 -57 -10 -57 -33 0 -11 -14 -24 -37 -33 -62 -26 -240 -62
-356 -72 -43 -4 -47 -2 -42 15 4 12 2 19 -6 19 -7 0 -20 7 -30 16 -16 14 -20
14 -40 1 -17 -12 -26 -13 -46 -4 -21 9 -27 8 -39 -7 -7 -11 -11 -23 -7 -29 4
-6 -11 -7 -43 -2 -27 4 -72 9 -100 11 -29 1 -61 7 -72 13 -11 6 -40 11 -65 11
-24 0 -47 3 -50 6 -12 12 14 44 51 63 48 24 71 28 232 41 74 6 221 26 325 43
195 33 222 34 406 12 60 -8 97 5 133 44 31 34 31 16 -1 -24z m2005 5 c-16 -26
-103 -47 -123 -30 -21 17 -8 32 15 20 15 -8 29 -6 57 9 51 27 67 27 51 1z
m-4359 -56 c140 -20 211 -25 368 -25 107 1 198 3 202 5 4 3 103 7 219 10 116
3 232 10 258 16 26 6 48 9 50 7 9 -9 -28 -45 -51 -49 -21 -4 -23 -3 -14 9 9
10 9 12 -2 8 -8 -3 -21 -23 -30 -44 -14 -32 -23 -39 -53 -45 -20 -4 -52 -16
-70 -27 -30 -18 -111 -43 -176 -55 -14 -3 -43 -11 -66 -19 -65 -22 -613 4
-694 33 -8 3 -19 5 -25 4 -20 -2 -180 86 -177 98 1 6 -2 9 -7 5 -12 -7 -52 30
-43 40 4 3 7 14 7 23 0 17 29 26 95 29 19 1 113 -9 209 -23z m1136 -8 c-9 -13
-24 -27 -33 -31 -14 -5 -15 -4 -4 6 6 7 12 21 12 31 0 11 7 18 20 18 19 0 20
-1 5 -24z m-3611 -31 c14 -3 31 -11 38 -18 12 -11 63 -35 153 -72 l40 -16 -90
5 c-49 2 -91 8 -92 13 -2 5 -46 7 -98 5 -102 -5 -183 10 -192 36 -8 18 14 32
52 32 17 0 50 7 75 14 42 13 54 13 114 1z m1606 -55 c69 -5 174 -11 234 -13
105 -3 109 -4 128 -30 12 -17 29 -27 44 -27 14 0 27 -7 30 -15 4 -11 10 -12
18 -6 16 13 40 -3 33 -22 -8 -22 -52 -49 -95 -58 -20 -4 -57 -13 -82 -19 -38
-10 -173 -10 -350 1 -8 1 -48 8 -88 16 -40 7 -76 12 -81 9 -5 -3 -16 3 -26 14
-10 11 -47 36 -82 56 -34 19 -63 39 -63 43 0 23 40 51 85 60 50 10 67 9 295
-9z m4636 -15 c4 -10 11 -12 22 -6 13 6 26 -1 50 -25 18 -19 27 -34 19 -34 -7
0 -22 -7 -33 -16 -18 -15 -18 -15 4 -9 13 4 22 2 22 -5 0 -7 -9 -14 -20 -17
-11 -3 -20 -9 -20 -14 0 -5 -7 -9 -15 -9 -9 0 -26 -7 -38 -14 -57 -38 -231
-60 -289 -38 -43 17 -43 31 2 73 33 32 39 43 30 54 -19 22 26 43 126 59 119
18 134 19 140 1z m-6735 -28 c55 -33 121 -66 174 -88 l30 -12 -30 -8 c-62 -18
-223 42 -259 96 -35 53 6 60 85 12z m6406 27 c-3 -3 -12 -4 -19 -1 -8 3 -5 6
6 6 11 1 17 -2 13 -5z m-47 -41 c-1 -22 -95 -93 -123 -93 -18 0 -67 -23 -67
-32 0 -5 -8 -8 -18 -8 -11 0 -27 -9 -37 -20 -30 -33 -125 -87 -184 -104 -171
-50 -474 -71 -530 -37 -30 19 25 98 90 132 59 30 142 47 264 54 61 4 133 11
160 16 97 19 164 22 180 9 10 -8 19 -9 28 -2 6 5 37 17 68 26 31 9 62 23 69
31 17 20 31 19 23 -2 -4 -12 3 -9 23 10 27 26 54 36 54 20z m752 -20 c-6 -2
-10 -9 -6 -14 3 -5 1 -9 -5 -9 -5 0 -12 4 -15 9 -6 9 10 19 29 19 6 0 4 -2 -3
-5z m-6167 -59 c55 -10 172 -17 303 -20 220 -4 246 -9 283 -50 22 -25 36 -69
19 -59 -7 4 -25 -5 -43 -23 -47 -45 -156 -66 -302 -58 -200 11 -280 19 -286
28 -4 6 -18 11 -33 11 -14 1 -26 5 -26 9 0 12 -110 57 -125 52 -15 -6 -125 60
-125 74 0 10 60 40 90 45 58 10 161 6 245 -9z m4569 7 c15 -24 -132 -111 -187
-111 -15 0 -30 -7 -33 -15 -9 -21 -87 -64 -128 -69 -31 -4 -95 -36 -71 -36 21
0 -41 -34 -74 -41 -20 -4 -72 -14 -116 -23 -44 -9 -111 -21 -150 -26 -64 -10
-71 -9 -85 10 -25 33 -69 35 -114 5 -37 -25 -41 -26 -110 -15 -39 6 -85 10
-101 10 -17 0 -91 8 -166 17 l-136 18 26 26 c56 57 125 75 333 83 75 3 214 18
310 33 131 20 214 27 341 29 l167 1 52 33 c31 18 54 27 56 21 6 -17 18 -13 48
18 16 16 40 31 54 34 45 8 79 7 84 -2z m-475 -17 c8 -8 -23 -31 -59 -43 -19
-7 -78 -15 -130 -18 l-95 -5 31 32 c26 26 43 34 90 40 56 8 153 4 163 -6z
m-2059 -76 c165 -27 304 -34 480 -27 80 4 226 10 325 14 122 5 204 13 254 26
78 20 76 21 102 -23 7 -13 6 -18 -3 -18 -6 0 -25 -12 -41 -27 -28 -27 -29 -28
-43 -9 -8 11 -14 15 -14 10 0 -26 -242 -126 -335 -139 -27 -4 -73 -13 -102
-21 -104 -26 -476 2 -728 55 -36 7 -122 46 -135 60 -10 12 -66 48 -84 54 -16
6 -16 10 -5 24 8 9 32 23 53 33 47 19 96 17 276 -12z m3519 -55 c-92 -119
-212 -220 -240 -202 -27 17 -59 10 -71 -16 -6 -14 -15 -25 -20 -25 -4 0 -8 -6
-8 -13 0 -14 -182 -109 -240 -126 -140 -40 -513 -66 -563 -39 -12 6 -40 12
-62 14 -22 1 -73 12 -114 23 -41 12 -93 21 -115 21 -62 0 -265 63 -266 82 0 3
30 20 67 38 59 27 79 31 153 32 47 0 137 -8 200 -17 94 -14 152 -16 315 -11
110 3 241 10 292 15 51 5 101 7 113 4 11 -3 31 2 45 11 13 9 44 16 67 16 65
-1 78 2 146 38 35 17 74 32 87 32 17 0 37 17 70 58 25 31 50 63 55 70 6 6 31
12 57 12 42 0 44 -1 32 -17z m-5839 -60 c52 -22 123 -48 157 -58 34 -10 60
-22 57 -27 -3 -5 -38 -8 -78 -7 -40 1 -82 -3 -94 -10 -12 -7 -27 -9 -33 -5 -6
3 -36 8 -66 10 -100 7 -258 46 -408 101 l-50 18 108 6 c59 3 111 9 115 13 4 4
50 6 102 3 83 -4 107 -9 190 -44z m1460 -2 c80 -6 189 -12 242 -14 85 -3 101
-6 135 -29 21 -15 54 -29 73 -32 19 -3 48 -8 64 -11 39 -6 55 -22 30 -31 -10
-4 -39 -16 -64 -26 -125 -55 -314 -71 -525 -43 -71 9 -140 18 -152 19 -13 1
-31 9 -40 18 -10 8 -52 32 -93 53 -41 20 -78 40 -83 44 -11 11 25 41 70 57 40
15 76 15 343 -5z m-23 13 c-3 -3 -12 -4 -19 -1 -8 3 -5 6 6 6 11 1 17 -2 13
-5z m4633 -9 c9 -11 16 -12 25 -5 8 7 17 4 29 -9 10 -11 28 -22 42 -25 28 -7
32 -26 6 -26 -10 0 -27 -7 -38 -15 -14 -11 -15 -14 -3 -9 10 3 20 0 24 -6 4
-7 -2 -14 -14 -17 -12 -3 -21 -9 -21 -14 0 -5 -9 -9 -20 -9 -11 0 -34 -8 -52
-18 -30 -17 -98 -31 -235 -47 -41 -5 -56 -3 -69 9 -14 15 -13 20 13 62 15 26
34 57 41 71 18 32 61 50 153 61 106 13 105 13 119 -3z m-6704 -42 c3 -10 10
-26 15 -35 5 -10 6 -18 2 -18 -12 0 -53 43 -53 57 0 19 30 16 36 -4z m1477
-85 c20 -10 37 -23 37 -29 0 -6 4 -8 8 -5 4 2 13 1 20 -3 8 -5 4 -15 -14 -34
-18 -20 -21 -27 -10 -27 9 0 23 11 32 25 13 20 19 23 31 14 11 -10 11 -15 -4
-31 -27 -30 -93 -60 -116 -54 -11 3 -36 -2 -56 -10 -61 -25 -487 -16 -497 11
-3 7 -32 20 -65 30 -32 10 -59 21 -59 25 0 11 142 93 175 101 17 4 131 7 255
6 197 -1 230 -3 263 -19z m5789 3 c18 10 20 9 15 -6 -4 -9 -7 -23 -7 -30 0
-18 -83 -75 -109 -75 -35 0 -24 32 26 77 27 22 49 37 51 32 2 -5 13 -4 24 2z
m-4322 -82 c63 -11 165 -23 225 -27 131 -9 563 5 587 18 10 6 39 10 65 10 26
0 84 5 129 12 66 9 91 9 126 -1 23 -7 49 -15 57 -17 9 -3 6 -10 -12 -24 -14
-11 -29 -20 -34 -20 -5 0 -20 -11 -33 -25 -13 -13 -32 -24 -44 -24 -12 0 -59
-15 -106 -34 -47 -20 -134 -45 -195 -57 -60 -12 -125 -26 -143 -31 -54 -17
-142 -23 -142 -10 0 7 -32 11 -99 11 -86 0 -257 13 -316 24 -11 2 -45 7 -75
11 -96 12 -208 54 -292 111 -39 27 -45 34 -35 47 39 52 147 60 337 26z m-935
-83 c117 -24 168 -30 364 -41 51 -3 101 -10 111 -15 9 -5 30 -11 46 -14 40 -8
84 -27 84 -37 0 -4 45 -22 101 -39 55 -17 99 -33 97 -35 -3 -3 -38 -8 -138
-20 -25 -4 -76 -13 -114 -22 -55 -13 -95 -14 -195 -8 -190 11 -255 19 -375 49
-33 8 -63 13 -67 11 -4 -3 -12 2 -19 9 -6 8 -56 40 -111 71 -54 31 -99 60 -99
64 0 10 30 37 50 44 35 13 154 5 265 -17z m-1289 -25 c49 -16 122 -39 163 -51
108 -33 68 -47 -154 -55 -181 -7 -395 28 -497 81 -45 23 -32 34 40 34 37 0 74
5 82 10 8 5 74 10 146 10 117 0 140 -3 220 -29z m6019 19 c5 -8 11 -7 21 1 12
10 18 8 29 -7 8 -10 15 -22 15 -26 0 -4 9 -10 20 -13 25 -8 26 -25 1 -25 -21
0 -71 -36 -71 -51 0 -5 10 -1 22 10 11 11 25 18 30 15 15 -9 -31 -46 -48 -40
-9 3 -30 -5 -47 -18 -48 -35 -191 -66 -305 -66 l-53 0 16 30 c15 28 57 74 132
143 43 39 221 74 238 47z m-2357 -7 c-10 -2 -26 -2 -35 0 -10 3 -2 5 17 5 19
0 27 -2 18 -5z m2062 -5 c-1 -7 -28 -42 -61 -77 -46 -48 -86 -77 -163 -118
-275 -146 -346 -172 -528 -192 -102 -11 -351 -16 -365 -8 -5 3 -31 8 -59 11
-27 3 -83 15 -124 27 -41 12 -94 23 -118 25 -46 4 -138 29 -160 43 -11 6 -7
16 17 44 61 69 121 80 301 52 110 -17 368 -19 515 -5 55 6 132 11 172 11 49 0
75 5 84 15 13 16 65 19 74 4 10 -17 51 -11 70 10 25 28 103 70 130 70 14 0 38
17 63 44 41 44 58 52 120 55 20 0 32 -4 32 -11z m-1675 -17 c33 -11 79 -29
102 -40 23 -12 46 -21 51 -21 5 0 21 -11 36 -25 l26 -24 -37 -10 c-21 -6 -69
-15 -107 -21 -38 -6 -76 -15 -85 -20 -9 -4 -55 -8 -101 -9 -47 0 -116 -5 -155
-10 -47 -7 -73 -7 -81 0 -9 7 -19 7 -31 1 -19 -11 -76 -5 -69 7 6 9 -78 9 -84
0 -3 -4 -32 -1 -65 8 -33 8 -96 22 -140 30 -44 8 -84 18 -88 23 -5 4 6 24 23
44 50 57 100 66 365 71 125 2 229 6 232 9 14 14 151 5 208 -13z m2465 -16
c-19 -20 -46 -39 -60 -42 -14 -4 -30 -12 -37 -19 -18 -18 -111 -47 -128 -40
-21 8 -19 36 3 42 9 3 35 13 57 23 66 31 169 70 184 71 9 0 1 -14 -19 -35z
m-6040 -85 c47 -6 116 -11 153 -11 46 0 83 -7 115 -21 26 -12 76 -29 111 -38
l65 -16 -24 -22 c-23 -21 -23 -22 -4 -22 12 0 27 11 34 25 16 29 26 31 68 9
39 -19 41 -26 5 -23 -16 2 -37 -2 -48 -8 -41 -21 -125 -44 -143 -39 -10 4 -38
-1 -62 -9 -62 -22 -260 -21 -312 2 -24 11 -38 24 -38 35 0 10 -5 18 -11 18 -6
0 -8 -9 -4 -20 5 -15 0 -22 -20 -30 -44 -17 -110 -12 -138 10 -14 11 -31 20
-38 20 -26 0 -79 24 -79 36 0 38 165 108 265 113 11 0 58 -4 105 -9z m-793
-99 c144 -28 182 -41 230 -77 23 -17 71 -42 105 -55 l63 -24 -38 -3 c-25 -2
-43 2 -54 13 -11 12 -25 15 -49 10 -34 -6 -104 8 -252 52 -85 25 -152 69 -138
91 9 16 13 15 133 -7z m3492 4 c25 -8 72 -22 104 -30 36 -10 57 -21 55 -28 -7
-22 -167 -78 -306 -108 -76 -16 -157 -34 -182 -39 -57 -13 -443 5 -554 25 -43
8 -93 15 -112 15 -18 0 -36 5 -39 10 -3 6 -19 10 -34 10 -16 0 -54 11 -86 26
l-58 25 34 29 c72 63 171 74 449 53 127 -10 566 3 590 18 23 13 87 11 139 -6z
m-1855 -55 c63 -11 174 -24 249 -29 86 -7 155 -17 191 -30 31 -11 56 -17 56
-15 0 6 84 -37 90 -46 3 -4 27 -15 54 -24 109 -37 109 -41 -6 -60 -100 -17
-386 -28 -394 -15 -2 4 -22 3 -44 -1 -28 -5 -45 -3 -61 7 -12 9 -32 13 -49 10
-16 -4 -49 2 -81 14 -33 13 -66 19 -86 16 -22 -4 -35 -1 -40 8 -5 7 -42 33
-84 57 l-77 44 14 27 c32 60 90 69 268 37z m4439 -36 c20 -21 -226 -229 -357
-301 -83 -46 -313 -133 -352 -133 -8 0 -14 -4 -14 -9 0 -5 -11 -8 -24 -5 -14
2 -37 -1 -53 -7 -15 -6 -41 -12 -58 -14 -177 -19 -267 -27 -271 -22 -4 3 9 25
27 47 27 33 60 55 159 102 133 65 444 177 472 171 9 -2 19 1 23 6 3 6 21 11
38 11 18 0 50 9 71 20 22 10 43 17 47 14 5 -3 9 2 9 12 0 13 3 14 15 4 18 -15
45 2 45 29 1 35 34 61 83 65 26 2 51 6 54 10 8 8 78 8 86 0z m437 -40 c0 -22
-58 -74 -74 -68 -17 7 -46 -22 -46 -45 0 -24 -21 -40 -110 -88 -78 -42 -266
-120 -309 -129 -8 -2 -44 -10 -80 -18 -100 -23 -233 -47 -237 -43 -2 2 15 14
39 27 23 13 58 37 78 54 20 17 69 51 108 75 43 27 71 51 71 62 0 9 6 22 14 28
15 12 140 60 231 88 28 8 56 20 62 25 7 6 21 8 32 5 10 -2 61 6 112 18 117 29
109 28 109 9z m-2011 -58 c62 -28 113 -56 112 -61 -3 -23 -260 -71 -436 -81
-187 -10 -335 -5 -455 15 -119 20 -300 65 -300 73 0 5 15 23 33 39 50 46 120
62 261 59 188 -5 433 0 516 9 107 12 141 6 269 -53z m-3439 -16 c30 -6 76 -14
103 -18 26 -5 67 -23 92 -41 40 -29 50 -31 112 -29 98 3 221 -27 199 -49 -4
-4 -63 -8 -130 -9 -91 0 -133 -5 -168 -18 -31 -12 -59 -16 -80 -12 -18 4 -44
6 -58 4 -112 -11 -548 12 -558 30 -4 5 -34 18 -67 27 -87 24 -116 36 -109 46
8 13 122 70 159 80 38 11 433 2 505 -11z m1615 -98 c67 -10 372 -29 560 -35
29 -1 56 3 63 11 8 7 25 10 40 6 122 -27 199 -49 211 -60 12 -10 8 -15 -24
-28 -71 -30 -230 -77 -275 -82 -25 -2 -70 -9 -100 -16 -64 -13 -165 -15 -270
-5 -41 4 -102 9 -135 12 -33 3 -85 10 -115 15 -30 5 -71 12 -90 15 -122 19
-207 38 -250 58 -19 8 -43 18 -52 21 -33 10 -19 36 30 57 110 48 222 56 407
31z m2532 -17 c-134 -118 -526 -266 -847 -319 -209 -34 -519 -58 -507 -39 10
16 121 80 225 130 127 61 217 90 331 108 53 9 150 27 216 41 66 14 127 27 135
29 8 1 22 5 30 8 8 3 44 8 80 11 49 3 69 9 81 25 17 21 45 24 219 29 l65 1
-28 -24z m-3142 -82 c33 -8 68 -17 79 -19 10 -2 41 -16 70 -32 28 -16 79 -39
113 -52 132 -48 102 -57 -222 -69 -246 -8 -307 -8 -322 2 -7 4 -29 8 -50 7
-21 0 -67 4 -103 10 -35 6 -71 8 -79 5 -8 -3 -17 -2 -20 2 -3 5 -52 23 -108
41 -57 18 -103 35 -103 37 0 6 161 58 235 75 89 22 415 17 510 -7z m2340 -18
c-27 -11 -96 -22 -89 -15 9 9 45 17 79 18 11 0 16 -1 10 -3z m-225 -13 c0 -11
-193 -102 -285 -135 -104 -37 -159 -54 -270 -81 -55 -13 -122 -31 -150 -40
-27 -10 -59 -15 -72 -11 -13 3 -23 1 -23 -4 0 -13 -69 -19 -73 -6 -3 6 -9 6
-18 -2 -8 -7 -24 -12 -34 -12 -637 -6 -697 -3 -813 30 -75 21 -90 36 -60 58
40 28 146 41 418 51 291 11 483 24 590 42 36 5 97 14 135 19 115 15 119 16
158 24 20 4 41 13 45 20 4 6 22 17 40 23 26 9 34 9 38 -2 4 -11 12 -11 44 0
60 21 330 42 330 26z"/>
<path d="M9560 5620 c-12 -7 -12 -12 -2 -22 9 -9 15 -9 24 0 8 8 9 15 2 22 -5
5 -15 6 -24 0z"/>
<path d="M5210 5480 c0 -5 7 -7 15 -4 8 4 15 8 15 10 0 2 -7 4 -15 4 -8 0 -15
-4 -15 -10z"/>
<path d="M8625 5490 c3 -5 10 -10 16 -10 5 0 9 5 9 10 0 6 -7 10 -16 10 -8 0
-12 -4 -9 -10z"/>
<path d="M5844 4906 c-23 -12 -41 -25 -41 -31 1 -17 90 -35 107 -22 8 6 16 12
18 13 6 3 -21 53 -32 57 -6 2 -30 -5 -52 -17z"/>
<path d="M6050 4830 c0 -5 5 -10 11 -10 5 0 7 5 4 10 -3 6 -8 10 -11 10 -2 0
-4 -4 -4 -10z"/>
<path d="M6190 4805 c0 -21 28 -31 43 -16 9 9 8 14 -3 21 -22 14 -40 12 -40
-5z"/>
<path d="M6615 5001 c-41 -9 -22 -17 58 -26 75 -7 93 7 30 24 -41 12 -43 12
-88 2z"/>
<path d="M6843 4953 c9 -2 23 -2 30 0 6 3 -1 5 -18 5 -16 0 -22 -2 -12 -5z"/>
<path d="M5288 4713 c-27 -7 -22 -23 7 -23 16 0 25 6 25 15 0 15 -2 16 -32 8z"/>
<path d="M9177 4016 c-6 -16 2 -28 14 -20 12 7 11 34 0 34 -5 0 -11 -6 -14
-14z"/>
<path d="M5000 3435 c0 -8 5 -15 10 -15 6 0 10 7 10 15 0 8 -4 15 -10 15 -5 0
-10 -7 -10 -15z"/>
<path d="M8595 3330 c-11 -17 18 -42 39 -34 9 4 16 14 14 23 -4 19 -43 27 -53
11z"/>
<path d="M6726 3273 c-6 -14 -5 -15 5 -6 7 7 10 15 7 18 -3 3 -9 -2 -12 -12z"/>
<path d="M8602 2603 c5 -25 28 -28 28 -4 0 12 -6 21 -16 21 -9 0 -14 -7 -12
-17z"/>
<path d="M8803 6173 c9 -2 23 -2 30 0 6 3 -1 5 -18 5 -16 0 -22 -2 -12 -5z"/>
<path d="M6460 6110 c0 -5 7 -10 16 -10 8 0 12 5 9 10 -3 6 -10 10 -16 10 -5
0 -9 -4 -9 -10z"/>
</g>
</svg>
